<svg id="Layer_2" data-name="Layer 2" xmlns="http://www.w3.org/2000/svg" viewBox="0 0 100.56 315.83"><defs><style>.cls-1{fill:#fff;}</style></defs><g id="Layer_2-2" data-name="Layer 2"><path class="cls-1" d="M91.68,17C89,14.88,87.63,13.78,86,12.52c0,1.7.12,4.06.15,5.18a7.26,7.26,0,0,1-.21,2c-.46,1.2-.91,1.25-1.65-.09a1.91,1.91,0,0,1-.08-1.39,24.71,24.71,0,0,0,.58-5.69c-1.59,2.22-6.69,5.4-9.52,5.79-.76.05-.91-.19-.39-.44,3.19-1.36,7.35-4,8.75-5.92-.49.07-1,.12-1.25.18-1.85.3-2.31.38-3.19,0-.55-.21-.48-.4.34-.48,1.18-.07,2.64-.2,5.26-.53V9.52c-2,.2-4.68.51-6.23.75a3.51,3.51,0,0,1-1.73-.14c-1-.41-.86-.61.37-.66s4.43-.3,7.59-.68V7.41c-1,.12-2,.23-2.49.35a3.7,3.7,0,0,1-2.58-.19c-.34-.21-.21-.36.36-.36s2.67-.22,4.71-.44a12.83,12.83,0,0,0-.06-1.63c-2.31.26-6,.83-6.77,1A4.63,4.63,0,0,1,75.7,6c-1-.42-.86-.62.38-.69s5-.53,8.61-1a3.27,3.27,0,0,0-.4-1.73c-1.15.2-2.33.35-3.43.43-.76,0-.82-.16-.37-.31,4.94-1.28,6.45-2,6.7-2.26.45-.6.79-.65,2.18-.17s1.52,1,.73,1.05a12.52,12.52,0,0,0-1.82.38,18.91,18.91,0,0,1-3.07.68c1.36.42,1.39.76,1.06,1.71,3.13-.43,5.84-.85,6.24-.93a6.67,6.67,0,0,1,2.91.22c1.82.71,1.21,1.12-2,1.1a42.29,42.29,0,0,0-7.29.41V6.55A28.67,28.67,0,0,0,89.34,6a2.58,2.58,0,0,1,2.55.11c1.19.59,1.19.66.46,1.34a2.12,2.12,0,0,0-.34.39l.82-.15a5.07,5.07,0,0,1,2.65.1c1.25.78,1.18,1-2,1a17.34,17.34,0,0,0-1.91.13,4.9,4.9,0,0,0-.22,1.26c0,.17.1.22.34.34.61.31.33.66-.15.68-1.4,0-3.47.24-5.35.44v.15a54.54,54.54,0,0,0,5.13,3,28.42,28.42,0,0,0,7.9,2.06c.82.1,1,.49.06.58C93.46,18.09,93,18.09,91.68,17ZM88.82,7A24.85,24.85,0,0,0,86,7.22V8.68c1.76-.18,3-.32,4.1-.49V7.63C90.22,7,90.12,6.92,88.82,7ZM86,9.41V11c3.37-.34,3.59-.41,3.64-.5A3.43,3.43,0,0,0,90,9.07c-1.1.13-2.4.24-4,.34Z" transform="translate(-0.1 0.01)"/><path class="cls-1" d="M80.49,43.27a13.72,13.72,0,0,1-7,6.08c-1,.42-1.19-.05-.55-.41a16.17,16.17,0,0,0,6.66-7.13c.18-.41.12-.48-.4-.33a19.39,19.39,0,0,0-2.19.73,2.47,2.47,0,0,1-2-.2c-1-.47-.88-.68.3-.68a9.93,9.93,0,0,0,4-.93c.61-.43,1-.43,1.86,0s.91.68.33,1.14A12.34,12.34,0,0,0,80.49,43.27Zm5-5.37a5.93,5.93,0,0,1,.4,1.32A5.8,5.8,0,0,1,88,39c.61.15.73.43,0,.7a16,16,0,0,1-1.92.51c.06.47.12,1,.15,1.63a4.25,4.25,0,0,1,1.74,0c.54.15.48.56,0,.73a11.08,11.08,0,0,1-1.71.37c0,.63,0,1.27,0,1.91a8.87,8.87,0,0,1,3-.19c.64.12.58.51,0,.66a18.53,18.53,0,0,1-3,.58c0,4.58-.12,5.08-1.19,6.56-.63.91-1.24.91-1.63.41a12.57,12.57,0,0,0-2.31-2.06c-.52-.33-.28-.58.27-.46,2.07.43,2.8.26,3.1-.93a18.55,18.55,0,0,0,.37-3.33,7.32,7.32,0,0,1-3.16,0c-.67-.19-.7-.49-.07-.54,1.1-.1,2.19-.22,3.23-.4v-2A8.68,8.68,0,0,1,82.71,43c-.76-.23-.73-.47-.06-.55s1.46-.18,2.19-.31a13.7,13.7,0,0,0-.06-1.7,11.37,11.37,0,0,1-2.1.1c-.76-.2-.76-.53,0-.61a20.1,20.1,0,0,0,2-.37c-.12-.87-.33-1.13-.73-1.36-1.24-.7-1-1,1-.65a18.63,18.63,0,0,0,3.28-2.44c.37-.48.18-.63-.61-.5-.57.1-4.47,1.06-5,1.21A2.72,2.72,0,0,1,80,35.55c-1.12-.63-.91-.91.09-.84a31.22,31.22,0,0,0,7.45-1,2.43,2.43,0,0,1,2.68.26c1.88,1,1.91,1.56.73,1.68S88.21,36.39,85.53,37.9ZM99.82,49.6c-5.2.12-5.35.07-6.3-1.29s-2.48-3.89-3-4.59a9.19,9.19,0,0,0-2.07-2.83c-.66-.51-.6-.76.22-.58a4.07,4.07,0,0,1,2,1.55c1.37-.85,2.67-2.06,2.73-2.53,0-.78.13-.83,1.71-.38s1.61.87,1,1.13-1.27.55-5,2.31a19.38,19.38,0,0,0,3.35,3.82,13.17,13.17,0,0,0,5.69,2.71C100.86,49.15,100.91,49.57,99.82,49.6Z" transform="translate(-0.1 0.01)"/><path class="cls-1" d="M91.64,70.26c-1.48.34-5.1,1-7.47,1.32a22.71,22.71,0,0,1-3.74,4.76c-.09,2-.18,5.69-.18,6.91a6.65,6.65,0,0,1-.58,2.85c-.43.54-.76.42-1.25-.34a2.52,2.52,0,0,1-.06-2,19.72,19.72,0,0,0,.64-6,17.83,17.83,0,0,1-7,4.82c-.76.22-.91,0-.34-.41a35.12,35.12,0,0,0,7.21-5.93c-.4-1.13-.12-1.31.91-1a13.94,13.94,0,0,0,2.55-3.41,13.56,13.56,0,0,1-3.71,0c-1.27-.33-1.33-.61-.31-.7,1.83-.19,3.35-.39,4.72-.61,1.28-2.56,1.36-4.13,1.13-4.5-.58-1-.19-1.33,1.61-.63,1.27.48,1.49.83,1,1.58a23.48,23.48,0,0,0-1.76,3.23c1.79-.31,3.58-.71,5.92-1.26a4.38,4.38,0,0,1,2.77-.15C94.38,69,93.92,69.73,91.64,70.26Zm4.08,13a49,49,0,0,0-12.16.47,3.83,3.83,0,0,1-2.39-.1c-1.13-.42-1-.85,0-.83s3.83-.17,6.62-.44l.13-3.94a9,9,0,0,1-3.68-.07c-1-.35-1.07-.58-.18-.66s2.34-.27,3.89-.56c0-2.57-.13-3.62-.46-3.94-.92-.86-.33-1.33,1.36-.69,1.32.49,1.52.76,1.1,1.41a18.67,18.67,0,0,0-.34,2.9c1-.18,1.86-.37,2.5-.52a4.47,4.47,0,0,1,2.46,0c.58.2.67.69-.51,1a36.49,36.49,0,0,1-4.5.88l-.09,4,4.34-.59a5.82,5.82,0,0,1,4.13.59C98.81,82.74,98.33,83.56,95.72,83.22Z" transform="translate(-0.1 0.01)"/><path class="cls-1" d="M95.62,110a4.68,4.68,0,0,1-3.68-.9,53.29,53.29,0,0,1-6-4.52,13.21,13.21,0,0,0,.09,2.18,5.66,5.66,0,0,1-.36,2.64c-.22.38-.65.35-1,0a1.63,1.63,0,0,1-.36-1.68,14.62,14.62,0,0,0,.39-3.22,19.53,19.53,0,0,1-5.62,4.77,21.58,21.58,0,0,1-5.4,2c-1.49.22-1.89,0-.25-.53,3.83-1.44,7.6-3.77,9.18-6a31.05,31.05,0,0,0-3.32.55,4.42,4.42,0,0,1-3,0c-1.07-.51-1-.78.91-.78.42,0,4.59-.46,7.47-.81.1-1.28-.06-1.76-.6-2.28-.82.15-2.28.37-2.71.39-1.28.08-1.49-.14.6-.7a29.41,29.41,0,0,0,5.39-2c.3-.55.69-.63,2.16.15s1.46,1.2-.15,1.2a28.87,28.87,0,0,0-4.23.77c1.31.29,1.46.61,1.1,1.2A3.86,3.86,0,0,0,86,103.5c1.13-.12,2.43-.31,3.58-.51,3-.48,3.23-.46,4.33-.07s1.15,1.1-.73,1a60.21,60.21,0,0,0-6.72.28c4.93,3,8.3,4.07,11.37,4.52,2.67.4,2.85.67.87.83C97.42,109.7,96.56,109.87,95.62,110Zm-4.86,5.52a5,5,0,0,1-1,3.13c-1,1.35-1.31,1.2-2.1-.91a1.39,1.39,0,0,0-1.18-1c-.91,0-3,.12-4.65.25-.09,1.09-.34,1.67-.7,1.67s-1.1-1.09-.88-2.57a10.58,10.58,0,0,0-.4-5.21c-.49-.64-.21-1,1.22-.42a34.52,34.52,0,0,0,6.31-1,2.82,2.82,0,0,1,1.86,0,8.43,8.43,0,0,1,1.71.7c.42.24.33.54,0,.81s-.47,1.24-.17,4.52Zm-2.15-4c-.16-1-.4-1.18-1.59-1.08-.91.1-3.5.32-5.38.54.06.77.13,1.58.19,2.33,2.76-.63,4-.8,4.4-.65,1.22.37,1.18.65.1.82a22.66,22.66,0,0,1-4.5.3c.06,1,.09,1.89.06,2.55,1.58-.17,3.25-.44,3.89-.54a2.94,2.94,0,0,1,1.85.18c.91.7,1.13.63,1.13-.37a35,35,0,0,0-.15-4.09Z" transform="translate(-0.1 0.01)"/><path class="cls-1" d="M75.66,148.56c-.34,1-.76,1.09-1.52-.57-.67-1.45-.61-1.74,0-1.76a2.66,2.66,0,0,0,1.58-.91c.82-.9,1.85-2.06,2.67-2.86s1-.47.46.28A28.14,28.14,0,0,0,75.66,148.56Zm.63-8.29a8.34,8.34,0,0,1-2-1.73c-.43-.53-.21-.68.61-.58,1.67.19,2.52.7,2.57,1.46C77.6,140.39,77.21,140.8,76.29,140.27ZM79,135.82a10.81,10.81,0,0,1-2.18-1.75c-.42-.45-.18-.61.49-.59,1.79.08,2.55.51,2.82,1.59.19.75-.36,1.18-1.13.75Zm20.65,9.58c-4.47.43-4.66.41-6.21-.81-2.06-1.63-4-3.37-5.92-5.2-.82.12-2,.31-3,.49,1.24.68,1.16.87.82,1.22a23,23,0,0,0-2,2.21h.39a12.14,12.14,0,0,0,3.86-.75c.48-.2.85-.23,1.77.23,1.27.61,1.36.85.85,1.25a4.72,4.72,0,0,0-1.19,1.21c-.12.15-.06.34.18.51s.28.49-.27.61a14.53,14.53,0,0,1-4.59.56,6.51,6.51,0,0,0,.09,2c.18.91,1.86,1.41,4.34,1.23,2.65-.25,3-.47,4-2.64.19-.38.44-.5.55.13a11.48,11.48,0,0,0,.61,1.7c.24.49.18.86-.63,1.24a12.42,12.42,0,0,1-5.18.88c-4.49-.32-5-1.2-4.93-4.8a8.66,8.66,0,0,0-.09-2.49,1.86,1.86,0,0,1-.09-.47,12.8,12.8,0,0,1-5.32,3.62c-.85.29-.91,0-.09-.49a18.84,18.84,0,0,0,5.41-5.15,4.46,4.46,0,0,0,.85-1.75,10.54,10.54,0,0,0-1.24.27c-1.74.36-2.25.33-3.07,0s-.37-.58.67-.63c.27,0,2.25-.27,4.46-.57l-.33-2.4a3.41,3.41,0,0,1-2-.15c-.54-.22-.42-.44.25-.51l1.58-.21a7.57,7.57,0,0,0-.82-2.54c-.67-.78-.4-1,1-.58s1.34.66,1.25,1a8.54,8.54,0,0,0-.19,1.89c1.37-.22,2.89-.48,4.08-.71.48-1.68.48-2.63.15-3.18-.43-.73,0-.91,1.25-.46,1.46.51,1.55.9,1.27,1.26a17.88,17.88,0,0,0-1.07,2.09c1.68-.31,2.25-.34,2.62-.16.55.21.67.65-.31.86l-2.79.42-1.24,2.7c.88-.15,1.58-.26,2-.36,2-.42,3-.45,3.89-.13,1.19.36,1.34,1-.54,1a61.4,61.4,0,0,0-6.51.28c5.53,4.12,6.57,4.24,11.43,5.48C100.43,144.89,100.52,145.27,99.67,145.4Zm-12.83-1.85a17.37,17.37,0,0,1-2.28.32,9.22,9.22,0,0,1,0,2.57,14.21,14.21,0,0,0,2.65-.56c.57-.2.76-.58,1-2,0-.41-.36-.6-1.35-.41Zm-1.24-7,.09,2.48c1-.12,2-.26,2.82-.39l.82-2.68a35.61,35.61,0,0,0-3.76.59Z" transform="translate(-0.1 0.01)"/><path class="cls-1" d="M78.73,173.6c0,1.37-.16,6.83-.19,8.08,0,1.73-.48,2.89-.82,3.11s-.67.22-1-.41a2.59,2.59,0,0,1-.18-2.14,27.9,27.9,0,0,0,.76-6.23,14.16,14.16,0,0,0-.15-3.79,15.73,15.73,0,0,1-5,3.89c-.69.32-.88,0-.36-.36a28.42,28.42,0,0,0,6.32-6.81c.82-1.1,1.37-2.51,1.12-3.21s.34-1,1.58-.2,1.28,1.27.79,1.58a11.22,11.22,0,0,0-1.7,1.81c-1,1.26-1.46,1.86-2.07,2.59A2,2,0,0,1,78.73,173.6ZM91,178.67a1.51,1.51,0,0,1,1.52.17c1.27.58,1.21,1,.67,1.26a9.08,9.08,0,0,0-2.11,1.8,26.72,26.72,0,0,0,8.39,2c.67.08.7.46-.09.56-4.77.68-5.23.63-6.9-.39l-2.44-1.5a12.36,12.36,0,0,1-6.26,1.64c-.51,0-.51-.31.15-.43a13.5,13.5,0,0,0,5-1.88,21.53,21.53,0,0,0-2.8-1.6,15.73,15.73,0,0,1-5.92,3.23c-.64.13-.76-.1-.25-.31a22.11,22.11,0,0,0,3.68-2.43c1.52-1.34,1.76-1.76,1.79-2.31s.28-.53,1.22,0c.55.27.73.43.7.65A20.8,20.8,0,0,0,91,178.67Zm-9-2.41a2.87,2.87,0,0,1-1,1.36c-.43.32-.86.27-1-.49a1.55,1.55,0,0,1,.37-1.24,8.48,8.48,0,0,0,.82-1.72c.09-.35.49-.5,1,.26.7-.07,2-.21,2.89-.34a15,15,0,0,0-.18-2.5,3.44,3.44,0,0,0-.52-1.82c-.33-.49.09-.64,1.34-.4a7.26,7.26,0,0,0,1-.12,5.09,5.09,0,0,0,.91-2c-2.59.27-3.07.22-3.89-.07-.61-.18-.48-.44.15-.46a73.92,73.92,0,0,0,7.57-1,7.4,7.4,0,0,1,3.62-.08c1.1.37,1,.61-.83.86-1.12.17-2,.27-5,.53.64.39.64.52.31.65a6.89,6.89,0,0,0-1.92,1.42c1-.19,2.1-.42,3-.64a2.37,2.37,0,0,1,2,.18c1.24.55,1.15.85.7,1.23s-.7,1.27-.85,3.34c1.66-.28,2.4-.39,2.88-.51.76-.17,1.06-.15,2.5.63s1.43,1.43.33,1.51a10.4,10.4,0,0,0-3.23.92c0,.08.1.14.1.22.09.44-.16.54-.7.41A8.13,8.13,0,0,1,92,175.29c-.21-.15-.21-.21.09-.26a4.29,4.29,0,0,1,2.59.41,12,12,0,0,0,1-1.31c.25-.37-.06-.54-1.15-.47-.82.05-2.71.25-7.9.88-2.64.34-3.77.46-4.38.49C82.19,175.5,82.06,176,82,176.26Zm1.54,2.23c-.36.13-.63,0-.6-.34a2.41,2.41,0,0,1,.24-.63,7.72,7.72,0,0,0,.82-1.46c.16-.26.4-.21.49,0a1.7,1.7,0,0,1,0,1.61,2.33,2.33,0,0,1-.94.82Zm7.76-1.89c-.1-.25-.21-.54-.3-.71s0-.26.23-.09q1,.66,2,1.23c.48.2.45.41.06.54a11.08,11.08,0,0,1-4.5.49c-1.7-.2-2.8-.78-3.29-2.1-.12-.36-.12-.48,0-.51a.47.47,0,0,1,.39.2A3.38,3.38,0,0,0,87.74,177a6.61,6.61,0,0,0,2.8.12c.58-.1.86-.29.74-.53ZM91,173.39a31.33,31.33,0,0,0,.14-3.21c0-.93-.26-1-1.82-.76-1,.13-2.27.32-3.13.49V171c2.41-.68,2.83-.7,3.47-.53s.61.28.18.41a12.19,12.19,0,0,1-3.65.55c0,.37.07.78.07,1.13,2.15-.51,3.13-.56,3.61-.37.31.1.31.17-.06.32a10.47,10.47,0,0,1-3.52.43,5.06,5.06,0,0,0,.06,1c2-.21,3.46-.37,4.65-.52ZM91,180c.2-.41.09-.51-.46-.46a24.7,24.7,0,0,1-3.65.13,2.22,2.22,0,0,0-.28.33,10.15,10.15,0,0,1,3.32,1.31A5.84,5.84,0,0,0,91,179.94Zm-3-4.93c1.6,0,2.22.41,2.12,1-.06.3-.21.34-.57.27a4.32,4.32,0,0,1-1.74-1c-.23-.15-.23-.24.17-.24Z" transform="translate(-0.1 0.01)"/><path class="cls-1" d="M91.64,215.06c-4.55-2.78-7.9-4.94-10.73-6.76-.06,2.4-.15,4.54-.27,6.26a48.34,48.34,0,0,1,4.53-1.7c.76-.24,1.12,0,.43.42a42.49,42.49,0,0,0-6.48,3.95c-.73.65-1.25.36-1.46-.25s-.27-1.28.12-1.58A3.09,3.09,0,0,0,79.36,213a54.88,54.88,0,0,0,.19-8.6,4,4,0,0,0-1.07-2.73c-.45-.46-.15-.89,1.52-.29a38.6,38.6,0,0,0,7.6-1.58,2.3,2.3,0,0,1,1.22-.09,10.89,10.89,0,0,1,2.64.92c.58.36.45.71.22.83a3.74,3.74,0,0,0-1.43,1.89c-.22.53-1.16,2.36-1.89,3.62-.25.42-.58.57-1.12.15-.15-.12-.73-.1-2,.1-1.91.32-3.07.46-4.28.56a36.48,36.48,0,0,1,5.22,2.73c3-1.66,4-3,4.22-3.56.13-.41.31-.53,1.55,0s1.29,1,.47,1.17c-.31.08-2.71,1.11-5.78,2.65A31.55,31.55,0,0,0,99.25,215c1,.14,1.24.48.06.6C93.8,216.27,93.46,216.17,91.64,215.06ZM87.09,200.8c-.61,0-2.47.39-4.11.73a13.07,13.07,0,0,1-2.25.29,7.88,7.88,0,0,1,.28,2.51c4.06-1.1,4.56-1.2,5-1.15.79.08.61.63-.06.83-2.34.61-3.25.85-5,.58a26.17,26.17,0,0,1-.07,2.66c4.93-1,5.35-1,5.65-.93s.76.1.86-.2a15.4,15.4,0,0,0,1-4.83C88.36,200.82,88.11,200.74,87.09,200.8Zm-1.49-2.16A17,17,0,0,1,83,197.3c-.61-.38-.64-.73.37-.75,2.22-.08,3.49.39,3.8,1.19s-.25,1.39-1.55.95Z" transform="translate(-0.1 0.01)"/><path class="cls-1" d="M83.13,240.89a31.36,31.36,0,0,1-.42,3.87c-.21,1-.85,2-1.16,2s-.48-.32-.79-1.4c-.18-.63-.42-.65-1.18-.48a10.5,10.5,0,0,1-2.68.25c-.16,1.06-.36,1.36-.55,1.36-.37,0-.82-.59-.76-1.68.19-3.48-.21-6.39-.94-7.27-.42-.53-.27-.66.49-.58a3.68,3.68,0,0,1,.73.11,4.28,4.28,0,0,0,.61-.09c2-2.58,3-4.59,2.76-4.94-.42-.93-.27-1.17,1.58-.78,1.61.37,1.58.68.82,1.23a33.07,33.07,0,0,0-4.14,4.31,21.49,21.49,0,0,0,3.08-.82c.64-.25.91-.27,2.07.12,1.43.51,1.61.83,1,1.56A10.86,10.86,0,0,0,83.13,240.89ZM79.46,237c-1.68.29-2.38.39-3,.44a26.8,26.8,0,0,1,.33,3c.58-.12.88-.22,1.25-.32a4.41,4.41,0,0,1,1.49-.21c.76,0,1,.58.27.78a9.85,9.85,0,0,1-3,.36,32.7,32.7,0,0,1,0,3.43c2-.47,3-.59,3.6-.27s.66.22.84-1.51a29.83,29.83,0,0,0,.09-5C81.46,236.93,81,236.71,79.46,237Zm16.26,4.23a28.06,28.06,0,0,1-.67,4.55,5.24,5.24,0,0,1-2.85,3.72c-.67.32-1.07.27-1.27-.32a7.6,7.6,0,0,0-1.62-2.31c-.79-.71-.63-1,.76-.36,1.88.75,2.77.2,3.31-1.88a20.76,20.76,0,0,0,.91-6.26c-.06-1.59-.29-1.91-1.33-1.83s-1.89.19-2.86.34a3.07,3.07,0,0,1-2.21-.42,17.45,17.45,0,0,1-3.35,2.71c-.58.31-.82.14-.3-.32a25.85,25.85,0,0,0,4.47-5.47c.93-1.72,1.12-2.41,1-2.7-.27-1-.18-1.07,1.34-.75,1.73.36,2,.7,1.18,1.26a13.72,13.72,0,0,0-2,2.46,19.11,19.11,0,0,1-2,2.43,4.63,4.63,0,0,0,2.28,0,10.64,10.64,0,0,0,2.55-.6c1-.49,1.21-.49,2.61.11,1.58.68,1.68,1,.82,1.85C96,237.9,95.8,238.87,95.72,241.23Zm-7.26.76a24,24,0,0,1-1.64-2.12c-.39-.56-.25-.7.79-.49,1.58.35,2.19.9,2.31,1.66.17,1.24-.77,1.75-1.47,1Z" transform="translate(-0.1 0.01)"/><path class="cls-1" d="M72.22,274.08c-.79.39-1,.15-.24-.43a26.23,26.23,0,0,0,5.32-5.81c1.36-1.9,2-3.34,1.72-4.07s.1-1,1.53-.24,1.46,1.07.75,1.53a5.87,5.87,0,0,0-1.21,1.37c-.76,1.09-1.43,2-2,2.74a2.47,2.47,0,0,1,.85,2.31c-.06,2.77-.15,5.86-.21,8.07-.07,1.86-.13,2.24-.28,2.51a.67.67,0,0,1-1.24.1,2.37,2.37,0,0,1-.31-2.51,29.9,29.9,0,0,0,.61-5.73,15.27,15.27,0,0,0-.18-3.82A14,14,0,0,1,72.22,274.08Zm12.43-7.27c-.73-.14-.82-.41.06-.53,1.49-.19,2.56-.34,3.35-.49a3.8,3.8,0,0,0-.43-2.24c-.61-.73-.31-1,1.1-.58s1.36.56,1.09,1.21a4,4,0,0,0-.3,1.4c2.16-.47,2.55-.55,3.4-.42s.94.53-.39.85c-.53.12-1.58.3-3.07.51l-.13,1.2c.83-.13,1.65-.3,2.35-.45a4.19,4.19,0,0,1,3.13.17c1.3.56,1.21,1,.57,1.31a9.35,9.35,0,0,0-1.64,2.49c-.37.6-.67.68-1.21.37-.28-.15-.49-.15-1.65,0-.3,0-1.15.14-1.88.18l-.1,1.37,2.81-.39c-.79-.68-.65-.8.42-.58,2,.43,2.59,1,2.37,1.56s-.51.48-1.07.19a7.86,7.86,0,0,1-1.18-.71c-.61.1-1.18.22-1.73.32,1.64.48,1.76.7,1.58,1.19a2.45,2.45,0,0,1-.1.42c1.2-.15,2.32-.3,3.2-.44a4.76,4.76,0,0,1,3,.21c1.07.5.82,1.1-1.06.93a37.31,37.31,0,0,0-5.18.15c0,.54,0,1.09.1,1.63a16.83,16.83,0,0,1,0,2.84,3.34,3.34,0,0,1-1.22,2.72c-.43.44-.79.42-1.12-.07a8.4,8.4,0,0,0-2.22-1.8c-.67-.37-.52-.68.46-.51,1.88.34,2.25.17,2.4-.56a14.4,14.4,0,0,0,.15-2.62,11.2,11.2,0,0,0-.06-1.53c-5,.41-6.69.68-7.72.85a3.93,3.93,0,0,1-2.4-.12c-1-.4-1-.55.19-.6,1.6-.06,4.06-.28,9.86-.91a2.25,2.25,0,0,0-.66-1.66,46.14,46.14,0,0,0-5.05,1.16c-.6.2-.88.2-1.73-.28s-.67-.68.27-.73c1.52-.1,3-.27,4.53-.52l.07-1.41c-.92.1-1.74.2-2.62.32a.3.3,0,0,1-.22.38.22.22,0,0,1-.11,0c-.31,0-.82-.41-1.1-1a6.47,6.47,0,0,0-1.43-2.21c-.79-.6-.7-.93.82-.78,1.62-.2,2.83-.42,4.81-.71v-1.17a9.7,9.7,0,0,1-3.27,0Zm3.26,3.43a4.82,4.82,0,0,1-2.31,0c-.43-.13-.34-.34.42-.41a11,11,0,0,0,1.92-.25v-1c-1.77.24-3,.41-3.8.56.3.85.54,1.53.85,2.46,1-.15,1.88-.27,2.86-.37Zm-1.86,8.95a7.81,7.81,0,0,1-1.31-1.77c-.27-.54-.21-.59.61-.4,1.52.42,1.86.8,1.86,1.58S86.51,279.62,86.05,279.19Zm3.19-9.87a3.58,3.58,0,0,1,2.1-.1c.46.17.43.41-.33.55l-1.86.3-.09,1,2.85-.28c.46,0,.62-.15.73-.4a5.24,5.24,0,0,0,.52-1.5c.16-.76-.12-.9-1.19-.83-.54,0-1.39.12-2.67.3Z" transform="translate(-0.1 0.01)"/><path class="cls-1" d="M73.71,315a10.49,10.49,0,0,1-1.67-3.3c-.06-.22.06-.27.33-.12,2.59,1.26,3,1.89,2.62,3.11C74.74,315.42,74.14,315.49,73.71,315Zm6-8c-.37-.9-.24-1,.45-.75,1.83.6,2.13,1.43,1.71,2.41-.22.55-.64.6-1.1.11a7.52,7.52,0,0,1-.57-.82c-3.32,1.26-4,1.53-4.47,2s-.79.36-1.29-.25-.48-1.11,0-1.36,1.2-.88,3.63-3.79a21,21,0,0,0-3.86.7c-.58.2-1.13,0-1.49-.78-.22-.38-.09-.58.64-.85s2-1.67,3-3.35c1.18-2,1.37-2.63,1.07-3.24s.06-1,1.43-.19,1.4,1.24.76,1.73-1.16,1.1-4.71,5.2a31,31,0,0,0,3.73.07c1.34-1.58,1.77-2.45,1.59-3.33-.13-.61.27-.73,1.36-.11,1.4.8,1.34,1.11.61,1.6-.92.63-2.49,2.14-5.92,6.27a12.7,12.7,0,0,0,3.71-.76c0-.16-.18-.31-.24-.48ZM77,312.85a8.89,8.89,0,0,1-1.12-1.78c-.15-.29,0-.34.27-.24,1.8.53,2.07.92,2.1,1.84,0,.6-.79.82-1.24.22Zm3.59-.81a5.9,5.9,0,0,1-1.4-1.7c-.21-.43-.13-.51.21-.43,2,.45,2.16.7,2.19,1.63s-.42,1-1,.54Zm6.11-1.48c-1,1.53-4.5,3.84-6.81,4.3-.79.12-.83-.14-.15-.43A19.43,19.43,0,0,0,84.44,311a5.86,5.86,0,0,0,1.89-3.7c0-.21.33-.36.85-.09,1.15.64,1.3,1.07.76,1.5a14,14,0,0,0-1.28,1.87ZM91,304.19c-.53-.51-.5-.61.17-.49,2.59.4,3.86,1.88,3.53,2.73s-.63.82-1.42.07c-.28-.24-.56-.59-.92-.92-5.1,1-6.71,1.41-7.66,1.84-.79.35-1,.32-1.27-.36s-.28-.9.09-1.05a6.1,6.1,0,0,0,2.1-1.33,7.34,7.34,0,0,0,2.28-2.84c-2.53.4-3,.4-3.87.07-.57-.22-.54-.44.07-.44a67.3,67.3,0,0,0,8.08-1.54,5,5,0,0,1,2.88-.14c1.16.32,1.2.68-.91,1.07-1,.2-2.58.46-4.77.78,1,.73.86,1,.27,1.28a24.16,24.16,0,0,0-3.94,3,45.93,45.93,0,0,0,6.19-.78l-.9-.87ZM89.4,298.5a24.55,24.55,0,0,1-2.81-2c-.23-.22-.08-.47.43-.44,3.2.22,4,.8,3.71,2.18-.12.92-.34,1-1.33.34Zm8.53,16.56a9.21,9.21,0,0,1-3.4.65c-2.06,0-2.85-.1-3.89-.78a3.08,3.08,0,0,1-1.12-3c.24-4,.17-4.8-.09-5.4-.13-.28.06-.4.79-.14,1.15.37,1.58.85,1.15,1.55-.36.55-.61,1.78-.49,4.29.1,1.56,1,2.21,3.62,1.84,2.4-.28,2.53-.48,3.29-3.79.17-.92.42-1,.48-.26a8.78,8.78,0,0,0,.85,3.37c.42.62.33,1-1.19,1.72Z" transform="translate(-0.1 0.01)"/><path class="cls-1" d="M14.21,6.78C9.65,11.11,7.13,13.6,7,14.07c-.43,1.15-.93,1.18-1.87.4C4,13.56,3.9,13.22,5,12.73c.91-.42,1.44-2.84,1.28-5.53a8.66,8.66,0,0,0-1-3.55c-.87-.85-.53-1.25,1-.71s1.81.83,1.38,2a53.87,53.87,0,0,0-.19,6c2-1.52,3.5-2.59,6.06-4.53.56-.41.85-.43,1-.31S14.72,6.29,14.21,6.78Zm10.12,8.13a49.82,49.82,0,0,0-4-4,18.69,18.69,0,0,1-9.29,5.53c-1.07.27-1.17-.11-.13-.56a20.51,20.51,0,0,0,9.82-8.36c1.31-2.53,1.59-6,1-6.72s.15-1.14,1.5-.49c2.14,1.09,2.2,1.23,1.44,2.09-.28.29-.46.71-.86,2.19a18.13,18.13,0,0,1-1.68,3.73,13,13,0,0,1-1.57,2.25c5.27,1.78,6.49,3.05,6.15,4.77C26.58,16.35,25.83,16.64,24.33,14.91ZM15.52,4.21a12.26,12.26,0,0,1-2.81-2.15c-.43-.44-.34-.66.45-.54,2.78.44,3.74,1,3.86,1.83C17.2,4.49,16.53,4.79,15.52,4.21Z" transform="translate(-0.1 0.01)"/><path class="cls-1" d="M14.57,32.59c-1.63.2-3.09.42-4.44.59.71.4.93.69.89,1s0,.52-.06.91l1.87-.29c1.25-.25,1.5-.23,1.92.05s.19.61-.45.66a31.37,31.37,0,0,0-3.37.34,14.62,14.62,0,0,1-.06,1.61c2-.17,3.52.4,3.34,1.25s-.65.76-1.2.44c-.89-.57-1.41-.92-2.14-1.44v1.81a4.39,4.39,0,0,1-1,3.28c-.33.31-.7.26-1-.19a10.88,10.88,0,0,0-1.53-1.72c-.42-.34-.28-.49.27-.37,1.47.35,1.72.25,1.84-.58A20.57,20.57,0,0,0,9.65,36c-1.11.17-2.39.42-3.92.71a3,3,0,0,1-1.8-.14c-.77-.35-.8-.52.09-.62,1.44-.15,3.7-.42,5.57-.68a4.18,4.18,0,0,0-.44-1.94,51.78,51.78,0,0,0-5.19,1A2.49,2.49,0,0,1,1.44,34c-.63-.48-.51-.73.07-.71a70.45,70.45,0,0,0,8.94-1,8.6,8.6,0,0,0,1.41-3c.06-.34.21-.44.77-.15,1.06.54,1.16.76.63,1.1a19.62,19.62,0,0,0-1.89,1.87A12.69,12.69,0,0,1,15,31.85C15.77,32,15.55,32.48,14.57,32.59ZM5.88,39.82a3.42,3.42,0,0,1-1.31,1.71.59.59,0,0,1-.79-.27v0a1.7,1.7,0,0,1,.34-1.71A12.09,12.09,0,0,0,5.3,37.66a.42.42,0,0,1,.57-.13.4.4,0,0,1,.13.13A2.56,2.56,0,0,1,5.88,39.82Zm8.69-11.51-2.51.42a25.85,25.85,0,0,1-5.1.62c-2-.2-2-.69-.62-.74a44.42,44.42,0,0,0,4.72-.71c2.78-.56,3.12-.61,3.57-.51,1,.24,1.08.73-.06.92Zm-6.45,3.5A3.58,3.58,0,0,1,7,30.47c-.12-.39.14-.52.7-.37,1.34.37,1.59.81,1.47,1.4S8.7,32.21,8.12,31.81Zm3.45-5.09A12.74,12.74,0,0,1,9.49,25c-.34-.32-.18-.54.5-.47,2.19.23,2.9.69,2.87,1.55a.82.82,0,0,1-.83.8.79.79,0,0,1-.46-.15Zm15.54,6.17a37,37,0,0,0-4.59.32c.92.42,1.07,1,.86,1.39a24.1,24.1,0,0,0-.18,4.16,25,25,0,0,1-.71,7.17c-.34.91-.88.79-1-.16a52.41,52.41,0,0,1,0-6.14c.15-3.39.06-5-.34-6.25a7.85,7.85,0,0,1-2.69-.17c-.68,5.5-2.21,7.49-5.27,9.06-.57.29-.88.09-.39-.32a10,10,0,0,0,3.45-4.7c1-3.87,1.08-6.68.12-7.68-.46-.52-.34-.84,1.44-.59,2.75-1.27,3.77-2.06,4-2.62s.37-.69,1.84.05,1.53,1.17.65,1.27a43.07,43.07,0,0,0-5.69,1.54c.19.56.24,1.23,0,3.52A49.94,49.94,0,0,0,25,31.69a5.08,5.08,0,0,1,2.51.15c1,.47.88,1.08-.41,1.08Z" transform="translate(-0.1 0.01)"/><path class="cls-1" d="M4.14,69.81c-.7,1.08-1.77.76-1.47-.27A21.6,21.6,0,0,1,3.77,67c.4-.65.52-.65.67-.12A3.23,3.23,0,0,1,4.14,69.81ZM4.14,59c-.86.45-1.07.26-.52-.27a17.56,17.56,0,0,0,4-5.1,1.69,1.69,0,0,0,.21-1.1c-.24-.69.19-.87,1.5-.22s1.16.67.64,1.12a18.36,18.36,0,0,0-2.08,2.41,4.48,4.48,0,0,0,2.29-.57c.84-.42,1.14-.42,2.21.15.79.44.7.83.09,1-.8.28-1.8.92-3.73,2.92,1-.24,2-.46,2.33-.59a1.83,1.83,0,0,1,1.34-.07,8.87,8.87,0,0,1,1.32.53c.46.22.55.55.12.89a3.89,3.89,0,0,0-.68,1.49,10,10,0,0,1-1.13,3.31c-.31.51-.49.56-.88.24a.9.9,0,0,0-.77-.22,38.63,38.63,0,0,0-4.53.66c-.09.2-.18.34-.31.34a1,1,0,0,1-.79-.78c-.58-3.06-1.1-4.43-1.43-4.74-.5-.5-.16-.94,1.25-.55a27,27,0,0,0,3.24-.37c2.39-3.18,2.29-3.23,1.66-3.11a3.47,3.47,0,0,1-2.09-.09A16.76,16.76,0,0,1,4.17,59Zm1.17,1.47c.18,1.19.39,2.86.6,4.5.74-.17,1.59-.35,2.06-.42l.09-1.67a5.57,5.57,0,0,1-1.29,0c-.86-.12-.8-.56-.18-.61a12.35,12.35,0,0,0,1.47-.2,3.2,3.2,0,0,0-.25-1.88c-.71.1-1.59.23-2.47.28Zm1.16,8.48a5.1,5.1,0,0,1-.34-1.81c0-.49.12-.52.37-.27,1.13.94,1.28,1.37,1,1.94s-.87.54-1,.14Zm2.65-.81a4,4,0,0,1-.58-1.37c-.08-.58.06-.6.34-.43,1.08.65,1.34,1.05,1.19,1.6s-.64.62-.92.2Zm1.47-4c.5,0,.59,0,.71-.5a12.82,12.82,0,0,0,.48-3.37c0-.56-.3-.71-1-.64-.43,0-.82.1-2,.27.52.25.74.47.52.9a4.53,4.53,0,0,0-.18.89,2.36,2.36,0,0,1,1.59-.15c.68.22.65.49,0,.66s-1.16.34-1.72.47l-.12,1.64a6.7,6.7,0,0,1,1.73-.13Zm1.56,3.78a11.65,11.65,0,0,1-.88-1.53c-.43-.69-.15-.81.42-.54,1.75.78,1.93,1.27,1.38,2-.3.56-.55.56-.89.06Zm12-7.26c.57.19.69.61.21.78a27.27,27.27,0,0,1-3.92.59v2.38c1.9-.27,3.28-.5,4.68-.72a4.42,4.42,0,0,1,3.15.4c.86.54.53,1-.52,1a40.61,40.61,0,0,0-7.31.27c.06,4.52-.15,6.09-.79,7.86-.28.7-.55.68-.71-.13-.09-.47-.12-4-.06-7.59a25.59,25.59,0,0,0-3.48.5,3.3,3.3,0,0,1-2.21-.2c-.91-.32-.88-.54-.12-.59,1.46-.1,2.9-.25,5.84-.56v-2.4c-2.17.17-2.78.1-3.17-.1-.62-.29-.62-.51.06-.56.91-.07,2.07-.19,3.08-.37V58.93c-2.29.28-3,.18-3.58,0-.83-.27-.8-.45-.06-.52a67.08,67.08,0,0,0,7.59-1.25,3.54,3.54,0,0,1,2.38.08c.65.34.56.7-.51.85s-2,.3-4.14.59c0,.66,0,1.44-.06,2.22a7.07,7.07,0,0,1,3.68-.17Zm-7-4.48a7.43,7.43,0,0,1-1.74-2.54c-.19-.35-.09-.46.79-.15,1.74.56,2.18,1.29,2.08,2.2a.7.7,0,0,1-.69.68.73.73,0,0,1-.41-.15ZM23,55a22.89,22.89,0,0,1-3,1.92c-.59.32-.77.17-.31-.25,2.57-2.47,3.18-3.44,3.22-4.26,0-.59.32-.66,1.76.15,1,.52,1,.8.22,1.17A13.46,13.46,0,0,0,23.05,55Z" transform="translate(-0.1 0.01)"/><path class="cls-1" d="M12.4,89.82A31.91,31.91,0,0,1,12,93.71c-.22,1-.85,2-1.16,2s-.49-.32-.8-1.39c-.18-.64-.42-.67-1.19-.5a10.54,10.54,0,0,1-2.69.25c-.16,1.07-.37,1.37-.55,1.37-.37,0-.83-.59-.77-1.69.19-3.5-.21-6.44-1-7.32-.43-.54-.28-.66.48-.59.25,0,.5.07.74.12a3.1,3.1,0,0,0,.61-.09c2-2.6,3-4.63,2.79-5C8,80,8.16,79.72,10,80.11c1.62.37,1.59.69.83,1.25a32.13,32.13,0,0,0-4.16,4.33,19.58,19.58,0,0,0,3.09-.83c.64-.25.92-.27,2.08.12,1.43.52,1.62.83,1,1.57A11,11,0,0,0,12.4,89.82ZM8.69,85.9c-1.67.3-2.38.39-3,.44a27.18,27.18,0,0,1,.34,3c.58-.12.89-.22,1.25-.32a4.78,4.78,0,0,1,1.5-.22c.77,0,1,.59.27.79a9.68,9.68,0,0,1-3,.37,32.89,32.89,0,0,1,0,3.44c2-.46,3.06-.58,3.61-.27s.67.23.85-1.51a29.25,29.25,0,0,0,.1-5c0-.73-.36-1-2-.66Zm16.37,4.26a29.28,29.28,0,0,1-.67,4.57,5.31,5.31,0,0,1-2.87,3.75c-.68.32-1.08.27-1.29-.32a7.52,7.52,0,0,0-1.62-2.32c-.8-.71-.65-1,.76-.37,1.9.76,2.78.2,3.34-1.88a21.81,21.81,0,0,0,.91-6.32c-.06-1.59-.31-1.9-1.34-1.83-1.19.1-1.9.19-2.88.34a3.22,3.22,0,0,1-2.23-.41,17.21,17.21,0,0,1-3.36,2.71c-.59.32-.84.15-.31-.32a25.85,25.85,0,0,0,4.5-5.5c.94-1.74,1.13-2.43,1-2.72-.26-1-.17-1.08,1.35-.76,1.74.37,2,.71,1.2,1.27a13.53,13.53,0,0,0-2,2.48,19.28,19.28,0,0,1-2,2.44,4.48,4.48,0,0,0,2.3,0,10.83,10.83,0,0,0,2.57-.62c1-.48,1.22-.48,2.63.13,1.59.69,1.68,1,.83,1.86C25.37,86.81,25.15,87.79,25.06,90.16Zm-7.31.76a24.22,24.22,0,0,1-1.65-2.13c-.39-.56-.24-.71.8-.49,1.59.34,2.2.91,2.32,1.67C19.4,91.22,18.46,91.72,17.75,90.92Z" transform="translate(-0.1 0.01)"/><path class="cls-1" d="M22.68,113.86A84.33,84.33,0,0,1,15,107.43c-.16.19-.37.45-.64.82-3,4.11-7.62,7.81-12.11,9.09-.71.19-.77-.18-.22-.45,3.88-1.71,8.13-5.6,10.4-8.56,1.16-1.49,1.41-2.27,1.28-2.74-.18-.77.19-.91,1.59-.25,1.13.54,1.23.74.19,1.52,6,4.4,9.69,6.09,13.79,6.82,1,.2,1.2.57.15.67C24.3,114.84,23.78,114.69,22.68,113.86Zm-4.1,2.74c-.74,2-.89,2.25-1.2,2.57-.51.56-.73.46-1,.15s-.43-.17-4.53.63c0,1.64-.09,3.7-.12,4.31,1.25-.42,2.64-.88,3.58-1.27s.89,0,.19.37a20.42,20.42,0,0,0-3.86,2.86c-.79.9-1.35.83-1.89,0-.46-.67-.46-.82,0-1.25s.58-.69.82-3a36.42,36.42,0,0,0,.12-4.43,5.48,5.48,0,0,0-.58-2.76c-.36-.57-.3-.86,1.29-.52a18.94,18.94,0,0,0,5.07-.78c1-.39,1.17-.39,1.63-.27a7.12,7.12,0,0,1,1.4.51c.65.34.89.61.25,1C19.28,114.91,19,115.36,18.58,116.6Zm-2.52-2.35c-.48,0-1.49.25-3,.49a7.84,7.84,0,0,1-1.19.08v2a26.3,26.3,0,0,1,3.27-.66c1-.07,1.16.41.37.63a8.65,8.65,0,0,1-3.64.42v2.16a28.2,28.2,0,0,1,3.76-.67c.79.08.79.08.89-.22a9.92,9.92,0,0,0,.55-1.78,12.92,12.92,0,0,0,.3-1.74C17.36,114.28,17.2,114.13,16.06,114.25Zm5.52,10.43A50.53,50.53,0,0,0,14,121.44c-1.31-.41-1.31-.77,0-.56.61.09,1.84.37,2.51.54a11.73,11.73,0,0,0,3.36-2.62c.34-.71.47-.71,1.6-.22s.85.79-.1,1.12c-.21.08-2.53,1-4.28,1.82,4.68,1,5.87,1.66,6.33,2.39,1,1.62-.21,1.69-1.76.77Zm-6.28-12.1a5.87,5.87,0,0,1-1.65-1.49c-.4-.47-.24-.65.43-.55,1.75.26,2.29.6,2.35,1.39s-.4,1.1-1.13.65Z" transform="translate(-0.1 0.01)"/><path class="cls-1" d="M12,139.56a24.71,24.71,0,0,0-2.47.32c-.1,2.39-.07,7-.07,8.14a8.88,8.88,0,0,1-.34,3.36c-.46,1.12-1,1.22-1.59-.15-.34-.62-.34-.81.25-2.18.25-.68.61-2.87.68-7.54a15.75,15.75,0,0,1-6.86,7c-.88.43-1,.17-.4-.29a30.86,30.86,0,0,0,6.67-8c-3,.67-4.28.79-5.11.57-1.32-.35-1.25-.49,0-.64.83-.12,3.46-.58,5.7-1,0-3.67-.31-4.8-.71-5.26-1-1.06-.71-1.44,1.16-.89,1.53.45,1.59.52,1.16,1.55a20.59,20.59,0,0,0-.51,4.35c2.07-.45,2.66-.48,3.33-.33C14.66,138.82,14.66,139.29,12,139.56Zm-.37,4.52A6.31,6.31,0,0,1,10,142.77c-.62-.72-.5-.79,0-.72,1.73.2,2.29.59,2.44.93.4,1.08-.28,1.33-.75,1.1Zm14.48-4.57c-1.39.22-2.52.39-3.56.53.1,2.77.44,8.81.53,9.7a4.86,4.86,0,0,1-1.35,3.47.84.84,0,0,1-1.17.18.88.88,0,0,1-.26-.32,7.87,7.87,0,0,0-2.06-2.28c-.64-.49-.58-.76.43-.42,1.56.51,2.35.49,2.45-.14a90.24,90.24,0,0,0,.24-9.3,17,17,0,0,1-9.21,7.14c-.82.27-1.09.08-.18-.42a27,27,0,0,0,8.17-7.27c-4.34.69-4.8.6-5.75.42-1.14-.19-1.08-.56.21-.66,1-.08,4.34-.58,6.73-1,0-3.33-.37-5.11-.92-5.82-.7-.88-.42-1.23,1.32-.68,1.92.55,1.89.82,1.32,1.7a16.14,16.14,0,0,0-.5,4.48c2.85-.66,3.89-.71,4.84-.31S28.27,139.2,26.11,139.51Z" transform="translate(-0.1 0.01)"/><path class="cls-1" d="M13.67,172.38a3.28,3.28,0,0,0,2-2.33,1.15,1.15,0,0,1-.37,0,1.82,1.82,0,0,1-2-1.63h0a1.91,1.91,0,0,1,2-1.67,2.08,2.08,0,0,1,2.28,1.87.49.49,0,0,1,0,.12,4.83,4.83,0,0,1-3.42,4.16Z" transform="translate(-0.1 0.01)"/><path class="cls-1" d="M17.41,192.17c2.76-.49,3.46-.54,4.2-.29,1,.34,1,.71-.06.83-2.67.34-5.15.61-7.71.86a33.53,33.53,0,0,1-6.09.32,19.18,19.18,0,0,1-.82,4c-1.23,4.21-2.58,6.49-5.7,8.49-.58.34-.79.1-.36-.31a15.47,15.47,0,0,0,4.34-7.44c.79-2.6.82-4.31.39-5-.3-.54-.08-.87,1.84-.29A65.39,65.39,0,0,0,17.41,192.17Zm-1.13,4.63c.43.2.43.47-.4.59l-1.73.24c.38.24.38.46.24.91a19,19,0,0,0-.18,3.84c1.73-.47,2.5-.52,2.56-.42s-.37.56-2.56,1.28a13.43,13.43,0,0,1-.37,3.84c-.31.9-.77,1-1,.44-.52-1-.52-1.49-.25-1.89a4.34,4.34,0,0,0,.49-2.06,36.87,36.87,0,0,0-5.78,2,1.56,1.56,0,0,1-1.8-.07c-1.11-.61-1.08-.9-.37-.93A13.16,13.16,0,0,0,8.48,204a37.4,37.4,0,0,0,.14-5.7c-1.56-.1-1.56-.52-.39-.59a42.52,42.52,0,0,0,4.31-.58c.34-1.35.25-1.57-.15-1.47-2.33.46-2.6.46-3.31.22s-.76-.51-.24-.56c2.48-.2,3.33-.4,4-.74a1.54,1.54,0,0,1,1.58,0c1,.46,1,.71.46,1a2.07,2.07,0,0,0-1.13,1.27c1.76-.19,2.15-.22,2.55,0Zm-9.23-5.28a6.74,6.74,0,0,0-1-2.09c-.63-.71-.45-1.05,1.56-.56a22.36,22.36,0,0,0,3.8-.73c.61-.27,1-.35,2.35.19.92.36,1,.66.34,1a8.8,8.8,0,0,0-.71,1.12c-.15.17-.18.3,0,.42.4.32.25.62-.85.66a41,41,0,0,0-4.13.54C8.21,193,7.38,193,7.05,191.52Zm1.22-.13A22.41,22.41,0,0,0,11,191c.61-.13.76-.45,1-1.52.09-.45-.09-.64-.82-.5-1,.2-2,.38-3.22.6C8,190.09,8.15,190.73,8.27,191.39Zm1.53,6.85a9,9,0,0,1,0,1.27,2.47,2.47,0,0,0,.85-.09c.81-.25,1.23-.15,1.41.22a.29.29,0,0,1-.24.42,6.41,6.41,0,0,1-2.05.09l-.06,1.33a2.41,2.41,0,0,0,1-.15c.79-.27,1.13-.2,1.37.19.16.2.16.34-.21.41a5.27,5.27,0,0,1-2.2.08l-.12,1.66c1-.27,2.1-.55,3.51-1v-2.52a7,7,0,0,0-.27-2.36C11.45,198.05,10.5,198.17,9.8,198.24Zm12.54-1.59c1.81-.54,2.5-.49,3.3-.05.58.27.5.57-.64.69s-2.32.29-3.36.48c1.19.6,1.28.79,1,1.18-.1.12-.4.86-.71,1.56a15,15,0,0,1-1,1.74c1.72,1.47,3.4,2.46,7.56,3.41.79.17.73.56.09.58-4.77.27-5.17.27-5.81-.41l-2.57-2.64a9.19,9.19,0,0,1-5.14,2.34c-.67.13-.7-.17-.12-.39a10.18,10.18,0,0,0,4.43-2.89l-2.57-3a6.58,6.58,0,0,1-1.19.91c-.43.29-.73.13-.37-.27,3.37-3.77,3.79-5.75,3.58-6.31-.08-.27.25-.54,1.17-.13,1.25.6,1.34.89.79,1.3A6.21,6.21,0,0,0,19.71,196c-.46.59-.83,1.09-1.16,1.52A26,26,0,0,0,22.34,196.65Zm-6-6a6.32,6.32,0,0,0-.85-2.22c-.52-.54-.28-1,1.47-.49a16,16,0,0,0,4.07-.62c.64-.24,1-.24,2.35.32,1.08.47,1.08.82.49,1.15a3.67,3.67,0,0,0-1.13,1.09c-.15.14-.22.31,0,.41.54.32.43.66-.62.69a37.27,37.27,0,0,0-4.59.32c-.19.78-.83.64-1.2-.69Zm1.19-.14a14.3,14.3,0,0,0,3.13-.35c.24,0,.33-.23.61-1s.16-1-.49-.9-1.93.22-3.46.41c.05.47.14,1,.2,1.79Zm.59,7.46a5.36,5.36,0,0,1-.71.72c.82.94,1.67,1.83,2.58,2.69A6.58,6.58,0,0,0,20.7,198a4.8,4.8,0,0,1-2.55-.07Z" transform="translate(-0.1 0.01)"/><path class="cls-1" d="M10.69,219.65a71.14,71.14,0,0,0-7.09,1.42c-.92.22-1.25.17-2.6-.68-.68-.42-.49-.57.39-.52a30.33,30.33,0,0,0,7-.78,5.81,5.81,0,0,1,3.15-.1C12.28,219.18,12.28,219.43,10.69,219.65ZM6.14,232.79c-.16.69-.73.74-1.07-.56-.86-3-1.16-3.63-1.84-4.16-.4-.32-.19-.64.62-.54A4.36,4.36,0,0,1,5,227.9a12.4,12.4,0,0,0,4-1c.37-.19.83-.21,1.9.27s1,.64.58,1a1.89,1.89,0,0,0-.73,1.17c-.16.49-.13.68.21.9s.4.62-.15.72c-1.47.27-3,.53-4.65.85a5,5,0,0,1,0,.95Zm4-7.56c-2.66.73-3.82.78-5.13.56-.83-.17-.77-.39.12-.46a11.61,11.61,0,0,0,3.27-.81,3.74,3.74,0,0,1,2.14-.25c.94.2.91.59-.41.93Zm.28-2.75c-2.69.72-3.85.77-5.2.52-.8-.15-.74-.37.16-.44a12.58,12.58,0,0,0,3.2-.78,3.32,3.32,0,0,1,2.21-.27c1,.19.78.61-.38.94Zm-4.32,8.63c2.6-.74,3.06-.94,3.16-1.31a3.51,3.51,0,0,0,.09-1.37c0-.31-.28-.41-.88-.31-1.66.29-2.33.41-2.91.53.13.64.32,1.54.53,2.43Zm3-13.56a9.94,9.94,0,0,1-2.47-2.24c-.43-.5-.22-.68.63-.48,2.37.41,3,.68,3.06,2a.8.8,0,0,1-.74.85.81.81,0,0,1-.5-.14Zm6.06,8c-.09.44-.31.54-.56.44a1.62,1.62,0,0,1-.63-.73,9.78,9.78,0,0,0-1.1-2.25c-.49-.63-.09-1,1.64-.37,1.27-.13,2.46-.22,3.52-.36a3.91,3.91,0,0,0-.24-1.52h-.61c-.21.36-.34.33-.49.19a2.18,2.18,0,0,1-.46-1.4,6.7,6.7,0,0,0-.1-.9c-2.07.37-2.25.37-3.26-.12-.68-.3-.65-.42.06-.45.91,0,1.89-.11,3.08-.21a3.5,3.5,0,0,0-1.28-2.67c-.51-.34-.25-.66.34-.61a10.36,10.36,0,0,1,1.74.37c.31.09.43.26.37,1.05a12.65,12.65,0,0,0,.06,1.74c1-.12,1.63-.2,3.39-.45.43-1.93.37-2.76.1-3.1-.55-.66-.1-1,.8-.62,1.62.69,1.79.94,1.5,1.33a6.22,6.22,0,0,0-1,2.17c3.43-.51,4-.51,4.84-.14,1.19.49,1.09,1-.56,1s-3.08,0-4.61.11c-.09.39-.21.74-.37,1.26.79.63.73,1.07,0,1.12-1,.07-1.77.12-2.53.22,1,.36,1.13.58,1,.85a4.79,4.79,0,0,0-.21.57,20.38,20.38,0,0,0,2.81-.49,2.07,2.07,0,0,1,2.12.15c1.34.61,1.34.77.82,1.09a3.13,3.13,0,0,0-1.1,1.13c.7.47.7.81-.49.88s-2.79.18-4.35.3v1.46c.71-.1,1.47-.22,2.21-.35a5.5,5.5,0,0,1,2.14,0c.55.1.58.61-.89.8-1.07.15-2.05.28-3.49.37V229c.46-.1.89-.17,1.38-.25a4.44,4.44,0,0,1,2,0c.46.18.46.57-.28.72a30.14,30.14,0,0,1-3.15.41v1.71c1.81-.14,3.28-.27,3.8-.33,2.44-.35,3.11-.17,4.25.51.88.49.76,1.05-1,.86a32.65,32.65,0,0,0-6.63-.22,55.84,55.84,0,0,0-6.46.5,3,3,0,0,1-2.5-.31c-.71-.39-.59-.66.06-.61s3.55-.05,7.06-.3V230a8.31,8.31,0,0,1-3-.15c-.79-.26-.79-.43-.06-.45s1.83-.08,3-.23V227.6c-2.25.18-2.72.13-3.51-.1s-.68-.54.06-.54a28.93,28.93,0,0,0,3.45-.16v-1.57ZM18,222.88c-1.23.12-2.42.25-3.34.37.09.54.25,1.17.34,1.61l3-.27Zm-.76-4.33c0,.44.06,1,.11,1.56,2.11-.14,2.7-.34,2.82-.77s.18-.82.24-1.14c-1.07.06-2.13.16-3.19.32Zm2.13,5.9c2.91-.25,3.12-.33,3.31-.73.55-1.19.37-1.32-.59-1.26-.36,0-1.4.15-2.63.27-.05.37-.08.9-.11,1.69Z" transform="translate(-0.1 0.01)"/><path class="cls-1" d="M12.4,251.28a31.91,31.91,0,0,1-.43,3.89c-.22,1-.85,2-1.16,2s-.49-.32-.8-1.39c-.18-.64-.42-.67-1.19-.5a10.11,10.11,0,0,1-2.69.25c-.16,1.07-.37,1.37-.55,1.37-.37,0-.83-.59-.77-1.69.19-3.49-.21-6.43-1-7.32-.43-.53-.28-.65.48-.58a4.57,4.57,0,0,1,.74.12,1.44,1.44,0,0,0,.61-.09c2-2.61,3-4.63,2.79-5-.43-.93-.28-1.17,1.58-.79,1.62.37,1.59.69.83,1.26a32.13,32.13,0,0,0-4.16,4.33,20.76,20.76,0,0,0,3.09-.84c.64-.25.92-.27,2.08.12,1.43.52,1.62.84,1,1.57A11,11,0,0,0,12.4,251.28Zm-3.7-3.91c-1.67.29-2.38.38-3,.43a27.18,27.18,0,0,1,.34,3c.58-.12.89-.22,1.25-.32a4.77,4.77,0,0,1,1.5-.21c.77.05,1,.58.27.78a9.38,9.38,0,0,1-3,.37,32.89,32.89,0,0,1,0,3.44c2-.45,3.06-.58,3.61-.26s.67.21.85-1.51a29.38,29.38,0,0,0,.1-5C10.69,247.3,10.29,247.07,8.7,247.37Zm16.37,4.26a29.45,29.45,0,0,1-.67,4.57,5.32,5.32,0,0,1-2.87,3.74c-.68.32-1.08.27-1.29-.32a7.52,7.52,0,0,0-1.62-2.32c-.8-.71-.65-1,.76-.37,1.9.77,2.78.2,3.34-1.88a21.74,21.74,0,0,0,.91-6.31c-.06-1.59-.31-1.91-1.34-1.84-1.19.1-1.9.2-2.88.35a3.28,3.28,0,0,1-2.23-.42,16.85,16.85,0,0,1-3.36,2.71c-.59.32-.84.15-.31-.32a25.85,25.85,0,0,0,4.5-5.5C19,242,19.14,241.3,19,241c-.26-1-.17-1.07,1.35-.76,1.74.37,2,.72,1.2,1.28a13.14,13.14,0,0,0-2,2.47,17.24,17.24,0,0,1-2,2.44,4.48,4.48,0,0,0,2.3,0,10.81,10.81,0,0,0,2.57-.61c1-.49,1.22-.49,2.63.13,1.59.68,1.68,1,.83,1.85-.53.47-.75,1.45-.84,3.83Zm-7.31.75a22.69,22.69,0,0,1-1.65-2.12c-.39-.57-.24-.72.8-.5,1.59.35,2.2.91,2.32,1.67.17,1.25-.77,1.76-1.48,1Z" transform="translate(-0.1 0.01)"/><path class="cls-1" d="M16.74,279.25a6.24,6.24,0,0,1,2.36,0c.64.12.8.63-.92.9-.74.1-2.78.35-5,.54,1.38.76,2.55,1.37,3.52,1.89,2-1,2.72-1.67,2.91-2.14.06-.24.28-.29,1.53.18s1.31.56.73.68a14,14,0,0,0-1.8.59,22.17,22.17,0,0,1-2.7,1.05c3.68,1.79,5.61,2.08,10.2,2.7.73.09.73.46,0,.58-5.41.74-5.78.71-7.25-.17-2.69-1.67-5-3.09-7.58-4.82-.34.24-.71.49-1.29.93.58.27.68.47.46.83a4.76,4.76,0,0,0-.31,2.3l2.7-1.12c1.13-.44,1.41-.17.15.65a21.82,21.82,0,0,0-3.36,2.62c-.56.54-.92.52-1.81-.25-.49-.4-.43-.67.19-1.07s.88-1.1.85-3.26a20.45,20.45,0,0,1-8.19,3.24c-.74.14-.81-.2-.28-.35a31.61,31.61,0,0,0,7.4-3.52,12.26,12.26,0,0,0,1.72-1.32c-1.13.1-2.18.22-2.82.3A5.3,5.3,0,0,1,6,281.06c-.82-.22-.82-.54.25-.59s4.22-.32,7.8-.8a10.58,10.58,0,0,1-1.34-1.42c-.22-.27.06-.54.48-.42,1.93.47,2.08.88,1.62,1.74ZM5.21,273.18c-.68.27-.77.12-.3-.3a7.17,7.17,0,0,0,1.31-1.59,3.1,3.1,0,0,0,.43-1.39c0-.44.22-.51.79-.3,1.19.47,1.25.62,1,.89-.07.07-.31.37-.62.68a25.35,25.35,0,0,0,2.6-.51,3.58,3.58,0,0,0-.52-2.28c-.61-.56-.36-1.05.49-.83,1.71.49,2,.75,1.68,1.1a4.38,4.38,0,0,0-.37,1.71c1.84-.46,2.72-.51,3.15-.27s.37.42-.27.59a27.78,27.78,0,0,1-3,.66,7.4,7.4,0,0,1-.06,1.11c.52-.07,1.17-.2,1.56-.27,1.93-.37,2.52-.35,2.9-.08s.25.46-1,.63c-1,.13-2.2.3-3.46.5v1.12c.58-.12,1.11-.25,1.4-.34a2.54,2.54,0,0,1,1.78.07c.83.25.89.39.74.64a1.86,1.86,0,0,0-.28,1,2.93,2.93,0,0,1-.52,1.81c-.36.47-.61.42-1,0a4.73,4.73,0,0,0-1.28-1c-.37-.15-.34-.25.12-.2.89.1,1.13-.05,1.19-.3a3,3,0,0,0,.07-1c0-.25-.25-.35-1-.3a7.6,7.6,0,0,0-1.26.2v2a4.88,4.88,0,0,1-.15,1.62c-.4.79-.71.81-1.07.17a1.49,1.49,0,0,1-.1-1.71,7.74,7.74,0,0,0,.16-1.73c-.7.13-1.66.28-2.23.36A10.94,10.94,0,0,1,7.86,278c-.18.85-.49.9-.94.58a.82.82,0,0,1-.37-1,3.78,3.78,0,0,0,.06-2.16c-.37-.68-.15-.88,1.22-.46.79-.1,1.72-.27,2.57-.42v-1.2c-1.84.35-4.28.81-5.53,1.08s-1.5.22-2.24-.25-.58-.53.15-.53a75.69,75.69,0,0,0,7.65-1.08v-1.15a10.48,10.48,0,0,1-3.06.15,6.57,6.57,0,0,1-2.16,1.61Zm13.7.49c.06,1.17,0,1.64-.27,1.9a.53.53,0,0,1-.86,0,1.49,1.49,0,0,1-.28-1.32,6.27,6.27,0,0,0-.39-3.4c-.31-.44,0-.74.89-.42,1.19.4,1.25.59,1.1,1a9.25,9.25,0,0,0-.19,2.29Zm4.71-5.54c.28.13.31.27,0,.86a7.67,7.67,0,0,0-.34,2.52,44.24,44.24,0,0,0,0,5.15,2.62,2.62,0,0,1-.85,2.22c-.34.29-.61.27-1-.22a8.71,8.71,0,0,0-2.06-1.5c-.49-.31-.3-.6.62-.4,1.31.31,1.56.13,1.68-.33a38.63,38.63,0,0,0,.09-6.63,2.91,2.91,0,0,0-.61-1.69c-.52-.58-.28-.83.61-.66a6.13,6.13,0,0,1,1.83.72Z" transform="translate(-0.1 0.01)"/><path class="cls-1" d="M9.59,298.06c-.71,1-1.44,1.84-2.15,2.67a2.23,2.23,0,0,1,1.28,2.48c-.06,1.32-.09,3.06-.15,7.14a8.64,8.64,0,0,1-.42,2.57c-.22.42-.65.39-1-.08a3,3,0,0,1-.42-2.91c.28-.52.49-2.11.58-4.87A9.69,9.69,0,0,0,7,301.2a20.41,20.41,0,0,1-6.34,4.72c-.55.27-.77,0-.24-.42a25.15,25.15,0,0,0,6.12-6.27c1.43-2,2-3.23,1.77-4s.27-1.05,1.59-.19,1.35,1.17,1,1.51A7.82,7.82,0,0,0,9.59,298.06Zm16.27,1.72-6.61.9c-.7.1-1.25.15-1.75.2,1.23.59,1.27,1,1.17,1.56a10.48,10.48,0,0,0-.12,1.94,31.92,31.92,0,0,0,4-.86,3.63,3.63,0,0,1,1.9.19c.7.32.61.62-.15.72-1,.12-2.15.32-3.43.51a8.78,8.78,0,0,1-2.29,0c0,.87,0,2,.09,3.46a26.82,26.82,0,0,0,4.25-.83,3.73,3.73,0,0,1,2.26.24c.86.39.71.81-.15.88s-2.69.23-4,.37a6.8,6.8,0,0,1-2.38,0c.16,4.62.13,5.24-.37,6.36-.24.54-.64.57-1-.12a3,3,0,0,1-.37-2.74c.27-.86.48-3.64.37-8.47a6.55,6.55,0,0,0-.68-3.2,4.1,4.1,0,0,1-1.59-.23,15.7,15.7,0,0,1-4.78,4c-.54.29-.76,0-.24-.42a26.11,26.11,0,0,0,5-5.87c1.31-2.18,1.8-3.57,1.68-4.18-.22-.84.12-1.12,1.53-.47s1.68,1.05,1,1.49a7.56,7.56,0,0,0-1.23,1.47,40.75,40.75,0,0,1-2.59,3.55,50.84,50.84,0,0,0,7.34-1.41,5.73,5.73,0,0,1,3.66,0C27.17,299.19,27,299.63,25.86,299.78Z" transform="translate(-0.1 0.01)"/></g></svg>