<svg xmlns="http://www.w3.org/2000/svg" viewBox="0 0 100.66 315.74"><defs><style>.cls-1{fill:#fff;}</style></defs><g id="Layer_2" data-name="Layer 2"><path class="cls-1" d="M886.74,389.06c-.43-.12-.43-.42,0-.44a19,19,0,0,0,2.86-.42,2.38,2.38,0,0,0-.43-1.63c-.52-.52,0-.79,1.23-.42s1.23.57.92,1a3,3,0,0,0-.24.74,6.92,6.92,0,0,1,2.77-.15c.65.2.68.56.25.69a30.32,30.32,0,0,1-3.14.52c0,.27,0,.56-.07.93,1-.17,1.67-.32,2-.39a2.3,2.3,0,0,1,1.88.07c1.54.57,1.51.89,1,1.28a3.93,3.93,0,0,0-1,1.63A5.68,5.68,0,0,1,894,394a.61.61,0,0,1-.83.09c-.46-.44-.83-.51-2.4-.24,0,.27,0,1.11,0,1.53,1-.13,1.54-.2,2.92-.45,1.11-.22,2-.17,2.34.2.25.2.1.47-.24.49-1.88.2-3.54.4-5,.57,0,.49,0,1,.06,1.67.06,2.25-.06,2.57-.21,2.74s-.53.27-.87-.05a1.56,1.56,0,0,1-.52-1.82,17.09,17.09,0,0,0,.25-2.37c-1.36.22-2.47.42-3.27.62-1.88.49-2.25.54-3.35-.13-.74-.44-.59-.66.21-.66a62.21,62.21,0,0,0,6.44-.64c0-.42,0-.91.06-1.46a16.21,16.21,0,0,1-2.06.23.51.51,0,0,1-.44.44c-.33,0-.86-.72-1-1.23a7.66,7.66,0,0,0-1.33-2.81c-.34-.37,0-.62,1.57-.3.5,0,1.64-.14,3.33-.39v-.94A7.15,7.15,0,0,1,886.74,389.06Zm1,3.33c-.37-.13-.52-.33,0-.4s1.29-.17,1.88-.29c0-.38,0-.69,0-1-.31.05-2.09.27-3,.37.1.54.25,1.16.68,2.66.74-.15,1.54-.27,2.22-.39,0-.3,0-.6,0-.92A4.22,4.22,0,0,1,887.79,392.39ZM894,380.71c-.55-.67-.24-.94.46-.74,2.22.61,2.35.79,2.07,1.35a8.19,8.19,0,0,0-.49,2.54l5.08-.44a3.45,3.45,0,0,0,.31-1.78c-.31-.71.12-.91,1.32-.29,1.45.74,1.39,1,.89,1.28s-.74.61-1.6,1.92c-.31.52-1.17.91-1.32.81s-.46-.44-.19-.78a3.16,3.16,0,0,0,.28-.45c-5.88.49-10.32,1-11.55,1.55-.95.4-1.11.35-1.48-.07-.55-.62-.52-.76-.06-1,.8-.37,1-1.33.28-2.24-.25-.32,0-.47.4-.42a3.13,3.13,0,0,1,1.57.62c.22.2.15.66-.16,1.65,1.58-.05,3.21-.15,4.72-.25C894.63,382,894.47,381.22,894,380.71ZM892.5,391.5c.4.05.56.44.1.54s-1.08.2-1.73.3a4.2,4.2,0,0,1-.06.86c.43-.08.74-.1.92-.12,1,0,1.51-.1,1.61-.33a7.25,7.25,0,0,0,.55-2c.06-.34-.55-.56-1-.51s-1.26.14-2,.24v1A4.3,4.3,0,0,1,892.5,391.5Zm12.63-1.6a4.57,4.57,0,0,1,3.2.1c.68.24.65.64-.12.71-1.2.12-1.94.2-4,.37.37.3.43.64.15,1.16a17.41,17.41,0,0,0-.12,4.43,13.65,13.65,0,0,1-.46,3.82c-.25.72-.77.72-1-.1a18.8,18.8,0,0,1-.15-3.52,37.25,37.25,0,0,0-.19-5.62,23.31,23.31,0,0,1-3,.13,9.74,9.74,0,0,1-5,8.12c-.7.4-1,.15-.3-.46a10.45,10.45,0,0,0,3.63-7.89c0-1.75-.15-2.39-.55-2.93s-.19-.79,1.94-.27c2.06-1,3-1.72,3-2.05.06-.56.4-.64,1.84-.07,1.21.45,1.14.94.5,1.06a34.9,34.9,0,0,0-5.15,1.63v2.19A38.31,38.31,0,0,0,905.13,389.9Z" transform="translate(-809.62 -379.21)"/><path class="cls-1" d="M895.31,417.14c-1.64.19-3.11.42-4.47.59.71.39.93.69.89,1s0,.52-.06.92l1.88-.3c1.26-.25,1.51-.22,1.94.05s.19.62-.46.66c-1,0-2,.15-3.39.35,0,.52,0,1.08-.06,1.62,2-.17,3.54.4,3.36,1.26s-.65.77-1.2.44c-.9-.56-1.42-.93-2.16-1.45,0,.74,0,1.43,0,1.82a4.43,4.43,0,0,1-1,3.31c-.33.32-.7.27-1-.2a11.1,11.1,0,0,0-1.54-1.73c-.43-.34-.28-.49.27-.37,1.48.35,1.73.25,1.85-.59a20,20,0,0,0,.19-3.94c-1.11.17-2.4.42-3.94.72a3.12,3.12,0,0,1-1.82-.15c-.77-.35-.8-.52.09-.62,1.45-.15,3.73-.42,5.61-.69a4,4,0,0,0-.44-1.94c-2.58.41-4.4.74-5.23,1a2.47,2.47,0,0,1-2.53-.3c-.64-.49-.52-.74.07-.71a71.4,71.4,0,0,0,9.05-1,8.66,8.66,0,0,0,1.42-3c.06-.34.21-.44.77-.14,1.07.54,1.17.76.64,1.11a17.91,17.91,0,0,0-1.91,1.87,12.4,12.4,0,0,1,3.61-.32C896.51,416.52,896.29,417,895.31,417.14Zm-8.75,7.26a3.4,3.4,0,0,1-1.32,1.73.58.58,0,0,1-.81-.3,1.72,1.72,0,0,1,.34-1.72,11.33,11.33,0,0,0,1.2-1.87.41.41,0,0,1,.71,0A2.55,2.55,0,0,1,886.56,424.4Zm8.75-11.57-2.53.41a24.78,24.78,0,0,1-5.14.62c-2-.2-2.06-.69-.62-.74a46.34,46.34,0,0,0,4.75-.71c2.8-.57,3.14-.62,3.6-.52C896.42,412.14,896.45,412.63,895.31,412.83Zm-6.5,3.52A3.75,3.75,0,0,1,887.7,415c-.12-.39.15-.51.71-.37,1.35.37,1.6.82,1.48,1.41S889.36,416.74,888.81,416.35Zm3.48-5.13a13.65,13.65,0,0,1-2.1-1.74c-.34-.33-.18-.55.5-.47,2.21.22,2.92.69,2.89,1.55A.82.82,0,0,1,892.29,411.22Zm15.64,6.21a36,36,0,0,0-4.62.32c.93.42,1.08,1,.87,1.41a24.25,24.25,0,0,0-.19,4.19,25,25,0,0,1-.71,7.22c-.34.91-.89.78-1-.18a53.52,53.52,0,0,1,0-6.18c.15-3.4.06-5-.34-6.28a8.32,8.32,0,0,1-2.71-.18c-.68,5.55-2.22,7.54-5.3,9.12-.58.29-.89.1-.4-.32a10.08,10.08,0,0,0,3.48-4.73c1.05-3.89,1.08-6.73.12-7.74-.46-.52-.34-.84,1.45-.59,2.77-1.28,3.79-2.07,4-2.64s.37-.69,1.85,0,1.54,1.19.65,1.28a45.44,45.44,0,0,0-5.73,1.56c.19.56.25,1.23,0,3.54a52,52,0,0,0,6.47-1,5,5,0,0,1,2.52.14C909.32,416.84,909.23,417.43,907.93,417.43Z" transform="translate(-809.62 -379.21)"/><path class="cls-1" d="M893.12,450.11a32.09,32.09,0,0,1-.43,3.92c-.22,1-.86,2-1.17,2s-.49-.32-.8-1.4c-.19-.64-.43-.67-1.2-.49a10.75,10.75,0,0,1-2.71.24c-.16,1.09-.37,1.38-.56,1.38-.37,0-.83-.59-.77-1.7.19-3.52-.21-6.48-1-7.36-.43-.55-.28-.67.49-.6a4.4,4.4,0,0,1,.74.13c.21,0,.4-.05.62-.1,2-2.61,3-4.66,2.8-5-.43-.93-.28-1.18,1.6-.79,1.63.37,1.6.69.83,1.26a32.22,32.22,0,0,0-4.19,4.36,19.4,19.4,0,0,0,3.11-.84c.65-.24.93-.27,2.1.13,1.44.51,1.63.83,1,1.57A11.14,11.14,0,0,0,893.12,450.11Zm-3.73-3.94c-1.69.3-2.4.4-2.95.45a28,28,0,0,1,.34,3c.58-.13.89-.23,1.26-.32a4.54,4.54,0,0,1,1.51-.23c.77.05,1,.6.27.79a9.47,9.47,0,0,1-3,.37,34,34,0,0,1,0,3.48c2-.47,3.08-.6,3.63-.27s.68.22.86-1.53a29.46,29.46,0,0,0,.1-5.08C891.43,446.1,891,445.88,889.39,446.17Zm16.48,4.29a29.31,29.31,0,0,1-.68,4.61,5.33,5.33,0,0,1-2.89,3.77c-.68.32-1.08.27-1.3-.32a7.4,7.4,0,0,0-1.63-2.35c-.8-.71-.65-1,.77-.36,1.91.76,2.8.19,3.36-1.9a21.89,21.89,0,0,0,.92-6.36c-.06-1.6-.31-1.92-1.35-1.85-1.2.1-1.91.2-2.9.35a3.25,3.25,0,0,1-2.25-.42,16.88,16.88,0,0,1-3.38,2.73c-.59.33-.84.15-.31-.31a26.38,26.38,0,0,0,4.53-5.55c1-1.75,1.14-2.44,1-2.73-.27-1-.18-1.09,1.36-.77,1.75.37,2,.72,1.2,1.28a13.77,13.77,0,0,0-2,2.49,18.8,18.8,0,0,1-2,2.47,4.65,4.65,0,0,0,2.31,0,11.31,11.31,0,0,0,2.59-.61c.95-.5,1.23-.5,2.65.12,1.6.69,1.69,1,.83,1.87C906.18,447.08,906,448.07,905.87,450.46Zm-7.36.76a22,22,0,0,1-1.66-2.14c-.4-.57-.25-.72.8-.49,1.6.34,2.22.91,2.34,1.67C900.17,451.52,899.22,452,898.51,451.22Z" transform="translate(-809.62 -379.21)"/><path class="cls-1" d="M901.16,481.8a33.9,33.9,0,0,1-6.38-3.59,8.77,8.77,0,0,1-2.34,2.61,14.49,14.49,0,0,1-7.82,2.16c-1,0-1-.32-.28-.46,4.47-.84,7.58-2,8.9-4.49-1,.08-1.88.13-2.52.2a10.31,10.31,0,0,1-2.87,0c-.74-.32-.61-.54.19-.59,1.29-.08,3.54-.35,5.6-.59a3.78,3.78,0,0,0,.13-2.37c-.19-.47,0-.66.73-.49,1.64.44,1.76.74,1.42,1.28a9.18,9.18,0,0,0-.58,1.35c.95-.14,1.72-.27,2.28-.37a12.34,12.34,0,0,1,4.86-.05c.71.28.31.77-1.6,1-1.23.12-3.23.27-5.48.44,4.83,2.22,6.77,2.81,12.69,3.43,1,.1,1.14.47.09.59C903.1,482.56,902.76,482.56,901.16,481.8Zm-7.67,4a.62.62,0,0,0,.21.84c.41.32.44.49-.7.61-2.5.3-3.88.4-4.87.47,0,.66-.21,1-.46,1s-.71-.67-.8-1.43c-.28-2-.37-2.44-.86-3-.68-.69-.62-1,1-.64a17.6,17.6,0,0,0,4.59-.83c.46-.2.95-.25,2,.24,1.51.72,1.51.94,1.08,1.33A4.58,4.58,0,0,0,893.49,485.82Zm-.19-13c-.12.27-.12.35.1.59s.18.42-.68.62a29.84,29.84,0,0,1-3.57.49c.09.72-.1.89-.4.89s-.65-.32-.93-1.16a7.47,7.47,0,0,0-1.32-2.95c-.56-.74-.59-1,.65-.69a13.9,13.9,0,0,0,4.83-.77c.46-.2.71-.22,1.79.25,1.54.62,1.5.81.8,1.33A3.48,3.48,0,0,0,893.3,472.83Zm-2,11c-.61.09-2.4.27-3.66.34a18.35,18.35,0,0,1,.43,2.81c2.65-.17,3.42-.37,3.67-1.08a7.17,7.17,0,0,0,.3-1.38C892.2,483.85,892,483.72,891.33,483.85Zm0-13c-1.45.24-2.22.34-3,.42a17.87,17.87,0,0,1,.77,2.71c2.28-.35,2.72-.52,2.9-1a8.09,8.09,0,0,0,.31-1.38C892.38,470.86,892.16,470.69,891.3,470.84Zm13.06,15c-.22.27-.25.51.16.84s.24.44-.47.54a41.32,41.32,0,0,1-5.51.47c-.06.69-.28.88-.52.88-.4,0-.77-.69-.84-1.45-.18-2.12-.3-2.54-.73-3.08-.59-.74-.56-1,.77-.69a24,24,0,0,0,4.83-.54c.65-.2,1-.15,2,.29,2,.86,2.1,1.16,1.48,1.55A5.89,5.89,0,0,0,904.36,485.82Zm-.89-13.6c-.34.34-.31.64-.22.74.37.42.25.51-.06.56a33.88,33.88,0,0,1-4.59.4c0,.44-.15.59-.43.59s-.55-.25-.8-1.41a5.83,5.83,0,0,0-.86-2.48c-.53-.67-.5-1,1.14-.59a14,14,0,0,0,4.22-.65,2.88,2.88,0,0,1,2.24.3c1.73.79,1.61,1.11,1.18,1.33A7.79,7.79,0,0,0,903.47,472.22Zm-1.26,11.41c-2.13.22-3.21.31-4,.31a11.63,11.63,0,0,1,.34,3c3.42-.25,3.66-.42,3.94-1a4.79,4.79,0,0,0,.46-1.43C903.1,483.75,902.94,483.55,902.21,483.63Zm-.5-13.31c-.52.07-2.25.25-3.42.32a8.87,8.87,0,0,1,.34,2.69c2.53-.25,2.84-.32,3.24-1a3.82,3.82,0,0,0,.58-1.36C902.61,470.37,902.36,470.22,901.71,470.32Zm2.9,6.23a6.35,6.35,0,0,1-2.4-1.45c-.5-.49-.47-.59.36-.69,1.82-.2,2.53.44,3,1.13S905.65,476.9,904.61,476.55Z" transform="translate(-809.62 -379.21)"/><path class="cls-1" d="M907.81,512.1a85,85,0,0,0-12.87,0c-3.17.25-7.83.71-8.9,1a3.91,3.91,0,0,1-2.9-.15c-1-.47-.89-.64.31-.71,2.56-.15,4.93-.35,7.11-.49.1-3.58.1-6.41,0-9.71a1.89,1.89,0,0,0-.7-1.6c-.43-.45-.47-.84,1.81-.32a36.18,36.18,0,0,0,6.53-1,3,3,0,0,1,2.87.22c1.35.64,1.44.91.95,1.45a3,3,0,0,0-.61,1.65c-.16,1.28-.41,4.76-.74,8.65a42.65,42.65,0,0,0,4.28-.37,6.64,6.64,0,0,1,3.81.39C910,511.58,909.53,512.22,907.81,512.1ZM891,516a12.82,12.82,0,0,1-4.84,2.24c-.92.2-1.08,0-.22-.42a17.22,17.22,0,0,0,3.49-2.24c1.07-.94,1.41-1.33,1.38-1.8s.31-.69,1.66-.2,1.39.82.56,1.19A11.6,11.6,0,0,0,891,516Zm7.2-15.87c-.89,0-2.86.25-6.16.64,0,.69,0,1.51,0,2.29,2.84-.69,3.73-.83,4.35-.78,1.5.09,1.41.51.12.81a13.3,13.3,0,0,1-4.47.39v2.29a15.41,15.41,0,0,1,4-.61c1,.07,1.44.49.12.81a10.21,10.21,0,0,1-4.16.1c0,.84,0,1.72-.06,2.56,3.48-.69,4.47-.84,5-.62s.56.5-.28.69a12.85,12.85,0,0,1-4.8.38c0,.93-.06,1.77-.12,2.58,2.64-.2,5-.34,7.23-.49.22-3.62.4-6.92.37-10C899.46,500.2,899.13,500.08,898.23,500.1Zm4.5,17.94a55.94,55.94,0,0,1-4.44-3.48c-.49-.47-.37-.74.4-.51,4.25,1.18,5.18,1.94,5.42,3.32C904.27,518.28,903.41,518.51,902.73,518Z" transform="translate(-809.62 -379.21)"/><path class="cls-1" d="M894.44,540.62a3.24,3.24,0,0,0,2-2.34,1.54,1.54,0,0,1-.37,0,1.83,1.83,0,0,1-2-1.65,1.92,1.92,0,0,1,2-1.68,2.1,2.1,0,0,1,2.31,2,4.88,4.88,0,0,1-3.45,4.19Z" transform="translate(-809.62 -379.21)"/><path class="cls-1" d="M894.41,564.79c-.86.13-2.28.37-3.26.55,0,.41,0,1-.09,1.57,2.46-.29,3.17-.1,3.57.59.28.47-.16.89-.83.79a10.29,10.29,0,0,1-2.74-1c0,1.78,0,4,0,6.06a7.7,7.7,0,0,1-.47,3.18c-.33.91-.89.81-1.29-.12a2.85,2.85,0,0,1-.12-2.71,32.87,32.87,0,0,0,1-6.68,14.79,14.79,0,0,1-7.85,6c-.59.15-.71-.15-.34-.37,4-2.56,6-4.36,7.58-7-1.94.44-2.93.69-4.81,1.18a2.48,2.48,0,0,1-2.49-.27c-.86-.47-.74-1,.46-.88a72.26,72.26,0,0,0,7.51-1.09,6.61,6.61,0,0,0-.58-3.3c-1.3.34-2.62.64-3.11.71-.68.1-.8-.17-.22-.42,4.53-1.89,5.18-2.36,5.42-3s.56-.59,2.13.08,1.51,1.08.64,1.23c-.43.07-1.94.47-2.27.59a15.79,15.79,0,0,1-1.64.49c1.36.35,1.48.55,1.24,1.24a15,15,0,0,0-.53,2.11c2.56-.61,3.23-.69,3.88-.41C895.58,564.15,895.43,564.65,894.41,564.79Zm14.17,3.65c-1.57,0-3.48.12-4.8.25,0,6.55-.13,8.35-.74,9.8-.37,1-.8,1-1-.12-.15-.91-.12-4.76,0-9.46a39.3,39.3,0,0,0-4.44.74c-1.78.39-2.09.29-2.74,0-.83-.37-1.07-.67.65-.77.74,0,3.17-.39,6.53-.91,0-1.82,0-5.27,0-7,0-2-.22-2.71-.68-3.2-.74-.79,0-1.09,1.39-.57,1.6.57,1.75.76,1.54,1.48a16.6,16.6,0,0,0-.37,2.76c-.06.93-.09,3.77-.09,6.25,1.07-.17,2-.34,2.43-.44a4.46,4.46,0,0,1,3.51.2C910.61,568,910.58,568.39,908.58,568.44Zm-9.3-2a8.69,8.69,0,0,1-2.56-1.14c-.34-.22-.34-.44.31-.52,1.88-.24,2.8.3,3,1C900.14,566.32,899.77,566.49,899.28,566.4Zm0-3.33a12.35,12.35,0,0,1-2.53-1.06c-.27-.15-.18-.47.28-.57,1.73-.39,3,.13,3.17,1.16C900.3,563,899.8,563.19,899.28,563.07Z" transform="translate(-809.62 -379.21)"/><path class="cls-1" d="M901.16,593.24c-2,.29-2.62.27-3.36-.15-.28-.15-.25-.27,0-.27.8,0,2.19-.1,3.48-.22a13.25,13.25,0,0,0,.34-1.53c-2,.37-2.89.35-3.45.1s-.49-.4-.12-.42c1.26-.07,2.43-.17,3.66-.29.25-1.51,0-1.71-.92-1.53a4.49,4.49,0,0,1-2.37,0c-.62-.2-.59-.35,0-.4a14.09,14.09,0,0,0,3-.59c.4-.17.8-.12,1.91.45s1.2.81.7,1.18-.64.61-1.84,5.17a8.47,8.47,0,0,0,1.84-.22,2.45,2.45,0,0,1,2,.07,7.07,7.07,0,0,1,1.47.87c.81.54.68,1-.18,1-1.17.07-1.42.12-3.73,1.06-.49.22-.61.09-.21-.42,1.32-1.58,1.2-1.73.61-1.7-2.83,0-13.3.81-14.66,1a33.32,33.32,0,0,1-3.57.47,8.42,8.42,0,0,1-1.26,2.41.63.63,0,0,1-1,0,1.13,1.13,0,0,1-.06-1.6,3.73,3.73,0,0,0,1.17-2.07c.13-.52.59-.54,1.26.57a21.05,21.05,0,0,0,2.75-.25c-1.39-4.56-1.61-5.1-2.38-5.62-.37-.24-.18-.49.56-.56a3.67,3.67,0,0,1,1.2,0c1.14-.79,1.23-1,1.26-1.33.06-.6.52-.74,1.79,0,.68.36.61.61.15.69a16.24,16.24,0,0,0-2.74,1,9.09,9.09,0,0,0,.34,1.45c1.45-.52,2.31-.57,2.8-.35s.31.4-.15.57a9.84,9.84,0,0,1-2.53.42c.13.44.25.94.4,1.58,1.94-.59,2.56-.62,3.24-.32.24.1.18.37-.4.51a20.42,20.42,0,0,1-2.71.32,11,11,0,0,0,.4,1.51c2.28-.25,5.91-.54,10.84-.92A13.64,13.64,0,0,0,901.16,593.24Zm-4.1,4.8c.59-.51.43-.86-.86-.66-.68.1-2.62.54-3.94.86a2.36,2.36,0,0,1-2-.25c-.62-.34-.56-.54.12-.51a22.82,22.82,0,0,0,6.68-1c.62-.22,1-.22,2.56.52,1,.49.89.89-.13,1.11a11.87,11.87,0,0,0-3.32,1.65,1.22,1.22,0,0,1,.37.52c2.06-.23,4-.42,5.51-.62a4.15,4.15,0,0,1,3,.52c1,.64.74,1.11-2,.86-1.08-.08-4.22,0-6.29.07.43,4,.16,5.2-.92,6.26-.92.89-1.54.94-1.91.42a4.24,4.24,0,0,0-2.28-1.85c-.46-.22-.25-.54.4-.44,2.62.47,3.23.22,3.3-1.6a9.56,9.56,0,0,0-.19-2.69c-2.62.17-5.66.47-7.39.77a4.16,4.16,0,0,1-2.62-.18c-1.35-.51-1.29-.71-.09-.74,2.16,0,6-.32,9.76-.64a2.9,2.9,0,0,0-.67-.86c-.34-.25-.28-.47.52-.37a4.06,4.06,0,0,1,.92.25C895.92,599.08,896.42,598.68,897.06,598Zm-4.43-3c-.37.13-.4,0,0-.27a14.13,14.13,0,0,0,1.9-1.67c-.36-.28-.8-.5-1.13-.72s-.34-.44.18-.32a5.4,5.4,0,0,1,1.39.47,2.1,2.1,0,0,0,.37-.74c.06-.42.34-.52,1-.12.46.27.49.39.25.56a7.31,7.31,0,0,0-.77.74c.83.52,1.08.82,1.17,1.23s-.19.62-.59.28-.8-.65-1.17-.92A5.89,5.89,0,0,1,892.63,595.06Zm.37-3.74c-.4.1-.47,0-.22-.2a18.1,18.1,0,0,0,1.51-1.45c-.46-.28-.95-.57-1.57-1-.43-.24-.34-.41.28-.24a9.13,9.13,0,0,1,1.81.62c.68-.84.84-1.34.65-1.48-.31-.32.06-.5,1.26,0,.59.22.62.52.19.89s-.62.59-1.08,1c1.11.56,1.23.79,1.26,1.33s-.34.69-.71.34-.73-.61-1.26-1A4.78,4.78,0,0,1,893,591.32Z" transform="translate(-809.62 -379.21)"/><path class="cls-1" d="M893.12,627.45a32.31,32.31,0,0,1-.43,3.92c-.22,1-.86,2-1.17,2s-.49-.32-.8-1.4c-.19-.64-.43-.67-1.2-.5a10.33,10.33,0,0,1-2.71.25c-.16,1.09-.37,1.38-.56,1.38-.37,0-.83-.59-.77-1.7.19-3.52-.21-6.48-1-7.37-.43-.54-.28-.66.49-.59a6,6,0,0,1,.74.12,4.63,4.63,0,0,0,.62-.09c2-2.61,3-4.66,2.8-5-.43-.94-.28-1.18,1.6-.79,1.63.37,1.6.69.83,1.26a32.22,32.22,0,0,0-4.19,4.36,20.54,20.54,0,0,0,3.11-.84c.65-.24.93-.27,2.1.13,1.44.51,1.63.83,1,1.57A11.14,11.14,0,0,0,893.12,627.45Zm-3.73-3.94c-1.69.3-2.4.4-2.95.44a28.22,28.22,0,0,1,.34,3c.58-.13.89-.23,1.26-.32a4.54,4.54,0,0,1,1.51-.23c.77.05,1,.59.27.79a9.47,9.47,0,0,1-3,.37,33.76,33.76,0,0,1,0,3.47c2-.46,3.08-.59,3.63-.27s.68.23.86-1.52a29.49,29.49,0,0,0,.1-5.08C891.43,623.44,891,623.22,889.39,623.51Zm16.48,4.29a29.19,29.19,0,0,1-.68,4.6,5.31,5.31,0,0,1-2.89,3.77c-.68.33-1.08.28-1.3-.32a7.47,7.47,0,0,0-1.63-2.34c-.8-.71-.65-1,.77-.37,1.91.77,2.8.2,3.36-1.89a21.89,21.89,0,0,0,.92-6.36c-.06-1.6-.31-1.92-1.35-1.85-1.2.1-1.91.2-2.9.35a3.25,3.25,0,0,1-2.25-.42,16.88,16.88,0,0,1-3.38,2.73c-.59.32-.84.15-.31-.32a26.09,26.09,0,0,0,4.53-5.54c1-1.75,1.14-2.44,1-2.73-.27-1-.18-1.09,1.36-.77,1.75.37,2,.72,1.2,1.28a13.77,13.77,0,0,0-2,2.49,18.17,18.17,0,0,1-2,2.46,4.49,4.49,0,0,0,2.31,0,10.69,10.69,0,0,0,2.59-.62c.95-.49,1.23-.49,2.65.13,1.6.69,1.69,1,.83,1.87C906.18,624.42,906,625.41,905.87,627.8Zm-7.36.76a22,22,0,0,1-1.66-2.14c-.4-.57-.25-.72.8-.49,1.6.34,2.22.91,2.34,1.67C900.17,628.86,899.22,629.37,898.51,628.56Z" transform="translate(-809.62 -379.21)"/><path class="cls-1" d="M903.59,655.31c-.83.29-1,.17-.43-.62.92-1.28.83-1.48,0-1.48s-2.9.15-5,.35c-2,.2-8.53.88-9.39,1a7.32,7.32,0,0,1-2.38.08,6.53,6.53,0,0,1-1.14,2.31c-1,.77-1.2.69-1.6-.12a1.1,1.1,0,0,1,.19-1.33,4,4,0,0,0,1-2.05c0-.71.56-.83,1.76.6,1-.08,3-.27,9.42-.94,4-.4,6.53-.74,7.18-.91,1.45-.42,1.72-.42,3.42.54s1.88,1.45.92,1.58A14.14,14.14,0,0,0,903.59,655.31ZM892.72,649a6.54,6.54,0,0,1-2-.35,8.62,8.62,0,0,1-3.73,3c-.77.32-.86.2-.4-.27,2.71-2.86,3.2-3.94,2.9-4.53s0-.69,1.29-.4,1.32.62,1,1a5.84,5.84,0,0,0-.65.74,6.41,6.41,0,0,0,2.15-.32,3.21,3.21,0,0,1,1.73-.05c.77.22.8.57.12.82A11.1,11.1,0,0,1,892.72,649Zm7.88,13.92c-.89.59-.89.86-.52,1.11.71.49.52.88-.21.91-1,0-2.5.12-5.24.32a22.51,22.51,0,0,1-2.77.12c-.06,1-.43,1.63-.86,1.63-.62,0-1.33-1.36-.93-2.29.68-1.63.93-7.07.28-8.33-.46-.89-.09-1.13,1.42-.42a21.29,21.29,0,0,0,5.08-.74,2.6,2.6,0,0,1,2.46.27c1,.52,1,.84.52,1.09a3.16,3.16,0,0,0-.77.64c-.49.49-.58.88-.46,1,.43.47.34.62-.55.67s-4.28.37-6,.56c0,.67,0,1.34,0,2a30.13,30.13,0,0,0,6.16-.86,3.18,3.18,0,0,1,2.5.42c1.32.64,1.35.93.86,1.25Zm-9-11.41a5,5,0,0,1-1.32-1.08c-.37-.37-.22-.57.58-.5,1.23.1,1.57.28,1.79.92S892.16,651.83,891.58,651.51Zm6.16,10.13c-1.36.15-3.85.37-5.73.52,0,1-.06,1.87-.09,2.48a41.51,41.51,0,0,0,5.33-.56c.58-.15.92-.35,1.29-1.38C898.82,661.88,898.39,661.56,897.74,661.64Zm-1-5.42c-.43,0-3.11.2-4.68.37,0,.59,0,1.38,0,2.17,1.73-.13,4.31-.42,4.56-.52.46-.17.59-.35.83-1.48C897.52,656.42,897.25,656.24,896.72,656.22Zm-1.38-3.67a8.46,8.46,0,0,1-1.51-1c-.34-.27-.19-.57.67-.59,1.39,0,2,.24,2,.93S895.89,652.79,895.34,652.55Zm8.77-4.61a13,13,0,0,1-3.51.34,11,11,0,0,1-2-.27,9.2,9.2,0,0,1-2.86,2.42c-.77.34-.93.24-.44-.3,1.85-2,2.47-3.3,2.31-4s.16-.69.93-.55c1.45.27,1.57.62,1.23.92a4.78,4.78,0,0,0-.83,1,17.05,17.05,0,0,0,3.36-.44,3.76,3.76,0,0,1,2-.08C904.76,647.2,904.85,647.74,904.11,647.94Zm-3.75,3a7,7,0,0,1-1.67-1.11c-.33-.32-.27-.49.59-.47,1.23,0,2,.3,2.31,1S901.28,651.36,900.36,650.92Z" transform="translate(-809.62 -379.21)"/><path class="cls-1" d="M891.77,689.05a62.41,62.41,0,0,0-6.78,3.43c-.49.39-1,.39-1.94-.25s-.86-1.06.12-1.08a20.76,20.76,0,0,0,4.44-1.26v-4.24a8.74,8.74,0,0,1-2.37.1c-1-.15-1.11-.49-.56-.59s2.06-.49,2.93-.74c0-2.59-.16-3.55-.53-4a5.05,5.05,0,0,1-2.34-.17c-.8-.25-.8-.57.19-.67.4-.05,2.92-.66,3.48-.81a4.48,4.48,0,0,1,2.77-.3c1,.2,1.11.64.21,1a27.17,27.17,0,0,1-3.11.77c1.11.34,1.14.61,1,1.45-.06.27-.19,1.41-.28,2.37a7.62,7.62,0,0,1,2.31-.25c.71.12.86.57.06,1a13.14,13.14,0,0,1-2.46.69v4c2.74-1.14,4-1.53,4.25-1.31C893.21,688.21,892.57,688.73,891.77,689.05Zm14.65,4.88a51.89,51.89,0,0,0-7.73,0,53.65,53.65,0,0,0-6.37.91,2.93,2.93,0,0,1-2.4-.47c-.71-.49-.65-.74,1-.69.52,0,2.47-.12,7.21-.62l.06-3a6.5,6.5,0,0,1-3.2-.12c-.56-.17-.47-.44.49-.54.8-.1,1.79-.27,2.71-.42l0-2.88c-.77.1-1.72.19-2.68.29-.06.3-.25.44-.4.44-.43,0-.62-.31-1.08-3.1-.49-3.15-.89-4.26-1.38-4.88-.71-.88-.43-1.16,1.32-.56a70.26,70.26,0,0,0,9.27-1.38c.8-.23,1.14-.18,2.9.81,1.26.64,1.17,1,.61,1.45a4.42,4.42,0,0,0-1.08,2c-.83,3.18-1.1,4.11-1.75,4.8s-.83.55-1,.25-.31-.44-.61-.47a13.28,13.28,0,0,0-2.71.15l-.07,2.86c.74-.15,1.33-.25,1.54-.32a2.94,2.94,0,0,1,2,0c.61.3.64.59-.07.89a31.35,31.35,0,0,1-3.48.56l-.06,3c1.57-.2,3.39-.4,5.48-.64a4.92,4.92,0,0,1,3.48.56C909.38,693.49,909.26,694.52,906.42,693.93ZM896,682.5c-.71-.27-.55-.42.37-.47a15.78,15.78,0,0,0,1.91-.32c0-1.87-.18-2.76-.61-3.13a25.66,25.66,0,0,1-3.12.32,63.76,63.76,0,0,1,1,6.83l2.68-.35.06-2.68A5.06,5.06,0,0,1,896,682.5Zm7.24-4.48c-.52-.1-.89-.08-4.4.39,1.23.49,1.29.74,1.11,1.13a7.72,7.72,0,0,0-.28,1.9,4.15,4.15,0,0,1,2.46-.25c.4.2.46.52-.06.72-.34.1-1.48.34-2.43.57l-.06,2.75a16.66,16.66,0,0,1,2.8-.17c.24.05.43-.12.92-1.92a23.33,23.33,0,0,0,.68-4.14C903.93,678.29,903.84,678.11,903.19,678Z" transform="translate(-809.62 -379.21)"/><path class="cls-1" d="M813.8,389.91a7.59,7.59,0,0,1-1.85-2c-.52-.76-.31-.86.74-.66,1.57.27,2.68.93,2.89,1.65C815.92,390.06,815,390.82,813.8,389.91Zm1.08,8.33c-.28,1.53-.81,1.8-2.07-.54-.58-1.11-.52-1.56.09-1.61s.87-.19,1.39-.88c.83-1.09,2.52-3.23,3.67-4.58.58-.69.95-.52.52.24C816.57,394.3,815,397.33,814.88,398.24Zm2.18-13.8a14.75,14.75,0,0,1-2.06-1.85c-.56-.56-.46-.81.8-.69,1.69.15,2.77.89,2.8,1.48C818.63,384.54,817.89,385,817.06,384.44ZM831.81,388a7.09,7.09,0,0,1-1.41,3.82c-1,.94-1.51.81-1.7.32a7.48,7.48,0,0,0-1.17-1.8c-.37-.39-.27-.54.37-.39,1.39.32,1.66.22,1.85-.52a14.22,14.22,0,0,0,.46-4.26c0-1-.31-1.11-1.57-.84-1,.2-2.68.5-3.82.64a2.51,2.51,0,0,1-1.41-.29,18.8,18.8,0,0,1-4,2.66c-1,.42-1,.15-.37-.4a18.57,18.57,0,0,0,4.62-4.83,6,6,0,0,0,1-2.09c-.28-.84-.13-1.16,1.84-.34,1,.44,1.24.88.44,1.42a22.87,22.87,0,0,0-1.7,1.75,12.64,12.64,0,0,1-1.38,1.46,24.94,24.94,0,0,0,5.51-1,2.31,2.31,0,0,1,2.12.08c1.91.76,2,1.1,1.24,1.7C832.18,385.45,832,386,831.81,388Zm1.05,11.07a30.25,30.25,0,0,1-7.11.24c-3.67-.49-4.38-1.77-4.93-4.24a26,26,0,0,1-.06-4.16,7.6,7.6,0,0,0-.28-2.24c-.46-.89-.12-1.11,1.66-.47a6.82,6.82,0,0,0,2.22-.61,1.9,1.9,0,0,1,2.28-.15c1,.42,1,.54.37,1-1,.91-1.39,2.09-1.14,2.34.49.54.46.74-.12.89a11.2,11.2,0,0,1-3.88.44,21.55,21.55,0,0,0,.12,2.17c.25,2.37,1.2,3.18,4,3.45a29.08,29.08,0,0,0,6.47-.49c2-.42,2.52-.72,3.51-3.9.25-.81.62-.83.68,0a12.53,12.53,0,0,0,.61,3.3C837.67,397.72,836.59,398.61,832.86,399.08Zm-8.72-10.48A12.16,12.16,0,0,1,822,389a2.17,2.17,0,0,1,.12,1.13,10.25,10.25,0,0,0-.21,1.46,8.91,8.91,0,0,0,2.09-.42c.4-.13.59-.45.83-1.87C824.88,388.65,824.58,388.51,824.14,388.6Z" transform="translate(-809.62 -379.21)"/><path class="cls-1" d="M825.65,424.86a6.53,6.53,0,0,1,2.38,0c.64.13.8.64-.93.91-.74.1-2.8.35-5,.55,1.39.76,2.56,1.38,3.54,1.89,2-1,2.75-1.67,2.93-2.14.06-.25.28-.3,1.54.17s1.33.57.74.69a15.72,15.72,0,0,0-1.82.59,21.41,21.41,0,0,1-2.71,1.06c3.7,1.8,5.64,2.1,10.26,2.71.74.1.74.47.06.59-5.45.74-5.82.72-7.3-.17-2.71-1.67-5-3.1-7.64-4.85-.34.25-.71.49-1.29.94.58.27.68.46.46.83a4.69,4.69,0,0,0-.31,2.32c1-.42,1.73-.72,2.71-1.13,1.14-.45,1.42-.18.16.66a21.64,21.64,0,0,0-3.39,2.64c-.55.54-.92.51-1.82-.25-.49-.42-.43-.69.19-1.08s.89-1.11.86-3.28a20.55,20.55,0,0,1-8.25,3.25c-.74.15-.8-.2-.28-.34a32.15,32.15,0,0,0,7.45-3.55,12.89,12.89,0,0,0,1.73-1.33c-1.14.1-2.19.22-2.84.29a5.15,5.15,0,0,1-2.24-.14c-.84-.23-.84-.55.24-.59s4.25-.33,7.86-.82a9.24,9.24,0,0,1-1.36-1.43c-.22-.27.06-.54.49-.42,1.94.47,2.1.89,1.64,1.75ZM814,418.75c-.67.27-.77.13-.3-.29a7.58,7.58,0,0,0,1.32-1.6,3.18,3.18,0,0,0,.43-1.41c0-.44.22-.52.8-.29,1.2.46,1.26.61,1,.88-.06.08-.31.37-.62.69a24,24,0,0,0,2.62-.52,3.68,3.68,0,0,0-.52-2.29c-.62-.56-.37-1.06.49-.83,1.72.49,2,.76,1.69,1.11a4.26,4.26,0,0,0-.37,1.72c1.85-.47,2.74-.52,3.18-.27s.36.42-.28.59c-1.14.3-1.94.49-3,.66,0,.33,0,.72-.06,1.11.52-.07,1.17-.19,1.57-.27,1.94-.37,2.53-.34,2.93-.07s.24.47-1.05.64c-1,.12-2.22.3-3.48.49,0,.4,0,.77,0,1.13.58-.12,1.11-.24,1.42-.34a2.51,2.51,0,0,1,1.78.07c.83.25.9.4.74.65a2,2,0,0,0-.28,1.05,3,3,0,0,1-.52,1.83c-.37.47-.62.42-.95,0a5.35,5.35,0,0,0-1.3-1c-.37-.15-.34-.25.12-.2.9.1,1.14-.05,1.21-.29a3.21,3.21,0,0,0,.06-1c0-.24-.25-.34-1-.29a12.62,12.62,0,0,0-1.26.19v2a4.8,4.8,0,0,1-.16,1.62c-.4.79-.7.82-1.07.17a1.53,1.53,0,0,1-.1-1.72,8.49,8.49,0,0,0,.16-1.75c-.71.15-1.67.3-2.25.37a11,11,0,0,1-.28,2.37c-.18.86-.49.91-1,.59a.85.85,0,0,1-.37-1,3.72,3.72,0,0,0,.06-2.17c-.37-.69-.15-.88,1.23-.47.8-.09,1.73-.27,2.59-.41,0-.37,0-.77,0-1.21-1.85.34-4.31.81-5.57,1.08s-1.51.23-2.25-.24-.59-.54.15-.54a77,77,0,0,0,7.7-1.09v-1.16a10,10,0,0,1-3.08.15A6.34,6.34,0,0,1,814,418.75Zm13.8.5c.06,1.18,0,1.65-.28,1.92s-.58.32-.86,0a1.46,1.46,0,0,1-.28-1.33,6.28,6.28,0,0,0-.4-3.42c-.3-.45,0-.74.9-.42,1.2.39,1.26.59,1.11,1A8.75,8.75,0,0,0,827.84,419.25Zm4.74-5.57c.28.12.31.27,0,.86a7.39,7.39,0,0,0-.33,2.54,38.18,38.18,0,0,0,0,5.17,2.69,2.69,0,0,1-.87,2.24c-.34.3-.61.27-1-.22a8.24,8.24,0,0,0-2.07-1.5c-.49-.32-.3-.62.62-.42,1.32.32,1.57.15,1.69-.32a38.51,38.51,0,0,0,.1-6.68,2.92,2.92,0,0,0-.62-1.7c-.52-.59-.28-.83.62-.66A5.53,5.53,0,0,1,832.58,413.68Z" transform="translate(-809.62 -379.21)"/><path class="cls-1" d="M832.68,452.67c-.87,2.76-1.14,3.08-1.61,3.08s-.8-.69-.61-2c-2.37.29-4.25.59-5.82.84l-.31,6.52c2.22-.24,4.56-.46,6.62-.71a9.45,9.45,0,0,0-.43-1.85c-.22-.42.12-.69.68-.54a8,8,0,0,1,1.85,1.11,1,1,0,0,1,.09,1.11,5.17,5.17,0,0,0-.06,1.7c.09,1.38-.44,2.81-1.05,2.78-.8,0-1-.12-1-3.52-11.12,1.5-12.5,1.85-14.72,2.88-1,.47-1.45.39-1.94-.64-.31-.59-.28-.74.59-1.23a2.71,2.71,0,0,0,.7-3.57c-.34-.47-.21-.69.34-.59a2.78,2.78,0,0,1,1.63.91c.19.32,0,1.57-.7,3.1l6-.76.16-6.46c-4,.62-5.39,1-6.63,1.58-1,.44-1.38.39-1.81-.49s-.34-.89.34-1.41a2.24,2.24,0,0,0,.36-3.47c-.49-.52-.33-.72.41-.64a3,3,0,0,1,1.47.69c.5.39.53,1.43-.09,3.57,1.29-.17,3.48-.49,6-.81.12-5.47-.1-7.49-.81-8.33-.52-.67-.36-1,.68-.79,2.8.57,2.9.86,2.53,1.65s-.53,2.69-.74,7.27c2-.25,4.09-.49,5.91-.69.31-1.87.31-2.37-.21-3-.34-.42.21-.81,1-.52a11.26,11.26,0,0,1,2,1c.43.27.28.71,0,1A3.9,3.9,0,0,0,832.68,452.67Z" transform="translate(-809.62 -379.21)"/><path class="cls-1" d="M821.65,482.54c-.06,1.14-.06,2.37,0,3a13.6,13.6,0,0,1,0,2.49c-.15.83-.92,1-1.17.51a2.33,2.33,0,0,1-.15-.93,29.17,29.17,0,0,0-4.62.86,4.27,4.27,0,0,1-2.62-.2c-.65-.2-.56-.39.28-.44s2.8-.35,4-.54a9.76,9.76,0,0,1,3-.2c0-.57,0-1.18,0-1.8-.65.07-1.18.17-1.88.3a4.32,4.32,0,0,1-2.59,0c-.65-.29-.65-.42,0-.47s1.79-.14,2.43-.27a5.64,5.64,0,0,1,2,0c0-.79-.07-1.53-.1-2a16.82,16.82,0,0,0-2.92.44,4.39,4.39,0,0,1-2.31-.12c-.71-.37-.59-.57,0-.59s1.81-.13,2.37-.2a8.07,8.07,0,0,1,2.77,0,3.4,3.4,0,0,0-.77-1.84c-.77-.79-.12-.92.74-.62,1.73.54,1.85.67,1.73,1.16A9.78,9.78,0,0,0,821.65,482.54Zm9.83,16.17c-.87-.79-1.51-1.48-2.53-2.57a83.65,83.65,0,0,0-11.86,2.15c-.58.2-.8.17-1.72-.42-1.2-.74-.74-1.06-.06-1,1.14.1,1.6,0,7.57-.69v-2.46c-1.2.09-2.37.19-3.29.32.12.74-.68.71-1.05,0a12.89,12.89,0,0,0-2.19-3.08c-.7-.44-.27-1.11,1.36-.47,1.41,0,3.36-.24,5.14-.46a2.15,2.15,0,0,0-.4-1.31c-.37-.44-.15-.69.83-.49,1.48.32,1.54.56,1.33,1a1.93,1.93,0,0,0-.19.62,32.17,32.17,0,0,0,4-.67,1.92,1.92,0,0,1,1.84.2c2.1,1.13,2.13,1.45,1.57,1.73a6.28,6.28,0,0,0-1.84,1.3c-.16.13-.16.27,0,.47s.06.37-.71.37c-.31,0-2.59.17-5,.39l-.13,2.47,4.47-.47c-.19-.22-.37-.3-.59-.54-.55-.62-.21-.67.44-.42,2.77,1.13,4.46,2.59,4.52,3.62S832.34,499.5,831.48,498.71Zm-8.6-8.13c-1.85.22-3.45.42-4.62.49a12.19,12.19,0,0,1,1.14,2.32l3.48-.4Zm5.24-.55c-.46,0-2.31.2-3.76.38l-.12,2.43c3.51-.39,3.72-.46,3.94-.74a3.64,3.64,0,0,0,.86-1.52C829.1,490.11,828.89,490,828.12,490Zm5.51-3.22a19.39,19.39,0,0,1-6.25-.2,4.33,4.33,0,0,1-.31,1.53c-.21.44-.74.49-.92.07a1.73,1.73,0,0,1-.25-1.45,32.39,32.39,0,0,0,.19-5.4,4.62,4.62,0,0,0-.5-2.12c-.71-.78-.27-1.05,1.11-.49,1.54.64,1.63.84,1.36,1.38a2.89,2.89,0,0,0-.34,1,17.14,17.14,0,0,0,3.08-.57,6.39,6.39,0,0,1,2.46-.2c.92.2.83.69-.62.94a13.13,13.13,0,0,1-5,.2c-.07.64-.13,1.52-.16,2.39a12.24,12.24,0,0,0,2.68-.45,4.65,4.65,0,0,1,2-.24c.71.22.5.71-.86.91a10.27,10.27,0,0,1-3.88,0c0,.94-.06,1.75-.09,2.15a25.64,25.64,0,0,0,4.71-.4,5.59,5.59,0,0,1,2.53,0C835.26,486.31,835,486.68,833.63,486.81Z" transform="translate(-809.62 -379.21)"/><path class="cls-1" d="M820.79,516.73a1.83,1.83,0,0,1,1.85.07c1,.44,1.07.67.61,1a4.45,4.45,0,0,0-.92.84c-.13.15-.19.25.06.47s.34.42-.34.49c-1.26.2-3.73.52-6.53.86-.68,1.92-2.18,3.06-4.8,4.27-.74.37-1,0-.34-.37,3-1.83,4.31-4.27,3.76-6.39-.16-.59.09-.78,1.47-.29A34,34,0,0,0,820.79,516.73ZM817.06,522c-.58-.13-.52-.28.06-.3,2.34-.12,6.9-.59,8.38-.84a5.48,5.48,0,0,1,2.74,0c.52.17.52.35-.28.54-.3.08-.92.18-1.87.32,1,.45,1.1.67.86,1.36a20.37,20.37,0,0,0-.22,3.42c1.51-.14,2.22-.24,2.68-.32a4.58,4.58,0,0,1,3.6.52c.71.52.19,1-.8.84a32.49,32.49,0,0,0-5.48-.12,9.91,9.91,0,0,1-.77,4.48c-.24.62-.67.59-.71.1a41.29,41.29,0,0,1-.06-4.51,75.54,75.54,0,0,0-8.93,1,4.25,4.25,0,0,1-3.42-.39c-.43-.2-.4-.37.13-.37.8,0,1.84-.05,6.22-.47,0-4,0-4.5-.37-5A6.4,6.4,0,0,1,817.06,522Zm1.36-7.72-2,.28a6.77,6.77,0,0,1-2.55,0c-.59-.13-.49-.4,0-.42,1-.08,2.8-.32,4.59-.64a3.15,3.15,0,0,0-.74-2.44c-.25-.25,0-.59,1.17-.32,1.42.24,1.57.46,1.32.93a3.5,3.5,0,0,0-.37,1.56l1.51-.3a3.54,3.54,0,0,1,1.67,0c.64.34.58.49-.62.71l-2.65.5-.12,1.06a7,7,0,0,1,2.62-.23c.64.23.52.47-.37.67a30,30,0,0,1-4.25.66,7.35,7.35,0,0,1-2.19-.14c-.4-.13-.37-.27.06-.32,1.08-.15,2-.27,2.86-.42Zm-.46,5.23,0-1.6c-.62.07-1.79.22-2,.27a9.85,9.85,0,0,1-.24,1.57C816.38,519.66,817.15,519.59,818,519.49Zm2.12-.32c.74-.15.89-.37,1.08-1.06.09-.5,0-.57-.68-.52-.37,0-.83.07-1.26.12l-.1,1.6Zm.18,3c.31.24.37.56.28,1.08a5.08,5.08,0,0,0,1.94-.27,1.69,1.69,0,0,1,1.11,0c.55.22.55.46-.15.64a7.21,7.21,0,0,1-3,.17c0,.3,0,.81-.06,1.48,2.15-.45,2.65-.55,3.17-.45s.77.47.12.62a8,8,0,0,1-3.29.22l-.06,1.46c2.09-.2,3.66-.35,4.86-.5.16-2.88,0-4.14-.31-4.83C822.79,522,821.34,522.15,820.26,522.2Zm15.83-1.85c.93.07,1,.49.13.61-4.13.57-4.5.52-5.24.08-1-.64-1.88-1.16-3-1.82a15.52,15.52,0,0,1-5,1.52c-.8.15-.83-.17,0-.39a16.48,16.48,0,0,0,4-1.73,8.75,8.75,0,0,0-2.62-1.25c-.4-.13-.34-.4.19-.4a6.49,6.49,0,0,1,3.2,1.09,7.58,7.58,0,0,0,1.17-1.18c.25-.4.22-.52-.22-.45-2.12.37-2.43.32-2.92.15s-.43-.32.15-.37a10.52,10.52,0,0,0,3-.52,1.72,1.72,0,0,1,1.39.08c1.2.37,1.32.69.77,1a3.08,3.08,0,0,0-.87.64,6.72,6.72,0,0,1-1.41,1.25A20.07,20.07,0,0,0,836.09,520.35Zm-12.56-3.7c-.59.18-.74,0-.16-.34a3,3,0,0,0,1.45-3.94c-.21-.37.06-.62,1.33-.15a5.29,5.29,0,0,0,2.06-.62,1.36,1.36,0,0,1,1.32-.34c1.57.49,1.61.76,1.05,1a1.46,1.46,0,0,0-.92,1.58c.06.41.61.61,1.88.39a3.11,3.11,0,0,1,1.87,0c.8.25.74.57.13.71a9.87,9.87,0,0,1-3.94.2c-1.27-.27-1.51-1.06-1.14-2.36.12-.3,0-.35-.31-.27a16,16,0,0,1-1.66.27C826.61,514.73,825.81,516,823.53,516.65Z" transform="translate(-809.62 -379.21)"/><path class="cls-1" d="M831.75,563.19a7.5,7.5,0,0,1-3.14-.17c-3.76-.79-7.58-1.78-10.62-2.66a9.62,9.62,0,0,0-6.75,0c-.55.17-.68.08-1.32-.54s-.31-.67.37-.64A14.88,14.88,0,0,0,813,559a7.81,7.81,0,0,1,1.75-.12,5.54,5.54,0,0,0-.77-2.34,3.59,3.59,0,0,1,.06-3.28c.19-.39.13-.59-1.11-.2a4.19,4.19,0,0,1-2.24-.12c-.34-.12-.31-.39.15-.44a5.37,5.37,0,0,0,2.56-.86c.49-.35.8-.32,1.91.07.89.32,1.11.64.67,1.13-1.07,1.26-1.38,2.32-.8,3.62a3.41,3.41,0,0,1,.31,2.49c.4.08.8.15,1.26.27a57.22,57.22,0,0,0,20.73,1.58c.83-.07.92.27.15.57A53.13,53.13,0,0,1,831.75,563.19Zm-16.69-14.56a10,10,0,0,1-2.56-1.87c-.34-.37-.21-.55.59-.5,2.25.15,3.48.94,3.36,1.85A.89.89,0,0,1,815.06,548.63Zm9.58-.67c-.59,1.06-.5,1.24-.12,1.43s.36.5-.38.74a17.26,17.26,0,0,1-3.32.57c0,.84-.06,1.55-.06,2.24a8.5,8.5,0,0,1,3-.57c.92.15.7.45,0,.64-1.73.5-2.22.55-3,.37,0,1,0,1.8,0,2.52a9.19,9.19,0,0,1,3.26-.59c.8.09.71.49-.06.66a6.92,6.92,0,0,1-3.2.27,10.49,10.49,0,0,1-.16,2.71c-.18.54-.61.59-.92-.05a3.52,3.52,0,0,1-.19-2.68c.16-.67.19-2.07.25-6.9,0-2,0-2.49-.4-3s0-.66,1.42-.22a5.11,5.11,0,0,0,2.71-.64c.52-.32.67-.32,1.54,0,1.29.44,1.38.74.92,1.08A4.69,4.69,0,0,0,824.64,548Zm-1.73-1.55a16.58,16.58,0,0,0-1.94.25c0,1-.06,2.36-.12,3.57,2-.57,2.13-.69,2.4-1.38a8.27,8.27,0,0,0,.37-2.09C823.62,546.46,823.53,546.39,822.91,546.41Zm8.84,11.43a28,28,0,0,0-2.49-1.84,10.75,10.75,0,0,1-5,3c-.77.17-.84-.1-.25-.37a13.71,13.71,0,0,0,4.34-3.18c-.74-.41-1.51-.81-2.24-1.13s-.59-.54.09-.47a19.21,19.21,0,0,1,2.74.81,10.15,10.15,0,0,0,.86-1.6c.28-.76.19-.86-.37-.88a8.51,8.51,0,0,0-2.06.32,2.11,2.11,0,0,1-1.48,0c-.52-.23-.49-.35.52-.52a19,19,0,0,0,3.45-.91c.4-.2.77-.18,1.82.15,1.23.36,1.29.69.68,1.05a12.08,12.08,0,0,0-2,2.49,1.78,1.78,0,0,1-.24.32c2.74,1,3.23,1.58,3.6,2.44C834.15,558.78,833.66,559.37,831.75,557.84Zm-.37-10.17c-.55.69-.49.93-.18,1.11.61.29.4.61-.74.76-.4.05-1.23.22-1.82.32a6.48,6.48,0,0,1-2.4.07c-.46-.12-.4-.37.18-.46a20.72,20.72,0,0,0,2.22-.47,1.7,1.7,0,0,0,1.11-.81,4.69,4.69,0,0,0,.37-1.41c0-.47,0-.64-.4-.61a10.15,10.15,0,0,0-1.45.19,1.57,1.57,0,0,1-1.23-.05c-.4-.22-.34-.34.22-.44a7.53,7.53,0,0,0,2.68-.84c.39-.27.73-.39,1.9,0,1.48.49,1.79.84,1.11,1.16A4.79,4.79,0,0,0,831.38,547.67Z" transform="translate(-809.62 -379.21)"/><path class="cls-1" d="M814.69,589.61a2.9,2.9,0,0,1-.37-1.31,10.9,10.9,0,0,1,.28-1.94c.28-.57.12-.69-1.08-.15a4,4,0,0,1-3.11-.15c-.22-.1-.12-.3.09-.3a8.07,8.07,0,0,0,4.13-1.4c.46-.32.71-.32,2,.2s1.36.76.59,1.28c-1.67,1.08-2,2.54-1.27,3.42a3.28,3.28,0,0,1,.74,3.13c.65.15,2.56.62,3.23.84a42.78,42.78,0,0,0,17.37,1.58c.44-.08.59.42.07.56-1.73.55-4.69,1.29-6,1.58a5.78,5.78,0,0,1-3.48-.22c-5.54-1.63-7.54-2.24-9.39-2.88-2.62-.89-3.67-.84-5.67,0a1.74,1.74,0,0,1-1.78-.08c-1-.42-1-.81-.65-.86,1.42-.2,3.08-.47,3.94-.64a4.6,4.6,0,0,1,1.29-.1A3.4,3.4,0,0,0,814.69,589.61Zm2.68-8.82a15.12,15.12,0,0,1-3-2.27c-.21-.25-.15-.29.12-.29,3.11.07,4.22.71,4.13,2.09C818.54,581,818.14,581.18,817.37,580.79Zm6.31,6.06a5.16,5.16,0,0,0-1.26-1.6c-.52-.42,0-.77,1.33-.47A21.51,21.51,0,0,0,829,583.7c.52-.23.86-.23,2,.29.62.27.71.49.31.81-1.2,1-1.45,1.38-1.26,1.61.34.37.27.56-.16.64-.61.09-2.49.34-3.94.49.59.44.62.71.16,1.06a5.35,5.35,0,0,0-.53.42c.9.49,1,.71.93,1.23a13.12,13.12,0,0,0-.07,2c.07,1.45-.09,1.77-.3,2s-.4.29-.77-.08a1.32,1.32,0,0,1-.37-1.5,9.5,9.5,0,0,0,0-3.23,12.17,12.17,0,0,1-5.67,2.56c-.37,0-.43-.17-.06-.29a16.75,16.75,0,0,0,3.48-1.92c1.48-1.14,1.79-1.48,1.82-2C824.33,587.74,824,587.47,823.68,586.85Zm7.64-5.37c1.57-.35,2-.35,2.89.17s.62,1-1.2.81a54.44,54.44,0,0,0-5.91.45c-1.54.19-3.69.54-4.77.81a3.26,3.26,0,0,1-2.74-.3c-.31-.14-.25-.44.21-.41.28,0,3.27-.32,6.56-.77l.09-1.6c-1.81.2-2.64.15-3.29-.15-.28-.15-.25-.22,0-.24,1.29-.2,1.78-.3,3.36-.62.12-1.85,0-2.39-.56-3s-.21-.77,1.42-.3c1.2.32,1.38.71,1,1.18a3.21,3.21,0,0,0-.5,1.88c2.13-.42,2.56-.45,2.93-.28s.49.45-.09.69a19,19,0,0,1-2.9.74l-.06,1.53C829.26,581.82,830.64,581.63,831.32,581.48ZM824.88,587a27.27,27.27,0,0,0,3.21-.55c.55-.19.71-.34.77-1.08,0-.44-.06-.66-.59-.59-.74.1-2,.29-3.85.67A12.5,12.5,0,0,1,824.88,587Zm6.72.74c0-.5.24-.6,1.38-.15,1.3.49,1.27.74.4,1a20.69,20.69,0,0,0-2.58,1.48c2.31.59,3.05,1.14,3.23,2,.12.69-.28.86-1.26.34-2-1-2.83-1.45-5.24-2.56-.4-.2-.31-.47.34-.35s1.39.28,2,.37C831.1,589,831.63,588.18,831.6,587.74Z" transform="translate(-809.62 -379.21)"/><path class="cls-1" d="M821.28,620.31a30.62,30.62,0,0,1-.43,3.92c-.22,1-.86,2-1.17,2s-.49-.32-.8-1.41c-.19-.64-.43-.66-1.2-.49a10.33,10.33,0,0,1-2.71.25c-.16,1.08-.37,1.38-.56,1.38-.37,0-.83-.59-.77-1.7.19-3.52-.21-6.48-.95-7.37-.43-.54-.28-.66.49-.59a3.67,3.67,0,0,1,.74.12,4.44,4.44,0,0,0,.62-.1c2-2.61,3-4.65,2.8-5-.43-.94-.28-1.18,1.6-.79,1.63.37,1.6.69.83,1.26a32.22,32.22,0,0,0-4.19,4.36,20.54,20.54,0,0,0,3.11-.84c.65-.25.93-.27,2.1.12,1.45.52,1.63.84,1,1.58A11.14,11.14,0,0,0,821.28,620.31Zm-3.73-3.94c-1.69.29-2.4.39-2.95.44a28,28,0,0,1,.34,3c.58-.12.89-.22,1.26-.32a4.81,4.81,0,0,1,1.51-.22c.77,0,1,.59.28.79a9.87,9.87,0,0,1-3,.37,33.74,33.74,0,0,1,0,3.47c2-.47,3.08-.59,3.63-.27s.68.22.87-1.52a30.64,30.64,0,0,0,.09-5.08C819.59,616.29,819.16,616.07,817.55,616.37ZM834,620.66a29.19,29.19,0,0,1-.68,4.6,5.33,5.33,0,0,1-2.89,3.77c-.68.32-1.08.27-1.29-.32a7.66,7.66,0,0,0-1.64-2.34c-.8-.71-.64-1,.77-.37,1.91.77,2.8.2,3.36-1.9a21.49,21.49,0,0,0,.92-6.35c-.06-1.6-.3-1.92-1.35-1.85-1.2.1-1.91.2-2.9.35a3.22,3.22,0,0,1-2.24-.42,17.21,17.21,0,0,1-3.39,2.73c-.59.32-.83.15-.31-.32a25.79,25.79,0,0,0,4.53-5.54c1-1.75,1.14-2.44,1-2.74-.27-1-.18-1.08,1.36-.76,1.75.37,2,.71,1.2,1.28a13.77,13.77,0,0,0-2,2.49,18.81,18.81,0,0,1-2,2.46,4.73,4.73,0,0,0,2.31,0,10.69,10.69,0,0,0,2.59-.62c1-.49,1.23-.49,2.65.12,1.6.69,1.69,1,.83,1.88C834.34,617.28,834.12,618.26,834,620.66Zm-7.36.76a22,22,0,0,1-1.66-2.14c-.4-.57-.25-.72.8-.5,1.6.35,2.22.91,2.34,1.68C828.33,621.71,827.38,622.23,826.67,621.42Z" transform="translate(-809.62 -379.21)"/><path class="cls-1" d="M818,647c-.44.59-.59,1.33-.37,1.51.58.46.46.69-.37.91-2.07.54-2.5.59-3.17.49a4.55,4.55,0,0,1-.53,3.18c1.88-.81,2.19-.79,3.27-.35.83.35.83.47.46,1.06a5.65,5.65,0,0,0-.16,2.66,4.74,4.74,0,0,1-1.32,3.9c-.71.71-1.08.61-1.51,0a7.18,7.18,0,0,0-1.54-1.53c-.46-.37-.4-.51.46-.37,1.39.25,1.91,0,2.1-1a8.76,8.76,0,0,0,.09-3.45c-.12-.61-.37-.78-1-.56a3.87,3.87,0,0,0-1.66,1c-.58.54-.92.49-1.17-.37-.06-.27.09-.42.65-.94s.86-3.1.34-3.59c-.34-.32,0-.62.64-.42a3.67,3.67,0,0,0,2.71-.42c.56-.27.83-1,1-2.54,0-.42-.25-.47-.92-.3a3.28,3.28,0,0,1-2.1.05c-.74-.32-.74-.44,0-.54a7.42,7.42,0,0,0,3-1c.58-.42.86-.52,1.85,0s1,.6.55,1A11,11,0,0,0,818,647Zm8,8.87a23.22,23.22,0,0,1-2.43-1.45c0,1.21.06,2.95.12,3.33a10.07,10.07,0,0,1-.15,3.25c-.31.76-.83.81-1.29-.1a3.48,3.48,0,0,1,0-2.79c.12-.29.21-2.71.31-4.33a9.75,9.75,0,0,1-3.89,3.5c-.89.42-1,.19-.4-.27a17.79,17.79,0,0,0,4.1-5.06,14,14,0,0,1-3.51.35c-.8-.12-.8-.3,0-.49.34-.05,2.49-.57,3.76-.86.09-4.93-.09-7.69-.62-8.23s-.28-1.06,1.2-.5c1.3.52,1.42.69,1.11,1.33s-.55,2.29-.77,7.12c1.51-.51,2.13-.66,2.62-.49,1,.25.83.57-.31.94-.58.19-1.41.39-2.34.59v2.34c2-.1,3,.42,3.24,1.26C827,656,826.7,656.24,826,655.89Zm-5.69-5.69a7.53,7.53,0,0,1-1.11-1.3c-.28-.5,0-.65.58-.52s1.51.86,1.54,1.33A.59.59,0,0,1,820.33,650.2Zm5.23-1.3c-.71.34-.92.22-.4-.4a5.56,5.56,0,0,0,1-1.53c.12-.66.24-.76,1.26-.24.83.42,1,.88.31,1.13A18,18,0,0,0,825.56,648.9Zm9.09,7.44c0,2.31-.8,4.33-2.84,5.49-.92.57-1.17.47-1.48-.15a11.07,11.07,0,0,0-1.53-2.24c-.44-.37-.25-.49.49-.2,1.57.69,2.49.45,2.92-.39A10.76,10.76,0,0,0,833,654c0-.62-.46-1-1.29-1a7.07,7.07,0,0,0-3.51,1.13c-.65.82-1,.82-1.11-.17-.06-.27.15-.59.74-1.11.74-.66,1.11-2.39.55-3-.34-.4-.15-.72.59-.64s2-.13,2.4-.84a10.88,10.88,0,0,0,.77-2.83c.06-.37-.18-.47-1-.25a5,5,0,0,1-2.7.1c-.68-.22-.68-.37.06-.49a8.22,8.22,0,0,0,3.38-1c.62-.37,1-.52,2.28.17s1.3.89.71,1.26a5.66,5.66,0,0,0-1.88,1.87c-.61,1.21-.61,1.31-.15,1.53s.46.59.06.67a13.93,13.93,0,0,1-3.33.41c.56.72.41,1.73-.24,2.94a12.58,12.58,0,0,0,2.22-.5,3,3,0,0,1,2.7.23c1.3.54,1.33.64.87,1.37A6.61,6.61,0,0,0,834.65,656.34Z" transform="translate(-809.62 -379.21)"/><path class="cls-1" d="M821,690.18c-.24.71-.24.86.22,1.3.31.3.18.42-.71.52-1.72.2-3.14.34-5.3.52.16.83-.21,1.43-.55,1.43s-.68-.45-.89-1.48a13.66,13.66,0,0,0-1.79-4.91c-.49-.54-.15-1,1.57-.34a19.65,19.65,0,0,0,5.39-1c.71-.35,1-.25,2.59.36s1.69.79.67,1.68A4.32,4.32,0,0,0,821,690.18Zm-3-2.86a24.72,24.72,0,0,1-3.7.56,38.63,38.63,0,0,1,.8,4c3.39-.32,4-.79,4.25-1.48a13.23,13.23,0,0,0,.43-2.39C819.86,687.29,819.43,687.05,818,687.32Zm9.94-6.63c-.27.47-.18.67.13,1s.37.67-.19.79a42.11,42.11,0,0,1-6.8.84c0,.79-.07,1.06-.38,1.06a1.55,1.55,0,0,1-1.07-1.24c-.8-2.78-1-3.42-2.19-4.75-.49-.54-.46-1,1.14-.59a21,21,0,0,0,7.45-1c.93-.39,1.39-.34,2.87.4,1.72.89,1.88,1.16,1,1.67A7,7,0,0,0,827.93,680.69ZM824.79,678a43.4,43.4,0,0,1-4.8.49c.31,1.06.74,3,1,4.11,4.28-.61,4.75-.79,5-1.28a10.8,10.8,0,0,0,.59-2.56C826.64,677.78,826.49,677.73,824.79,678Zm9.64,10.93c-.95,1.21-1,1.73-.25,2.27.41.3.28.64-.55.64-.58,0-3.48.27-6.37.45-.1.61-.25,1.08-.5,1.13s-.58-.44-.7-1.48a13.13,13.13,0,0,0-1.45-5.22c-.4-.74-.16-1,1.17-.52a21,21,0,0,0,6.8-1c.56-.27,1.24-.07,2.28.45,1.94,1,1.88,1.13,1.08,1.77A15.2,15.2,0,0,0,834.43,688.94Zm-2.95-2.44c-2.16.23-3.24.32-4.75.4a16,16,0,0,1,.56,4.61c4.06-.42,4.46-.64,4.8-1.16a9.86,9.86,0,0,0,.55-3.11C832.68,686.65,832.4,686.41,831.48,686.5Z" transform="translate(-809.62 -379.21)"/></g></svg>