<svg xmlns="http://www.w3.org/2000/svg" viewBox="0 0 115.65 320.15"><defs><style>.cls-1{fill:#fff;}</style></defs><g id="Layer_2" data-name="Layer 2"><path class="cls-1" d="M1101.9,396.89c-2.74-2.14-4.1-3.25-5.73-4.53,0,1.72.12,4.11.15,5.25a7.22,7.22,0,0,1-.21,2c-.47,1.21-.93,1.26-1.67-.1a1.9,1.9,0,0,1-.09-1.4,24.81,24.81,0,0,0,.59-5.77c-1.61,2.25-6.78,5.47-9.64,5.87-.77.05-.93-.2-.4-.45,3.23-1.38,7.45-4.06,8.87-6-.5.07-1,.12-1.27.19-1.87.3-2.34.38-3.23,0-.56-.22-.49-.41.34-.49,1.2-.07,2.68-.2,5.33-.54,0-.57,0-1.08,0-1.6-2,.2-4.74.52-6.31.76a3.61,3.61,0,0,1-1.75-.14c-1-.42-.87-.62.37-.67s4.49-.3,7.69-.69c0-.49,0-1,0-1.4-1,.12-2,.24-2.52.36a3.79,3.79,0,0,1-2.62-.19c-.34-.22-.21-.37.37-.37s2.71-.22,4.77-.45c0-.64,0-1.23-.06-1.65-2.34.27-6.13.84-6.86,1a4.65,4.65,0,0,1-2.31-.1c-1-.42-.87-.62.39-.69s5.09-.54,8.72-1a3.32,3.32,0,0,0-.4-1.75c-1.17.2-2.37.35-3.48.44-.77.05-.83-.17-.37-.32,5-1.3,6.53-2,6.78-2.29.46-.61.8-.66,2.21-.17s1.54,1,.74,1.06a12.35,12.35,0,0,0-1.84.39,18.9,18.9,0,0,1-3.11.69c1.38.42,1.41.77,1.07,1.73,3.17-.44,5.92-.86,6.32-.94a6.67,6.67,0,0,1,2.95.22c1.85.72,1.23,1.14-2,1.11a43.49,43.49,0,0,0-7.39.42c0,.37,0,.91,0,1.63a27.32,27.32,0,0,0,3.23-.54,2.62,2.62,0,0,1,2.59.12c1.2.59,1.2.66.46,1.35a2,2,0,0,0-.34.4l.83-.15a5.1,5.1,0,0,1,2.68.1c1.27.79,1.2,1-2.06,1a17.26,17.26,0,0,0-1.94.13,5.06,5.06,0,0,0-.22,1.28c0,.17.1.22.34.34.62.32.34.67-.15.69-1.42.05-3.51.25-5.42.45v.15a56,56,0,0,0,5.2,3,28.7,28.7,0,0,0,8,2.09c.83.1,1,.49.06.59C1103.71,398,1103.28,398,1101.9,396.89ZM1099,386.77a25.13,25.13,0,0,0-2.89.22v1.48c1.78-.18,3.08-.32,4.15-.5,0-.17,0-.39,0-.56C1100.42,386.77,1100.32,386.69,1099,386.77Zm-2.89,2.44v1.57c3.41-.34,3.63-.42,3.69-.51a3.42,3.42,0,0,0,.37-1.41C1099.06,389,1097.74,389.11,1096.14,389.21Z" transform="translate(-995.35 -379.71)"/><path class="cls-1" d="M1090.56,423.52a13.89,13.89,0,0,1-7.08,6.16c-1,.42-1.2-.05-.56-.42a16.36,16.36,0,0,0,6.75-7.22c.19-.42.12-.49-.4-.34a21.88,21.88,0,0,0-2.22.74,2.48,2.48,0,0,1-2-.2c-1-.47-.89-.69.31-.69a10,10,0,0,0,4.06-.94c.62-.44,1-.44,1.88,0,1,.52.93.69.34,1.16A11.89,11.89,0,0,0,1090.56,423.52Zm5.11-5.44a6.23,6.23,0,0,1,.41,1.33,5.93,5.93,0,0,1,2.09-.25c.62.15.74.44,0,.71a17.28,17.28,0,0,1-1.94.52c.06.47.12,1,.15,1.65a4.3,4.3,0,0,1,1.76,0c.55.15.49.57,0,.74a10.56,10.56,0,0,1-1.73.37,17.31,17.31,0,0,1,0,1.94,8.75,8.75,0,0,1,3.08-.19c.65.12.59.51,0,.66a18.23,18.23,0,0,1-3.08.59c0,4.64-.12,5.15-1.2,6.65-.64.92-1.26.92-1.66.42a12.62,12.62,0,0,0-2.34-2.09c-.52-.34-.28-.59.28-.47,2.09.44,2.83.27,3.14-.94a18.75,18.75,0,0,0,.37-3.37,7.56,7.56,0,0,1-3.2,0c-.68-.2-.71-.5-.07-.55,1.11-.1,2.22-.22,3.27-.41,0-.77,0-1.48,0-2.07a9.14,9.14,0,0,1-2.19-.1c-.77-.23-.74-.47-.06-.55s1.48-.19,2.22-.32c0-.71,0-1.28-.06-1.72a11.8,11.8,0,0,1-2.13.1c-.77-.2-.77-.54,0-.62a18.31,18.31,0,0,0,2.06-.37c-.12-.88-.33-1.15-.74-1.38-1.26-.71-1-1.06,1-.66a19.16,19.16,0,0,0,3.33-2.47c.37-.49.18-.64-.62-.51-.58.1-4.53,1.08-5.08,1.23a2.77,2.77,0,0,1-2.62-.25c-1.14-.64-.92-.93.09-.86a31.46,31.46,0,0,0,7.55-1,2.44,2.44,0,0,1,2.71.27c1.91,1,1.94,1.58.74,1.7S1098.39,416.55,1095.67,418.08Zm14.48,11.85c-5.27.12-5.42.07-6.38-1.31s-2.52-3.94-3-4.65a9.31,9.31,0,0,0-2.1-2.86c-.67-.52-.61-.77.22-.59a4.08,4.08,0,0,1,2,1.57c1.39-.86,2.71-2.09,2.77-2.56,0-.79.13-.84,1.73-.39s1.63.88,1,1.15-1.29.55-5.08,2.34a19.66,19.66,0,0,0,3.39,3.87,13.39,13.39,0,0,0,5.76,2.74C1111.2,429.48,1111.26,429.9,1110.15,429.93Z" transform="translate(-995.35 -379.71)"/><path class="cls-1" d="M1101.86,450.87c-1.5.34-5.17,1-7.57,1.33a22.65,22.65,0,0,1-3.79,4.83c-.09,2-.18,5.76-.18,7a6.56,6.56,0,0,1-.59,2.89c-.43.54-.77.42-1.26-.35a2.52,2.52,0,0,1-.06-2,19.86,19.86,0,0,0,.64-6.06,18,18,0,0,1-7.14,4.88c-.77.22-.92,0-.34-.42a35.34,35.34,0,0,0,7.3-6c-.4-1.15-.12-1.33.92-1.06a14.07,14.07,0,0,0,2.59-3.45,13.75,13.75,0,0,1-3.76,0c-1.29-.34-1.35-.62-.31-.71,1.85-.2,3.39-.4,4.78-.62,1.29-2.59,1.38-4.19,1.14-4.56-.59-1-.19-1.35,1.63-.64,1.29.49,1.51.84,1,1.6a23,23,0,0,0-1.79,3.28c1.82-.32,3.63-.72,6-1.28a4.45,4.45,0,0,1,2.81-.15C1104.64,449.61,1104.17,450.33,1101.86,450.87ZM1106,464a49.55,49.55,0,0,0-12.32.47,3.85,3.85,0,0,1-2.43-.1c-1.14-.42-1-.86,0-.84s3.88-.17,6.71-.44l.13-4a9,9,0,0,1-3.73-.07c-1-.35-1.08-.59-.18-.67s2.37-.27,3.94-.56c0-2.61-.13-3.67-.46-4-.93-.87-.34-1.34,1.38-.69,1.33.49,1.54.76,1.11,1.42a19.3,19.3,0,0,0-.34,2.94c1-.18,1.88-.37,2.53-.52a4.48,4.48,0,0,1,2.49,0c.59.2.68.69-.52,1.06a36.41,36.41,0,0,1-4.56.89l-.09,4.07,4.4-.59a5.88,5.88,0,0,1,4.19.59C1109.13,463.51,1108.64,464.34,1106,464Z" transform="translate(-995.35 -379.71)"/><path class="cls-1" d="M1105.9,491.08a4.73,4.73,0,0,1-3.73-.91,53.36,53.36,0,0,1-6.06-4.58,13.26,13.26,0,0,0,.09,2.21,5.64,5.64,0,0,1-.37,2.67c-.22.39-.65.36-1,0a1.65,1.65,0,0,1-.36-1.7,15.27,15.27,0,0,0,.39-3.26,19.78,19.78,0,0,1-5.69,4.83,21.92,21.92,0,0,1-5.48,2c-1.51.22-1.91.05-.25-.54,3.88-1.46,7.7-3.82,9.3-6.06a31.12,31.12,0,0,0-3.36.56,4.45,4.45,0,0,1-3,0c-1.08-.52-1-.79.92-.79.43,0,4.65-.47,7.57-.82.1-1.3-.06-1.79-.61-2.31-.83.15-2.31.37-2.74.39-1.3.08-1.51-.14.61-.71a29.5,29.5,0,0,0,5.46-2.05c.3-.56.7-.64,2.18.15s1.48,1.21-.15,1.21a28.17,28.17,0,0,0-4.28.79c1.32.29,1.48.61,1.11,1.21a4,4,0,0,0-.28,1.18c1.14-.13,2.46-.32,3.63-.52,3-.49,3.27-.47,4.38-.07s1.17,1.11-.74,1.06a60.91,60.91,0,0,0-6.81.29c5,3,8.41,4.12,11.52,4.58,2.71.4,2.89.67.89.84C1107.72,490.83,1106.85,491,1105.9,491.08Zm-4.93,5.59a5.07,5.07,0,0,1-1,3.18c-1,1.36-1.33,1.21-2.13-.93a1.4,1.4,0,0,0-1.2-1c-.92,0-3,.12-4.71.25-.09,1.11-.34,1.7-.71,1.7s-1.11-1.11-.89-2.61a10.72,10.72,0,0,0-.4-5.28c-.5-.64-.22-1,1.23-.42a35.57,35.57,0,0,0,6.4-1,2.88,2.88,0,0,1,1.88,0,9.07,9.07,0,0,1,1.73.71c.43.25.34.55,0,.82S1100.7,493.35,1101,496.67Zm-2.18-4c-.16-1-.4-1.19-1.61-1.09-.92.1-3.54.32-5.45.55.06.78.13,1.6.19,2.36,2.8-.64,4-.81,4.46-.66,1.24.37,1.2.66.1.83a22.72,22.72,0,0,1-4.56.3c.06,1,.09,1.92.06,2.59,1.6-.18,3.3-.45,3.94-.55a3,3,0,0,1,1.88.18c.92.71,1.14.64,1.14-.37A34.06,34.06,0,0,0,1098.79,492.66Z" transform="translate(-995.35 -379.71)"/><path class="cls-1" d="M1085.67,530.2c-.34,1-.77,1.11-1.54-.57-.68-1.47-.62-1.77,0-1.79a2.68,2.68,0,0,0,1.6-.92c.83-.91,1.88-2.09,2.71-2.9s1-.47.46.29A28.65,28.65,0,0,0,1085.67,530.2Zm.64-8.4a8.45,8.45,0,0,1-2-1.75c-.43-.54-.21-.69.62-.59,1.69.2,2.55.71,2.61,1.48C1087.64,521.92,1087.24,522.34,1086.31,521.8Zm2.77-4.51a10.66,10.66,0,0,1-2.21-1.77c-.43-.45-.19-.62.49-.6,1.82.08,2.59.52,2.86,1.61C1090.41,517.29,1089.86,517.73,1089.08,517.29ZM1110,527c-4.53.44-4.72.42-6.29-.82a78.18,78.18,0,0,1-6-5.27c-.83.12-2,.32-3,.5,1.26.69,1.17.88.83,1.23a24.3,24.3,0,0,0-2,2.24,2.4,2.4,0,0,1,.4,0,11.94,11.94,0,0,0,3.91-.76c.49-.2.86-.23,1.79.24,1.29.62,1.38.86.86,1.26a4.94,4.94,0,0,0-1.2,1.23c-.12.15-.06.34.18.52s.28.49-.27.61a14.31,14.31,0,0,1-4.65.57,6.29,6.29,0,0,0,.09,2c.18.92,1.88,1.43,4.4,1.24,2.68-.25,3-.47,4-2.67.19-.39.44-.51.56.13a10.93,10.93,0,0,0,.61,1.72c.25.5.19.87-.64,1.26a12.56,12.56,0,0,1-5.24.89c-4.55-.32-5.11-1.21-5-4.86a8.94,8.94,0,0,0-.09-2.53,1.59,1.59,0,0,1-.09-.47,13,13,0,0,1-5.39,3.67c-.86.29-.92,0-.09-.5a19,19,0,0,0,5.48-5.22,4.61,4.61,0,0,0,.86-1.77,10.77,10.77,0,0,0-1.26.27c-1.76.37-2.28.34-3.11,0s-.37-.59.68-.64c.27,0,2.28-.27,4.52-.57l-.33-2.44a3.39,3.39,0,0,1-2-.15c-.55-.22-.43-.44.25-.51l1.6-.22a7.34,7.34,0,0,0-.83-2.57c-.68-.79-.4-1,1-.59,1.29.4,1.35.67,1.26,1a8.87,8.87,0,0,0-.19,1.92c1.39-.22,2.93-.49,4.13-.72.49-1.7.49-2.66.16-3.22-.44-.74,0-.92,1.26-.47,1.48.52,1.57.91,1.29,1.28a18.46,18.46,0,0,0-1.08,2.12c1.7-.32,2.28-.35,2.65-.17.56.22.68.66-.31.88l-2.83.42-1.26,2.74c.89-.15,1.6-.27,2.06-.37,2-.42,3-.45,3.94-.13,1.21.37,1.36,1.06-.55,1a63.22,63.22,0,0,0-6.59.29c5.6,4.17,6.65,4.29,11.58,5.55C1110.77,526.48,1110.86,526.87,1110,527Zm-13-1.87a17.69,17.69,0,0,1-2.31.32,9.57,9.57,0,0,1,0,2.61,15,15,0,0,0,2.68-.57c.58-.2.77-.59,1-2C1098.39,525.08,1098,524.88,1097,525.08Zm-1.26-7.13.09,2.52c1-.12,2-.27,2.86-.4l.83-2.71C1098.45,517.51,1097,517.73,1095.71,518Z" transform="translate(-995.35 -379.71)"/><path class="cls-1" d="M1088.78,555.58c0,1.38-.16,6.92-.19,8.18,0,1.75-.49,2.93-.83,3.15s-.68.23-1-.41a2.67,2.67,0,0,1-.18-2.17c.31-.5.68-3.82.77-6.31a14.1,14.1,0,0,0-.15-3.84,16,16,0,0,1-5.12,3.94c-.7.32-.89,0-.36-.37a28.76,28.76,0,0,0,6.4-6.9c.83-1.11,1.39-2.54,1.14-3.25s.34-1,1.6-.2,1.3,1.28.8,1.6a11,11,0,0,0-1.72,1.83c-1,1.28-1.48,1.89-2.1,2.63A2.07,2.07,0,0,1,1088.78,555.58Zm12.44,5.13a1.55,1.55,0,0,1,1.54.17c1.29.59,1.23,1,.68,1.28a9.37,9.37,0,0,0-2.13,1.82,26.84,26.84,0,0,0,8.5,2.07c.68.08.71.47-.09.57-4.84.69-5.3.64-7-.4l-2.47-1.52a12.55,12.55,0,0,1-6.34,1.67c-.52,0-.52-.32.15-.44a13.67,13.67,0,0,0,5.12-1.9,20.84,20.84,0,0,0-2.84-1.63,15.92,15.92,0,0,1-6,3.28c-.65.13-.77-.1-.25-.32a22.67,22.67,0,0,0,3.73-2.46c1.54-1.36,1.78-1.78,1.81-2.34s.28-.54,1.24,0c.55.27.74.44.71.66A20.63,20.63,0,0,0,1101.22,560.71Zm-9.15-2.44a2.86,2.86,0,0,1-1,1.38c-.43.32-.87.27-1-.5a1.59,1.59,0,0,1,.37-1.25,8.19,8.19,0,0,0,.83-1.75c.1-.35.5-.5,1.05.27.71-.08,2-.22,2.93-.35a14.52,14.52,0,0,0-.19-2.53,3.49,3.49,0,0,0-.52-1.85c-.34-.49.09-.64,1.35-.4.31,0,.65-.07,1-.12a5.15,5.15,0,0,0,.92-2.07c-2.62.27-3.11.22-3.94-.07-.62-.18-.49-.45.15-.47a73,73,0,0,0,7.67-1,7.47,7.47,0,0,1,3.67-.08c1.11.37,1,.62-.84.87-1.14.17-2,.27-5.08.54.65.39.65.52.31.66a7,7,0,0,0-1.94,1.43c1.05-.19,2.13-.42,3.05-.64a2.39,2.39,0,0,1,2,.18c1.26.56,1.17.86.71,1.25s-.71,1.28-.86,3.38c1.69-.28,2.43-.4,2.92-.52.77-.17,1.08-.15,2.53.64s1.45,1.45.34,1.53a10.5,10.5,0,0,0-3.27.93c0,.08.1.15.1.23.09.44-.16.54-.71.41a7.9,7.9,0,0,1-2.37-1.08c-.22-.15-.22-.22.09-.27a4.37,4.37,0,0,1,2.62.42,11.56,11.56,0,0,0,1.07-1.33c.25-.37-.06-.55-1.17-.47-.83.05-2.74.25-8,.89-2.68.34-3.82.46-4.44.49C1092.29,557.5,1092.16,558,1092.07,558.27Zm1.57,2.26c-.37.13-.64,0-.61-.34a2.46,2.46,0,0,1,.24-.64,8.37,8.37,0,0,0,.83-1.48c.16-.27.41-.22.5,0a1.74,1.74,0,0,1,0,1.63A2.42,2.42,0,0,1,1093.64,560.53Zm7.86-1.92c-.1-.25-.22-.54-.31-.71s0-.27.24-.1a22.86,22.86,0,0,0,2,1.25c.49.2.46.42.06.55a11.14,11.14,0,0,1-4.56.49c-1.72-.2-2.83-.79-3.33-2.12-.12-.37-.12-.49,0-.52a.51.51,0,0,1,.4.2,3.37,3.37,0,0,0,1.91,1.38,6.63,6.63,0,0,0,2.84.12C1101.34,559.05,1101.62,558.86,1101.5,558.61Zm-.25-3.25a32.09,32.09,0,0,0,.15-3.25c0-.94-.27-1-1.85-.77-1,.13-2.3.32-3.17.5,0,.34,0,.69,0,1.08,2.44-.69,2.87-.71,3.52-.54s.61.29.18.42a12.61,12.61,0,0,1-3.7.56c0,.37.07.79.07,1.14,2.18-.52,3.17-.57,3.66-.37.31.1.31.17-.06.32a10.69,10.69,0,0,1-3.57.44c0,.37,0,.71.06,1C1098.54,555.68,1100.05,555.51,1101.25,555.36Zm-.09,6.68c.21-.42.09-.52-.46-.47a24.82,24.82,0,0,1-3.7.14,1.65,1.65,0,0,0-.28.33,10.1,10.1,0,0,1,3.36,1.33A5.59,5.59,0,0,0,1101.16,562Zm-3-5c1.63,0,2.25.42,2.15,1-.06.3-.21.34-.58.27a4.31,4.31,0,0,1-1.76-1C1097.74,557.16,1097.74,557.06,1098.14,557.06Z" transform="translate(-995.35 -379.71)"/><path class="cls-1" d="M1101.86,597.58c-4.61-2.81-8-5-10.87-6.85-.06,2.44-.15,4.6-.27,6.35a45.47,45.47,0,0,1,4.59-1.72c.77-.25,1.13,0,.43.42a43.57,43.57,0,0,0-6.56,4c-.74.66-1.27.37-1.48-.25s-.28-1.3.12-1.6a3.14,3.14,0,0,0,1.6-2.46,56.24,56.24,0,0,0,.19-8.72,4,4,0,0,0-1.08-2.76c-.46-.47-.15-.91,1.54-.3a38.34,38.34,0,0,0,7.7-1.6A2.39,2.39,0,0,1,1099,582a11.26,11.26,0,0,1,2.68.93c.59.37.46.72.22.84a3.83,3.83,0,0,0-1.45,1.92c-.22.54-1.17,2.39-1.91,3.67-.25.42-.59.57-1.14.15-.15-.12-.74-.1-2,.1-1.94.32-3.11.47-4.34.57a37.29,37.29,0,0,1,5.29,2.76c3-1.68,4.1-3,4.28-3.6.13-.42.31-.54,1.57,0s1.3,1,.47,1.18c-.31.08-2.74,1.13-5.85,2.69a32,32,0,0,0,12.75,4.31c1.07.15,1.26.49.06.61C1104.05,598.81,1103.71,598.71,1101.86,597.58Zm-4.61-14.44c-.62.05-2.5.39-4.16.74a14.42,14.42,0,0,1-2.28.29,8,8,0,0,1,.28,2.54c4.12-1.11,4.62-1.21,5.11-1.16.8.08.62.64-.06.84-2.37.62-3.3.86-5.05.59a26.45,26.45,0,0,1-.07,2.69c5-1,5.42-1,5.73-.94s.77.1.87-.2a15.81,15.81,0,0,0,1-4.9C1098.54,583.16,1098.29,583.07,1097.25,583.14Zm-1.51-2.19a17.14,17.14,0,0,1-2.65-1.36c-.62-.39-.65-.74.37-.76,2.25-.08,3.54.39,3.85,1.2S1097.06,581.44,1095.74,581Z" transform="translate(-995.35 -379.71)"/><path class="cls-1" d="M1093.24,623.76a30.62,30.62,0,0,1-.43,3.92c-.21,1-.86,2-1.17,2s-.49-.32-.8-1.41c-.18-.64-.43-.66-1.2-.49a10.77,10.77,0,0,1-2.71.25c-.16,1.08-.37,1.38-.56,1.38-.37,0-.83-.6-.77-1.7.19-3.53-.21-6.48-.95-7.37-.43-.54-.28-.67.49-.59a3.67,3.67,0,0,1,.74.12,4.44,4.44,0,0,0,.62-.1c2-2.61,3-4.65,2.8-5-.43-.94-.28-1.19,1.6-.79,1.63.37,1.6.69.83,1.25a32.22,32.22,0,0,0-4.19,4.36,21.38,21.38,0,0,0,3.12-.83c.64-.25.92-.27,2.09.12,1.45.52,1.63.84,1,1.58A10.66,10.66,0,0,0,1093.24,623.76Zm-3.72-3.94c-1.7.29-2.41.39-3,.44a28,28,0,0,1,.34,3c.58-.12.89-.22,1.26-.32a4.53,4.53,0,0,1,1.51-.22c.77,0,1,.59.28.79a9.87,9.87,0,0,1-3,.37,33.74,33.74,0,0,1,0,3.47c2-.47,3.08-.59,3.64-.27s.67.22.86-1.53a30.52,30.52,0,0,0,.09-5.07C1091.55,619.74,1091.12,619.52,1089.52,619.82ZM1106,624.1a29.14,29.14,0,0,1-.68,4.61,5.31,5.31,0,0,1-2.89,3.77c-.68.32-1.08.27-1.29-.32a7.54,7.54,0,0,0-1.64-2.34c-.8-.72-.64-1,.77-.37,1.91.76,2.81.2,3.36-1.9a21.21,21.21,0,0,0,.92-6.35c-.06-1.61-.3-1.93-1.35-1.85-1.2.1-1.91.19-2.9.34a3.11,3.11,0,0,1-2.24-.42,17.65,17.65,0,0,1-3.39,2.74c-.59.32-.83.15-.31-.32a25.79,25.79,0,0,0,4.53-5.54c.95-1.75,1.14-2.44,1-2.74-.28-1-.19-1.08,1.35-.76,1.76.37,2,.71,1.2,1.28a13.83,13.83,0,0,0-2,2.49,19.45,19.45,0,0,1-2,2.46,4.64,4.64,0,0,0,2.31,0,10.34,10.34,0,0,0,2.58-.61c1-.49,1.23-.49,2.65.12,1.6.69,1.7,1,.83,1.87C1106.3,620.73,1106.08,621.71,1106,624.1Zm-7.36.77a23.24,23.24,0,0,1-1.66-2.15c-.4-.56-.25-.71.8-.49,1.6.35,2.22.91,2.34,1.68C1100.29,625.16,1099.34,625.68,1098.63,624.87Z" transform="translate(-995.35 -379.71)"/><path class="cls-1" d="M1082.19,657.39c-.81.39-1,.15-.25-.44a26.37,26.37,0,0,0,5.39-5.89c1.38-1.92,2-3.38,1.75-4.12s.1-1,1.55-.24,1.47,1.08.76,1.55a5.66,5.66,0,0,0-1.23,1.38c-.77,1.11-1.45,2-2.06,2.78a2.48,2.48,0,0,1,.86,2.34c-.06,2.81-.15,5.94-.21,8.18-.07,1.88-.13,2.27-.28,2.54a.68.68,0,0,1-1.26.1,2.38,2.38,0,0,1-.31-2.54,30.39,30.39,0,0,0,.61-5.81,15.06,15.06,0,0,0-.18-3.87A14.1,14.1,0,0,1,1082.19,657.39Zm12.59-7.37c-.74-.14-.83-.42.06-.54,1.51-.19,2.59-.34,3.39-.49a3.79,3.79,0,0,0-.43-2.27c-.62-.74-.31-1.06,1.11-.59s1.38.57,1.11,1.23a4.11,4.11,0,0,0-.31,1.41c2.19-.47,2.59-.55,3.45-.42s.95.54-.4.86c-.53.12-1.6.3-3.11.52l-.13,1.21c.84-.13,1.67-.3,2.38-.45a4.22,4.22,0,0,1,3.17.17c1.32.57,1.23,1,.58,1.33a9.53,9.53,0,0,0-1.66,2.52c-.37.61-.68.69-1.23.37-.28-.15-.49-.15-1.67,0-.3,0-1.16.15-1.9.19l-.1,1.38,2.84-.39c-.8-.69-.65-.81.43-.59,2.06.44,2.62,1,2.4,1.58-.15.44-.52.49-1.08.19a7.45,7.45,0,0,1-1.2-.71c-.62.1-1.2.22-1.75.32,1.66.49,1.78.71,1.6,1.21,0,.12-.06.24-.1.42,1.21-.15,2.35-.3,3.24-.45a4.85,4.85,0,0,1,3,.22c1.08.5.83,1.11-1.08.94a37.85,37.85,0,0,0-5.24.15,15.64,15.64,0,0,0,.1,1.65,18.78,18.78,0,0,1,0,2.88,3.41,3.41,0,0,1-1.24,2.76c-.43.44-.8.42-1.13-.07a8.86,8.86,0,0,0-2.25-1.83c-.68-.37-.53-.69.46-.51,1.91.34,2.28.17,2.43-.57a14.76,14.76,0,0,0,.16-2.66c0-.64,0-1.13-.06-1.55-5.06.42-6.78.69-7.83.86a3.9,3.9,0,0,1-2.43-.12c-1-.4-1-.55.19-.6,1.63-.07,4.12-.29,10-.93a2.31,2.31,0,0,0-.67-1.68,46,46,0,0,0-5.12,1.18c-.61.2-.89.2-1.75-.29s-.68-.69.27-.74a45,45,0,0,0,4.59-.52l.07-1.43c-.93.1-1.76.2-2.65.32a.32.32,0,0,1-.34.4c-.31,0-.83-.42-1.11-1a6.64,6.64,0,0,0-1.45-2.24c-.8-.6-.71-.94.83-.79,1.64-.2,2.87-.42,4.87-.72l0-1.18A10,10,0,0,1,1094.78,650Zm3.3,3.48c-1.51.19-1.91.14-2.34,0s-.34-.35.43-.42c.55,0,1.11-.1,1.94-.25l0-1c-1.79.25-3,.42-3.85.57.31.86.55,1.55.86,2.49,1-.15,1.91-.27,2.9-.37Zm-1.88,9.06a7.82,7.82,0,0,1-1.33-1.79c-.27-.55-.21-.6.62-.4,1.54.42,1.88.81,1.88,1.6S1096.66,663,1096.2,662.56Zm3.23-10a3.68,3.68,0,0,1,2.13-.1c.46.17.43.42-.34.56l-1.88.3-.09,1,2.89-.29c.46,0,.62-.15.74-.4a5.24,5.24,0,0,0,.52-1.52c.16-.77-.12-.91-1.2-.84-.55.05-1.41.12-2.71.3Z" transform="translate(-995.35 -379.71)"/><path class="cls-1" d="M1083.69,698.8a10.79,10.79,0,0,1-1.69-3.35c-.06-.22.06-.27.34-.12,2.62,1.28,3,1.92,2.65,3.15C1084.74,699.27,1084.13,699.34,1083.69,698.8Zm6.1-8.13c-.37-.91-.24-1,.46-.76,1.85.61,2.16,1.45,1.73,2.44-.22.56-.65.61-1.11.12a8.33,8.33,0,0,1-.58-.84c-3.36,1.28-4,1.55-4.53,2s-.8.37-1.3-.25-.49-1.13,0-1.38,1.21-.89,3.67-3.84a20.84,20.84,0,0,0-3.91.71c-.59.2-1.14,0-1.51-.79-.22-.39-.09-.59.65-.86s2-1.7,3-3.4c1.2-2,1.39-2.66,1.08-3.28s.06-1,1.45-.19,1.42,1.25.77,1.75-1.17,1.11-4.77,5.27a30.51,30.51,0,0,0,3.78.07c1.36-1.6,1.79-2.48,1.61-3.37-.13-.62.27-.74,1.38-.12,1.42.81,1.36,1.13.62,1.62-.93.64-2.53,2.17-6,6.36a13.13,13.13,0,0,0,3.76-.77C1090,691,1089.86,690.84,1089.79,690.67Zm-2.8,6a9.39,9.39,0,0,1-1.14-1.8c-.15-.3,0-.35.28-.25,1.82.54,2.09.94,2.12,1.87C1088.28,697.1,1087.45,697.32,1087,696.71Zm3.64-.82a5.76,5.76,0,0,1-1.42-1.72c-.22-.44-.13-.52.21-.44,2,.46,2.19.71,2.22,1.65C1091.67,696.16,1091.21,696.36,1090.63,695.89Zm6.19-1.5c-1,1.55-4.56,3.89-6.9,4.36-.8.12-.84-.15-.16-.44a19.55,19.55,0,0,0,4.81-3.45,5.93,5.93,0,0,0,1.91-3.75c0-.22.34-.37.86-.09,1.17.64,1.32,1.08.77,1.52A13.88,13.88,0,0,0,1096.82,694.39Zm4.34-6.45c-.53-.52-.5-.62.18-.5,2.62.4,3.91,1.9,3.57,2.76s-.64.84-1.44.08c-.28-.25-.56-.6-.93-.94-5.17,1-6.8,1.43-7.76,1.87-.8.35-1,.32-1.29-.37s-.28-.91.09-1.06a6.1,6.1,0,0,0,2.13-1.35,7.28,7.28,0,0,0,2.31-2.88c-2.56.41-3.08.41-3.92.07-.58-.22-.55-.44.07-.44a68,68,0,0,0,8.19-1.56,5,5,0,0,1,2.92-.14c1.17.32,1.21.69-.92,1.08-1,.2-2.62.47-4.84.79,1,.74.87,1,.28,1.3a24,24,0,0,0-4,3,48,48,0,0,0,6.28-.79C1101.8,688.55,1101.5,688.26,1101.16,687.94Zm-1.57-5.77a24.26,24.26,0,0,1-2.84-2.07c-.24-.22-.09-.47.43-.44,3.24.22,4,.81,3.76,2.21C1100.82,682.76,1100.6,682.81,1099.59,682.17Zm8.65,16.78a9.49,9.49,0,0,1-3.45.66c-2.09,0-2.89-.1-3.94-.79a3.13,3.13,0,0,1-1.14-3c.25-4,.18-4.87-.09-5.47-.13-.29.06-.41.8-.14,1.17.37,1.6.86,1.17,1.57-.37.55-.62,1.8-.5,4.34.1,1.58,1,2.24,3.67,1.87,2.43-.29,2.56-.49,3.33-3.84.18-.94.43-1,.49-.27a8.93,8.93,0,0,0,.86,3.42C1109.87,697.89,1109.78,698.26,1108.24,699Z" transform="translate(-995.35 -379.71)"/><path class="cls-1" d="M1009.54,388.68c-4.59,4.36-7.12,6.87-7.3,7.34-.43,1.16-.93,1.19-1.88.4-1.11-.91-1.2-1.26-.06-1.75.92-.42,1.45-2.86,1.29-5.57a8.69,8.69,0,0,0-1-3.57c-.87-.86-.53-1.26,1-.72s1.82.84,1.39,2a53.89,53.89,0,0,0-.19,6c2-1.53,3.52-2.61,6.1-4.56.56-.42.86-.44,1-.32S1010.06,388.19,1009.54,388.68Zm10.19,8.18a49.8,49.8,0,0,0-4-4,18.91,18.91,0,0,1-9.36,5.57c-1.08.27-1.18-.12-.13-.57,4.74-2.09,8.19-5.27,9.89-8.42,1.32-2.54,1.6-6,1-6.76s.16-1.15,1.51-.49c2.16,1.09,2.22,1.23,1.45,2.1-.28.29-.46.71-.86,2.21a18.48,18.48,0,0,1-1.69,3.75,13.86,13.86,0,0,1-1.58,2.27c5.3,1.79,6.53,3.07,6.19,4.8C1022,398.31,1021.24,398.61,1019.73,396.86Zm-8.87-10.77a12.74,12.74,0,0,1-2.83-2.16c-.43-.45-.34-.67.46-.55,2.8.45,3.76,1,3.88,1.85C1012.55,386.37,1011.88,386.68,1010.86,386.09Z" transform="translate(-995.35 -379.71)"/><path class="cls-1" d="M1009.91,414.67c-1.64.2-3.11.42-4.47.59.71.4.93.69.89,1s0,.52-.06.91l1.88-.29c1.26-.25,1.51-.23,1.94.05s.19.61-.46.66c-1,.05-2,.15-3.39.35,0,.51,0,1.08-.06,1.62,2-.17,3.54.4,3.36,1.26s-.65.76-1.2.44c-.9-.57-1.42-.93-2.16-1.45,0,.74,0,1.43,0,1.82a4.41,4.41,0,0,1-1,3.3c-.33.32-.7.27-1-.19a11.1,11.1,0,0,0-1.54-1.73c-.43-.34-.28-.49.27-.37,1.48.35,1.73.25,1.85-.59a20,20,0,0,0,.19-3.94c-1.11.17-2.4.42-3.94.71a3,3,0,0,1-1.82-.14c-.77-.35-.8-.52.09-.62,1.45-.15,3.73-.42,5.61-.69a4.12,4.12,0,0,0-.44-1.95c-2.58.42-4.4.74-5.23,1a2.5,2.5,0,0,1-2.53-.29c-.64-.49-.52-.74.07-.72a71.4,71.4,0,0,0,9-1,8.62,8.62,0,0,0,1.42-3c.06-.34.21-.44.77-.15,1.07.55,1.17.77.64,1.11a19.94,19.94,0,0,0-1.91,1.88,13.09,13.09,0,0,1,3.61-.33C1011.11,414.06,1010.89,414.55,1009.91,414.67Zm-8.75,7.27a3.48,3.48,0,0,1-1.32,1.73.6.6,0,0,1-.81-.3,1.72,1.72,0,0,1,.34-1.72,11,11,0,0,0,1.2-1.88.42.42,0,0,1,.71,0A2.58,2.58,0,0,1,1001.16,421.94Zm8.75-11.58-2.53.42a25.6,25.6,0,0,1-5.14.62c-2-.2-2.06-.69-.62-.74a44,44,0,0,0,4.75-.72c2.8-.56,3.14-.61,3.6-.51C1011,409.67,1011.05,410.16,1009.91,410.36Zm-6.5,3.52a3.64,3.64,0,0,1-1.11-1.35c-.12-.39.15-.52.71-.37,1.35.37,1.6.81,1.48,1.41S1004,414.28,1003.41,413.88Zm3.48-5.12a13.27,13.27,0,0,1-2.1-1.75c-.34-.32-.18-.54.5-.47,2.21.23,2.92.69,2.89,1.56A.82.82,0,0,1,1006.89,408.76Zm15.64,6.21a36,36,0,0,0-4.62.32c.93.42,1.08,1,.87,1.4a24.32,24.32,0,0,0-.19,4.19,24.88,24.88,0,0,1-.71,7.22c-.34.91-.89.79-1-.17a53.56,53.56,0,0,1,0-6.18c.15-3.41.06-5-.34-6.29a8.06,8.06,0,0,1-2.71-.17c-.68,5.54-2.22,7.54-5.3,9.12-.58.29-.89.09-.4-.32a10.13,10.13,0,0,0,3.48-4.73c1-3.9,1.08-6.73.12-7.74-.46-.52-.34-.84,1.45-.59,2.77-1.28,3.79-2.07,4-2.64s.37-.69,1.85.05,1.54,1.18.65,1.28a44.37,44.37,0,0,0-5.73,1.55c.19.57.25,1.24,0,3.55a52.46,52.46,0,0,0,6.47-1.06,5,5,0,0,1,2.52.15C1023.92,414.38,1023.83,415,1022.53,415Z" transform="translate(-995.35 -379.71)"/><path class="cls-1" d="M999.41,452.14c-.71,1.09-1.79.76-1.48-.27a21.65,21.65,0,0,1,1.1-2.54c.41-.66.53-.66.68-.12A3.26,3.26,0,0,1,999.41,452.14Zm0-10.91c-.87.46-1.08.27-.53-.27a17.67,17.67,0,0,0,4.07-5.13,1.69,1.69,0,0,0,.21-1.11c-.24-.69.19-.88,1.51-.22,1.17.59,1.17.67.65,1.13a18.45,18.45,0,0,0-2.1,2.42,4.47,4.47,0,0,0,2.31-.57c.84-.42,1.14-.42,2.22.15.8.44.71.84.09,1-.8.28-1.81.92-3.75,2.94,1-.25,2-.47,2.34-.6a1.87,1.87,0,0,1,1.35-.07,7.87,7.87,0,0,1,1.33.54c.46.22.55.55.12.89a3.78,3.78,0,0,0-.68,1.5,10,10,0,0,1-1.14,3.33c-.31.52-.49.57-.89.25a.92.92,0,0,0-.77-.23,40.87,40.87,0,0,0-4.56.67c-.09.2-.18.34-.31.34s-.64-.19-.8-.78c-.58-3.08-1.11-4.46-1.44-4.78-.5-.5-.16-.94,1.26-.55a28.08,28.08,0,0,0,3.26-.37c2.41-3.2,2.31-3.25,1.67-3.13a3.55,3.55,0,0,1-2.1-.09A17,17,0,0,1,999.44,441.23Zm1.17,1.48c.18,1.2.4,2.88.61,4.53.74-.17,1.6-.35,2.07-.42l.09-1.68a5.63,5.63,0,0,1-1.3,0c-.86-.12-.8-.56-.18-.61a14.85,14.85,0,0,0,1.48-.2,3.28,3.28,0,0,0-.25-1.9C1002.39,442.53,1001.5,442.66,1000.61,442.71Zm1.17,8.54a5.12,5.12,0,0,1-.34-1.82c0-.49.12-.52.37-.27,1.14.94,1.29,1.38,1,1.95S1001.9,451.65,1001.78,451.25Zm2.67-.81a3.91,3.91,0,0,1-.58-1.38c-.09-.59.06-.61.34-.44,1.08.66,1.35,1.06,1.2,1.62S1004.73,450.86,1004.45,450.44Zm1.48-4c.5,0,.59,0,.71-.5a12.94,12.94,0,0,0,.49-3.4c0-.56-.3-.71-1-.64-.43.05-.83.1-2,.27.52.25.74.47.52.91a4.06,4.06,0,0,0-.18.89,2.4,2.4,0,0,1,1.6-.15c.68.22.65.5,0,.67s-1.17.34-1.73.47l-.12,1.65A6.7,6.7,0,0,1,1005.93,446.48Zm1.57,3.81a12.84,12.84,0,0,1-.89-1.55c-.43-.69-.15-.81.43-.54,1.76.79,1.94,1.28,1.39,2.07C1008.09,450.79,1007.84,450.79,1007.5,450.29Zm12.08-7.31c.58.19.7.61.21.78a28.44,28.44,0,0,1-3.94.6c0,1,0,1.92,0,2.39,1.91-.27,3.3-.5,4.71-.72a4.46,4.46,0,0,1,3.17.4c.87.54.53,1-.52,1a40.5,40.5,0,0,0-7.36.27c.06,4.55-.15,6.13-.8,7.91-.28.71-.55.69-.71-.13-.09-.47-.12-4-.06-7.64a26.08,26.08,0,0,0-3.51.5,3.29,3.29,0,0,1-2.22-.2c-.92-.32-.89-.54-.12-.59,1.47-.1,2.92-.25,5.88-.57,0-.61,0-1.48,0-2.41-2.19.17-2.8.1-3.2-.1-.62-.3-.62-.52.06-.57.92-.07,2.09-.19,3.11-.37,0-.76,0-1.55,0-2.31-2.31.29-3,.19-3.61,0-.83-.27-.8-.45-.06-.52a65.5,65.5,0,0,0,7.64-1.26,3.64,3.64,0,0,1,2.4.08c.65.34.56.71-.52.86s-2,.3-4.16.59c0,.67,0,1.45-.06,2.24A7,7,0,0,1,1019.58,443Zm-7.06-4.51a7.58,7.58,0,0,1-1.75-2.56c-.19-.35-.09-.47.8-.15,1.75.56,2.19,1.3,2.09,2.21A.69.69,0,0,1,1012.52,438.47Zm5.92-1.24a22.76,22.76,0,0,1-3,1.93c-.59.32-.77.17-.31-.25,2.59-2.49,3.2-3.47,3.24-4.29,0-.59.33-.66,1.78.15,1,.52,1,.81.22,1.18A13.46,13.46,0,0,0,1018.44,437.23Z" transform="translate(-995.35 -379.71)"/><path class="cls-1" d="M1007.72,472.28a32.31,32.31,0,0,1-.43,3.92c-.22,1-.86,2-1.17,2s-.49-.32-.8-1.4c-.19-.64-.43-.67-1.2-.5a10.33,10.33,0,0,1-2.71.25c-.16,1.08-.37,1.38-.56,1.38-.37,0-.83-.59-.77-1.7.19-3.52-.21-6.48-1-7.37-.43-.54-.28-.66.49-.59a6,6,0,0,1,.74.12,4.63,4.63,0,0,0,.62-.09c2-2.62,3-4.66,2.8-5-.43-.94-.28-1.18,1.6-.79,1.63.37,1.6.69.83,1.26a32.22,32.22,0,0,0-4.19,4.36,20.54,20.54,0,0,0,3.11-.84c.65-.25.93-.27,2.1.12,1.44.52,1.63.84,1,1.58A11.14,11.14,0,0,0,1007.72,472.28Zm-3.73-3.94c-1.69.3-2.4.39-3,.44a28.29,28.29,0,0,1,.34,3c.58-.12.89-.22,1.26-.32a4.77,4.77,0,0,1,1.51-.22c.77,0,1,.59.27.79a9.47,9.47,0,0,1-3,.37,33.74,33.74,0,0,1,0,3.47c2-.46,3.08-.59,3.63-.27s.68.23.86-1.52a29.49,29.49,0,0,0,.1-5.08C1006,468.27,1005.6,468,1004,468.34Zm16.48,4.29a29.19,29.19,0,0,1-.68,4.6,5.31,5.31,0,0,1-2.89,3.77c-.68.32-1.08.27-1.3-.32a7.47,7.47,0,0,0-1.63-2.34c-.8-.71-.65-1,.77-.37,1.91.77,2.8.2,3.36-1.89a21.94,21.94,0,0,0,.92-6.36c-.06-1.6-.31-1.92-1.35-1.85-1.2.1-1.91.2-2.9.35a3.25,3.25,0,0,1-2.25-.42,16.88,16.88,0,0,1-3.38,2.73c-.59.32-.84.15-.31-.32a26.09,26.09,0,0,0,4.53-5.54c.95-1.75,1.14-2.44,1-2.74-.27-1-.18-1.08,1.36-.76,1.75.37,2,.71,1.2,1.28a13.77,13.77,0,0,0-2,2.49,18.81,18.81,0,0,1-2,2.46,4.49,4.49,0,0,0,2.31,0,10.69,10.69,0,0,0,2.59-.62c1-.49,1.23-.49,2.65.13,1.6.69,1.69,1,.83,1.87C1020.78,469.25,1020.56,470.24,1020.47,472.63Zm-7.36.76a22,22,0,0,1-1.66-2.14c-.4-.57-.25-.72.8-.5,1.6.35,2.22.92,2.34,1.68C1014.77,473.69,1013.82,474.2,1013.11,473.39Z" transform="translate(-995.35 -379.71)"/><path class="cls-1" d="M1018.07,496.49a84.3,84.3,0,0,1-7.73-6.48c-.16.19-.37.46-.65.83-3,4.14-7.67,7.86-12.19,9.15-.71.19-.77-.18-.22-.45,3.91-1.72,8.19-5.64,10.47-8.62,1.17-1.5,1.42-2.29,1.29-2.76-.18-.77.19-.91,1.6-.25,1.14.54,1.24.74.19,1.53,6,4.43,9.76,6.13,13.89,6.87,1,.2,1.2.57.15.67C1019.7,497.47,1019.18,497.32,1018.07,496.49Zm-4.13,2.76c-.74,2-.89,2.26-1.2,2.58-.52.57-.74.47-1,.15s-.43-.17-4.56.64c0,1.65-.09,3.72-.12,4.34,1.26-.42,2.65-.89,3.6-1.28s.9-.05.19.37a20.43,20.43,0,0,0-3.88,2.88c-.8.91-1.36.84-1.91,0-.46-.67-.46-.82,0-1.26s.59-.69.83-3a37.64,37.64,0,0,0,.12-4.46,5.68,5.68,0,0,0-.58-2.78c-.37-.57-.31-.86,1.29-.52a18.83,18.83,0,0,0,5.11-.79c1-.39,1.18-.39,1.64-.27a6.59,6.59,0,0,1,1.41.52c.65.34.9.61.25,1C1014.65,497.54,1014.4,498,1013.94,499.25Zm-2.53-2.37c-.49.05-1.5.25-3,.49a7.44,7.44,0,0,1-1.2.08v2a26.83,26.83,0,0,1,3.29-.67c1-.07,1.17.42.37.64a8.63,8.63,0,0,1-3.66.42c0,.87,0,1.63,0,2.17a28.12,28.12,0,0,1,3.78-.67c.8.08.8.08.9-.22a10.12,10.12,0,0,0,.55-1.79,14.37,14.37,0,0,0,.31-1.76C1012.71,496.91,1012.55,496.76,1011.41,496.88Zm5.55,10.5a49.74,49.74,0,0,0-7.67-3.26c-1.32-.41-1.32-.78,0-.56.62.09,1.85.37,2.53.54a12,12,0,0,0,3.38-2.64c.34-.71.47-.71,1.61-.22s.86.79-.1,1.13c-.21.08-2.55,1-4.31,1.83,4.71,1.06,5.91,1.67,6.38,2.41C1019.76,508.24,1018.56,508.31,1017,507.38Zm-6.32-12.18a5.92,5.92,0,0,1-1.66-1.5c-.4-.47-.24-.66.43-.56,1.76.27,2.31.61,2.37,1.4S1011.38,495.65,1010.64,495.2Z" transform="translate(-995.35 -379.71)"/><path class="cls-1" d="M1007.32,522.36c-.56,0-1.57.19-2.49.32-.1,2.41-.07,7.09-.07,8.2a8.94,8.94,0,0,1-.34,3.38c-.46,1.13-1,1.23-1.6-.15-.34-.62-.34-.81.25-2.19.25-.69.61-2.89.68-7.59a15.85,15.85,0,0,1-6.9,7c-.89.44-1.05.17-.4-.29a31.22,31.22,0,0,0,6.71-8c-3,.67-4.31.79-5.14.57-1.33-.35-1.26-.49,0-.64.83-.12,3.48-.59,5.73-1.06,0-3.7-.31-4.83-.71-5.3-1.05-1.06-.71-1.45,1.17-.89,1.54.45,1.6.52,1.17,1.56a20.68,20.68,0,0,0-.52,4.38c2.09-.46,2.68-.49,3.35-.34C1010,521.62,1010,522.09,1007.32,522.36Zm-.37,4.55a6.28,6.28,0,0,1-1.66-1.32c-.62-.72-.5-.79,0-.72,1.75.2,2.31.59,2.46.94C1008.15,526.89,1007.47,527.14,1007,526.91Zm14.57-4.6c-1.39.22-2.53.39-3.58.54.1,2.78.44,8.87.53,9.76a4.86,4.86,0,0,1-1.36,3.49.84.84,0,0,1-1.44-.14,7.84,7.84,0,0,0-2.07-2.29c-.64-.5-.58-.77.43-.42,1.57.51,2.37.49,2.47-.15a89.87,89.87,0,0,0,.24-9.36,17.1,17.1,0,0,1-9.27,7.19c-.83.27-1.1.08-.18-.42a27.24,27.24,0,0,0,8.22-7.32c-4.37.69-4.83.6-5.79.42-1.14-.19-1.08-.56.22-.66,1-.08,4.37-.59,6.77-1.06,0-3.35-.37-5.15-.92-5.86-.71-.89-.43-1.24,1.32-.69,1.94.56,1.91.83,1.33,1.72a16.37,16.37,0,0,0-.5,4.51c2.87-.67,3.92-.72,4.87-.32S1023.7,522,1021.52,522.31Z" transform="translate(-995.35 -379.71)"/><path class="cls-1" d="M1009,555.4a3.27,3.27,0,0,0,2-2.34,1.54,1.54,0,0,1-.37,0,1.83,1.83,0,0,1-2-1.65,1.92,1.92,0,0,1,2-1.68,2.1,2.1,0,0,1,2.31,2,4.88,4.88,0,0,1-3.45,4.19Z" transform="translate(-995.35 -379.71)"/><path class="cls-1" d="M1012.77,575.33c2.77-.49,3.48-.54,4.22-.29,1,.34,1,.71-.06.83-2.68.35-5.18.62-7.76.87a33.31,33.31,0,0,1-6.13.32,19,19,0,0,1-.83,4c-1.23,4.24-2.59,6.53-5.73,8.55-.59.34-.8.1-.37-.32a15.46,15.46,0,0,0,4.37-7.49c.8-2.61.83-4.34.4-5.08-.31-.54-.09-.88,1.85-.29A66.66,66.66,0,0,0,1012.77,575.33Zm-1.14,4.66c.43.2.43.47-.4.59l-1.75.25c.39.24.39.46.24.91a20,20,0,0,0-.18,3.87c1.75-.47,2.52-.52,2.58-.42s-.37.56-2.58,1.28a13.52,13.52,0,0,1-.37,3.87c-.31.91-.77,1-1,.44-.52-1-.52-1.5-.25-1.9a4.48,4.48,0,0,0,.5-2.07,36.45,36.45,0,0,0-5.82,2,1.6,1.6,0,0,1-1.82-.07c-1.11-.61-1.08-.91-.37-.94a13,13,0,0,0,3.36-.59,37.94,37.94,0,0,0,.15-5.74c-1.57-.1-1.57-.52-.4-.59s2.56-.29,4.34-.59c.34-1.36.25-1.58-.15-1.48-2.34.47-2.62.47-3.33.22s-.77-.51-.24-.56c2.49-.2,3.35-.4,4-.74a1.56,1.56,0,0,1,1.6,0c1,.46,1,.71.46,1s-.74.42-1.14,1.28C1010.83,579.82,1011.23,579.79,1011.63,580Zm-9.3-5.32a6.82,6.82,0,0,0-1.05-2.1c-.64-.71-.46-1.06,1.57-.56a22.7,22.7,0,0,0,3.82-.74c.62-.27,1-.35,2.37.19.93.37,1,.67.34,1a8.54,8.54,0,0,0-.71,1.13c-.15.17-.18.3,0,.42.4.32.25.62-.86.67-.58,0-1.69.17-4.16.54C1003.5,576.15,1002.67,576.17,1002.33,574.67Zm1.23-.13a21.17,21.17,0,0,0,2.71-.41c.62-.13.77-.45,1-1.53.09-.45-.09-.64-.83-.5-1,.2-2,.38-3.24.6C1003.29,573.24,1003.44,573.88,1003.56,574.54Zm1.54,6.9a8,8,0,0,1,0,1.28,2.46,2.46,0,0,0,.86-.09c.81-.25,1.24-.15,1.42.22.09.17,0,.37-.24.42a6.47,6.47,0,0,1-2.07.09l-.06,1.34a2.32,2.32,0,0,0,1-.15c.8-.27,1.14-.2,1.38.19.16.2.16.35-.21.42a5.5,5.5,0,0,1-2.22.08l-.12,1.67c1-.27,2.12-.56,3.54-1,0-.69,0-1.53,0-2.54a7,7,0,0,0-.28-2.37C1006.76,581.25,1005.81,581.37,1005.1,581.44Zm12.63-1.6c1.82-.54,2.52-.49,3.32-.05.59.27.5.57-.64.69s-2.34.3-3.39.49c1.2.6,1.29.79,1,1.19-.1.12-.4.86-.71,1.57a16.77,16.77,0,0,1-1,1.75c1.73,1.48,3.42,2.47,7.61,3.43.8.17.74.56.09.59-4.8.27-5.2.27-5.85-.42-1.05-1.06-2.06-2.12-2.59-2.66a9.18,9.18,0,0,1-5.17,2.36c-.68.13-.71-.17-.12-.39a10.28,10.28,0,0,0,4.46-2.91l-2.59-3a6.82,6.82,0,0,1-1.2.91c-.43.3-.73.13-.37-.27,3.39-3.79,3.82-5.79,3.61-6.35-.09-.27.25-.54,1.17-.13,1.26.6,1.35.89.8,1.31a6.24,6.24,0,0,0-1.08,1.23c-.46.59-.83,1.09-1.17,1.53A27.55,27.55,0,0,0,1017.73,579.84Zm-6-6a6.43,6.43,0,0,0-.86-2.24c-.52-.54-.28-1,1.48-.49a16.56,16.56,0,0,0,4.1-.62c.64-.24,1-.24,2.37.32,1.08.47,1.08.82.49,1.16a3.6,3.6,0,0,0-1.14,1.09c-.15.15-.22.32,0,.42.55.32.43.66-.62.69a39.59,39.59,0,0,0-4.62.32C1012.74,575.28,1012.09,575.14,1011.72,573.8Zm1.2-.14a15.13,15.13,0,0,0,3.15-.35c.24,0,.33-.24.61-1s.16-1-.49-.91-1.94.22-3.48.42C1012.77,572.33,1012.86,572.84,1012.92,573.66Zm.59,7.51a6,6,0,0,1-.71.72,36.76,36.76,0,0,0,2.59,2.71,6.59,6.59,0,0,0,.68-3.4A4.89,4.89,0,0,1,1013.51,581.17Z" transform="translate(-995.35 -379.71)"/><path class="cls-1" d="M1006,603a69.36,69.36,0,0,0-7.14,1.43c-.92.22-1.26.17-2.62-.69-.68-.42-.49-.57.4-.52a30.31,30.31,0,0,0,7.08-.79,5.89,5.89,0,0,1,3.18-.1C1007.6,602.52,1007.6,602.77,1006,603Zm-4.58,13.23c-.16.69-.74.74-1.08-.57-.86-3-1.17-3.65-1.85-4.19-.4-.32-.19-.64.62-.54a4.57,4.57,0,0,1,1.17.37,12.68,12.68,0,0,0,4-1c.37-.2.83-.22,1.91.27s1.05.64.58,1a1.92,1.92,0,0,0-.73,1.18c-.16.5-.13.69.21.91s.4.62-.15.72c-1.48.27-3.05.54-4.68.86A5.65,5.65,0,0,1,1001.38,616.2Zm4-7.62c-2.68.74-3.85.79-5.17.57-.83-.17-.77-.39.12-.47a11.33,11.33,0,0,0,3.29-.81,3.79,3.79,0,0,1,2.16-.25C1006.76,607.85,1006.73,608.24,1005.41,608.58Zm.28-2.76c-2.71.72-3.88.77-5.24.52-.8-.15-.74-.37.16-.44a12.87,12.87,0,0,0,3.23-.79,3.31,3.31,0,0,1,2.22-.27C1007.07,605.06,1006.86,605.48,1005.69,605.82Zm-4.35,8.68c2.62-.74,3.08-.94,3.18-1.31a3.48,3.48,0,0,0,.09-1.38c0-.32-.28-.42-.89-.32-1.67.3-2.34.42-2.93.54C1000.94,612.7,1001.13,613.61,1001.34,614.5Zm3-13.65a9.86,9.86,0,0,1-2.49-2.25c-.43-.51-.22-.69.64-.49,2.38.42,3,.69,3.08,2A.8.8,0,0,1,1004.33,600.85Zm6.1,8.08c-.09.44-.31.54-.56.44s-.52-.47-.64-.74a10,10,0,0,0-1.11-2.26c-.49-.64-.09-1,1.66-.37,1.27-.13,2.47-.22,3.54-.37a3.94,3.94,0,0,0-.24-1.53c-.19,0-.4,0-.62,0-.21.37-.34.34-.49.2a2.17,2.17,0,0,1-.46-1.41c0-.32-.06-.61-.1-.91-2.09.37-2.27.37-3.29-.12-.68-.3-.65-.42.06-.45.92-.05,1.91-.12,3.11-.22a3.55,3.55,0,0,0-1.29-2.68c-.52-.35-.25-.67.34-.62a10.86,10.86,0,0,1,1.75.37c.31.1.43.27.37,1.06a14.64,14.64,0,0,0,.06,1.75c1-.12,1.64-.2,3.42-.45.43-1.94.37-2.78.1-3.12-.56-.67-.1-1,.8-.62,1.63.69,1.81.94,1.51,1.33a6.23,6.23,0,0,0-1,2.19c3.45-.51,4.06-.51,4.87-.14,1.2.49,1.1,1-.56,1a45.21,45.21,0,0,0-4.65.12c-.09.39-.21.74-.37,1.26.8.64.74,1.08,0,1.13-1,.07-1.78.12-2.55.22,1,.37,1.14.59,1,.86a4.24,4.24,0,0,0-.21.57,21,21,0,0,0,2.83-.49,2.08,2.08,0,0,1,2.13.15c1.35.61,1.35.78.83,1.1a3.12,3.12,0,0,0-1.11,1.14c.71.47.71.81-.49.88s-2.81.18-4.38.3V610c.71-.1,1.48-.22,2.22-.35a5.46,5.46,0,0,1,2.16,0c.55.1.58.62-.9.81-1.08.15-2.06.28-3.51.37v1.53c.46-.1.89-.17,1.39-.25a4.31,4.31,0,0,1,2.06,0c.46.18.46.57-.28.72a31.9,31.9,0,0,1-3.17.42v1.72c1.82-.14,3.3-.27,3.82-.34,2.46-.35,3.14-.17,4.28.52.89.49.77,1.06-1,.86a33.18,33.18,0,0,0-6.68-.22,54.69,54.69,0,0,0-6.5.51,3,3,0,0,1-2.52-.32c-.71-.39-.59-.66.06-.61s3.57-.05,7.11-.3l0-1.7a8.77,8.77,0,0,1-3-.15c-.8-.27-.8-.44-.06-.46s1.84-.08,3-.23V611c-2.27.18-2.74.13-3.54-.1s-.68-.54.06-.54,2.22,0,3.48-.17l0-1.58Zm2.93-2.71c-1.24.12-2.44.25-3.36.37.09.54.25,1.18.34,1.62l3-.27Zm-.77-4.36c0,.44.06,1,.12,1.57,2.12-.14,2.71-.34,2.83-.78s.19-.82.25-1.14A32,32,0,0,0,1012.59,601.86Zm2.15,5.94c2.93-.25,3.14-.33,3.33-.74.55-1.19.37-1.33-.59-1.26-.37,0-1.41.15-2.65.27C1014.8,606.47,1014.77,607,1014.74,607.8Z" transform="translate(-995.35 -379.71)"/><path class="cls-1" d="M1007.72,634.84a32.31,32.31,0,0,1-.43,3.92c-.22,1-.86,2-1.17,2s-.49-.32-.8-1.4c-.19-.64-.43-.67-1.2-.5a10.33,10.33,0,0,1-2.71.25c-.16,1.08-.37,1.38-.56,1.38-.37,0-.83-.59-.77-1.7.19-3.52-.21-6.48-1-7.37-.43-.54-.28-.66.49-.59a4.56,4.56,0,0,1,.74.12c.21,0,.4,0,.62-.09,2-2.62,3-4.66,2.8-5-.43-.94-.28-1.18,1.6-.79,1.63.37,1.6.69.83,1.26a32.22,32.22,0,0,0-4.19,4.36,20.54,20.54,0,0,0,3.11-.84c.65-.25.93-.27,2.1.12,1.44.52,1.63.84,1,1.58A11.14,11.14,0,0,0,1007.72,634.84ZM1004,630.9c-1.69.3-2.4.39-3,.44a28.29,28.29,0,0,1,.34,3c.58-.12.89-.22,1.26-.32a4.77,4.77,0,0,1,1.51-.22c.77.05,1,.59.27.79a9.47,9.47,0,0,1-3,.37,33.76,33.76,0,0,1,0,3.47c2-.46,3.08-.59,3.63-.27s.68.22.86-1.52a29.49,29.49,0,0,0,.1-5.08C1006,630.83,1005.6,630.6,1004,630.9Zm16.48,4.29a29.19,29.19,0,0,1-.68,4.6,5.33,5.33,0,0,1-2.89,3.77c-.68.32-1.08.27-1.3-.32a7.47,7.47,0,0,0-1.63-2.34c-.8-.71-.65-1,.77-.37,1.91.77,2.8.2,3.36-1.89a21.94,21.94,0,0,0,.92-6.36c-.06-1.6-.31-1.92-1.35-1.85-1.2.1-1.91.2-2.9.35a3.25,3.25,0,0,1-2.25-.42,16.88,16.88,0,0,1-3.38,2.73c-.59.32-.84.15-.31-.32a26.09,26.09,0,0,0,4.53-5.54c.95-1.75,1.14-2.44,1-2.74-.27-1-.18-1.08,1.36-.76,1.75.37,2,.72,1.2,1.28a13.77,13.77,0,0,0-2,2.49,18.17,18.17,0,0,1-2,2.46,4.49,4.49,0,0,0,2.31,0,10.69,10.69,0,0,0,2.59-.62c1-.49,1.23-.49,2.65.13,1.6.69,1.69,1,.83,1.87C1020.78,631.81,1020.56,632.8,1020.47,635.19Zm-7.36.76a22,22,0,0,1-1.66-2.14c-.4-.57-.25-.72.8-.5,1.6.35,2.22.92,2.34,1.68C1014.77,636.25,1013.82,636.76,1013.11,636Z" transform="translate(-995.35 -379.71)"/><path class="cls-1" d="M1012.09,663a6.53,6.53,0,0,1,2.38,0c.64.12.8.64-.93.91-.74.1-2.8.35-5,.54,1.39.77,2.56,1.38,3.54,1.9,2-1,2.74-1.68,2.93-2.15.06-.24.28-.29,1.54.18s1.32.56.74.69a14,14,0,0,0-1.82.59,21.41,21.41,0,0,1-2.71,1.06c3.7,1.8,5.64,2.09,10.26,2.71.74.1.74.47.06.59-5.45.74-5.82.71-7.3-.17-2.71-1.68-5-3.11-7.64-4.86-.34.25-.71.5-1.29.94.58.27.68.47.46.84a4.66,4.66,0,0,0-.31,2.31c1-.42,1.73-.71,2.71-1.13,1.14-.44,1.42-.17.16.66a21.75,21.75,0,0,0-3.39,2.64c-.56.54-.92.52-1.82-.25-.49-.41-.43-.68.19-1.08s.89-1.11.86-3.28a20.72,20.72,0,0,1-8.25,3.26c-.74.14-.81-.2-.28-.35a31.94,31.94,0,0,0,7.45-3.55,12.1,12.1,0,0,0,1.73-1.33c-1.14.1-2.19.22-2.84.3a5.2,5.2,0,0,1-2.25-.15c-.83-.22-.83-.54.25-.59s4.25-.32,7.85-.81a10.39,10.39,0,0,1-1.35-1.43c-.22-.27.06-.54.49-.42,1.94.47,2.09.89,1.63,1.75Zm-11.61-6.11c-.68.27-.77.12-.3-.3a7.34,7.34,0,0,0,1.32-1.6,3.14,3.14,0,0,0,.43-1.4c0-.45.22-.52.8-.3,1.2.47,1.26.62,1,.89-.07.07-.31.37-.62.69.59-.08,1.36-.22,2.62-.52a3.6,3.6,0,0,0-.53-2.29c-.61-.57-.36-1.06.5-.84,1.72.49,2,.76,1.69,1.11a4.31,4.31,0,0,0-.37,1.72c1.85-.46,2.74-.51,3.17-.27s.37.42-.27.59c-1.14.3-1.94.5-3,.67,0,.32,0,.71-.06,1.11.52-.07,1.17-.2,1.57-.27,1.94-.37,2.53-.35,2.92-.08s.25.47-1,.64c-1,.13-2.22.3-3.48.5,0,.39,0,.76,0,1.13.58-.12,1.11-.25,1.41-.34a2.48,2.48,0,0,1,1.79.07c.83.25.89.39.74.64a1.91,1.91,0,0,0-.28,1.06,3,3,0,0,1-.52,1.82c-.37.47-.62.42-1,0a4.82,4.82,0,0,0-1.29-1c-.37-.15-.34-.25.12-.2.9.1,1.14-.05,1.2-.3a2.92,2.92,0,0,0,.07-1c0-.25-.25-.35-1-.3-.31,0-.77.1-1.26.2v2a4.88,4.88,0,0,1-.16,1.63c-.4.79-.71.81-1.07.17a1.5,1.5,0,0,1-.1-1.72,8.49,8.49,0,0,0,.16-1.75c-.71.14-1.67.29-2.25.37a10.9,10.9,0,0,1-.28,2.36c-.18.86-.49.91-.95.59a.84.84,0,0,1-.37-1,3.73,3.73,0,0,0,.06-2.17c-.37-.69-.15-.89,1.23-.47.8-.1,1.73-.27,2.59-.42,0-.37,0-.76,0-1.21-1.85.35-4.31.82-5.57,1.09s-1.51.22-2.25-.25-.59-.54.15-.54a75.48,75.48,0,0,0,7.7-1.08v-1.16a10.75,10.75,0,0,1-3.08.15A6.72,6.72,0,0,1,1000.48,656.93Zm13.8.49c.06,1.18,0,1.65-.28,1.92s-.58.32-.86,0a1.47,1.47,0,0,1-.28-1.33,6.3,6.3,0,0,0-.4-3.43c-.31-.44,0-.74.9-.42,1.2.4,1.26.6,1.11,1A8.79,8.79,0,0,0,1014.28,657.42Zm4.74-5.57c.28.13.31.27,0,.86a7.53,7.53,0,0,0-.34,2.54,42,42,0,0,0,0,5.18,2.67,2.67,0,0,1-.86,2.24c-.34.29-.61.27-1-.22a8.42,8.42,0,0,0-2.07-1.51c-.49-.32-.3-.61.62-.41,1.32.32,1.57.14,1.69-.33a37.54,37.54,0,0,0,.09-6.67,2.83,2.83,0,0,0-.61-1.7c-.52-.59-.28-.84.61-.67A6,6,0,0,1,1019,651.85Z" transform="translate(-995.35 -379.71)"/><path class="cls-1" d="M1004.89,681.94c-.71,1-1.45,1.85-2.16,2.69a2.25,2.25,0,0,1,1.29,2.49c-.06,1.33-.09,3.08-.15,7.19a8.87,8.87,0,0,1-.43,2.59c-.22.42-.65.39-1-.08a3,3,0,0,1-.43-2.93c.28-.52.5-2.12.59-4.9a9.73,9.73,0,0,0-.34-3.89,20.41,20.41,0,0,1-6.38,4.75c-.55.27-.77,0-.24-.42a25.31,25.31,0,0,0,6.16-6.31c1.44-2,2.06-3.25,1.78-4s.28-1.06,1.6-.19,1.36,1.18,1,1.52A8.17,8.17,0,0,0,1004.89,681.94Zm16.38,1.73-6.65.91c-.71.1-1.26.15-1.76.2,1.23.59,1.27,1,1.17,1.57a10.35,10.35,0,0,0-.12,1.95,33,33,0,0,0,4-.86,3.55,3.55,0,0,1,1.91.19c.71.32.62.62-.15.72-1,.12-2.16.32-3.45.52a9.07,9.07,0,0,1-2.31,0c0,.87,0,2,.09,3.48a25.86,25.86,0,0,0,4.28-.84,3.77,3.77,0,0,1,2.28.25c.86.39.71.81-.15.88s-2.71.23-4,.37a6.59,6.59,0,0,1-2.4,0c.16,4.66.13,5.28-.37,6.41-.24.54-.64.57-1-.12a3.09,3.09,0,0,1-.37-2.76c.27-.87.49-3.67.37-8.53a6.55,6.55,0,0,0-.68-3.22,4.15,4.15,0,0,1-1.6-.23,15.74,15.74,0,0,1-4.81,4c-.55.3-.77,0-.24-.42a26.5,26.5,0,0,0,5-5.91c1.32-2.19,1.81-3.59,1.69-4.21-.22-.84.12-1.13,1.54-.47s1.69,1.06,1,1.5a7.44,7.44,0,0,0-1.24,1.48,41.14,41.14,0,0,1-2.61,3.57,49.18,49.18,0,0,0,7.39-1.42,5.88,5.88,0,0,1,3.69,0C1022.59,683.08,1022.41,683.52,1021.27,683.67Z" transform="translate(-995.35 -379.71)"/></g></svg>